<mxfile host="Electron" modified="2024-04-23T12:14:26.102Z" agent="Mozilla/5.0 (Windows NT 10.0; Win64; x64) AppleWebKit/537.36 (KHTML, like Gecko) draw.io/24.2.5 Chrome/120.0.6099.109 Electron/28.1.0 Safari/537.36" etag="3VsgvhOufLZ7jWJ1eYeG" version="24.2.5" type="device">
  <diagram name="Page-1" id="lum7lyWAU-H6TpJw_ucp">
    <mxGraphModel dx="780" dy="504" grid="1" gridSize="10" guides="1" tooltips="1" connect="1" arrows="1" fold="1" page="1" pageScale="1" pageWidth="850" pageHeight="1100" math="0" shadow="0">
      <root>
        <mxCell id="0" />
        <mxCell id="1" parent="0" />
        <mxCell id="4u2H8YLl8aJc4Wc5pVix-11" value="" style="edgeStyle=none;orthogonalLoop=1;jettySize=auto;html=1;rounded=0;entryX=0.549;entryY=-0.031;entryDx=0;entryDy=0;entryPerimeter=0;" edge="1" parent="1" target="4u2H8YLl8aJc4Wc5pVix-3">
          <mxGeometry width="80" relative="1" as="geometry">
            <mxPoint x="430" y="350" as="sourcePoint" />
            <mxPoint x="480" y="430" as="targetPoint" />
            <Array as="points">
              <mxPoint x="430" y="430" />
            </Array>
          </mxGeometry>
        </mxCell>
        <mxCell id="4u2H8YLl8aJc4Wc5pVix-5" style="edgeStyle=orthogonalEdgeStyle;rounded=0;orthogonalLoop=1;jettySize=auto;html=1;" edge="1" parent="1" source="4u2H8YLl8aJc4Wc5pVix-1">
          <mxGeometry relative="1" as="geometry">
            <mxPoint x="401.43000000000006" y="180" as="targetPoint" />
          </mxGeometry>
        </mxCell>
        <mxCell id="4u2H8YLl8aJc4Wc5pVix-1" value="" style="shape=image;imageAspect=0;aspect=fixed;verticalLabelPosition=bottom;verticalAlign=top;image=data:image/png,iVBORw0KGgoAAAANSUhEUgAABLAAAAHlCAYAAADlWgUsAAAABGdBTUEAALGPC/xhBQAAACBjSFJNAAB6JgAAgIQAAPoAAACA6AAAdTAAAOpgAAA6mAAAF3CculE8AAAABmJLR0QA/wD/AP+gvaeTAABbsklEQVR42u3deZgkVZX//8+JrMrI6gW6KqtAWwRENrUFN0AQtEFAUUG6K1NAviBuOOOMOm6DOjq0Oo6o4zIuv1FwZJM1qxoEFAcQGlAUFGVpZBUQAWmqsqqbXiojszLO749qFBR6qyUiM96v5+F56OrqjLg3bpx778kbNyQAAAAAAAAAAAAAAAAAAAAAAAAAAAAAAAAAAAAAAAAAAAAAAAAAAAAAAAAAAAAAAAAAAAAAAAAAAAAAAAAAAAAAAAAAAAAAAAAAAAAAAAAAAAAAAAAAAAAAAAAAAAAAAAAAAAAAAAAAAAAAAAAAAAAAAAAAAAAAAAAAAAAAAAAAAAAAAAAAAAAAAAAAAAAAAAAAAAAAAAAAAAAAAAAAAAAAAAAAAAAAAAAAAAAAAAAAAAAAAAAAAAAAAAAAAAAAAAAAAAAAAAAAAAAAAAAAAAAAAAAAAAAAAAAAAAAAAAAAAAAAAAAAAAAAAAAAAAAAAAAAAAAAAAAAAAAAAAAAAAAAAAAAAAAAAAAAAAAAAAAAAAAAAAAAAAAAAAAAAAAAAAAAAAAAAAAAAAAAAAAAAAAAAAAAAAAAAAAAAAAAAAAAAAAAAAAAAAAAAAAAAAAAAAAAAAAAAAAAAAAAAAAAAAAAAAAAAAAAAAAAAAAAAAAAAAAAAAAAAAAAAAAAAAAAAAAAAAAAAAAAAAAAAAAAAAAAAAAAAAAAAAAAAAAAAAAAAAAAAAAAAAAAAAAAAAAAAAAAAAAAAAAAAAAAAAAAAAAAAAAAAAAAAAAAAAAAAAAAAAAAAAAAAAAAAAAAAAAAAAAAAAAAAAAAAAAAAAAAAAAAAAAAAAAAAAAAAAAAAAAAAAAAAAAAAAAAAAAAAAAAAAAAAAAAAAAAAAAAAAAAAAAAAAAAAAAAAAAAAAAAAAAAAAAAAAAAU8aoAmBmFQv958jtdak4Gdd3q/WB/+CqAAAAAADSrIMqAGaYW5+k56XjVDSPCwIAAAAASLuAKgAAAAAAAECakcACAAAAAABAqpHAAgAAAAAAQKqRwAIAAAAAAECqkcACAAAAAABAqpHAAgAAAAAAQKqRwAIAAAAAAECqkcACAAAAAABAqpHAAgAAAAAAQKqRwAIAAAAAAECqkcACAAAAAABAqpHAAgAAAAAAQKqRwAIAAAAAAECqkcACAAAAAABAqpHAAgAAAAAAQKqRwAIAAAAAAECqkcACAAAAAABAqnVQBa2pGJa+6bLXpuFczP3can3gy1wVAAAAAAAwHUhgtSiXdjL5nqk4GdN1XBEAAAAAADBdeIQQAAAAAAAAqUYCCwAAAAAAAKlGAgsAAAAAAACpRgILAAAAAAAAqUYCCwAAAAAAAKlGAgsAAAAAAACpRgILAAAAAAAAqUYCCwAAAAAAAKlGAgsAAAAAAACpRgILAAAAAAAAqUYCCwAAAAAAAKlGAgsAAAAAAACpRgILAAAAAAAAqUYCCwAAAAAAAKlGAgsAAAAAAACpRgILAAAAAAAAqUYCCwAAAAAAAKlGAgsAAAAAAACpRgILAAAAAAAAqUYCCwAAAAAAAKlGAgsAAAAAAACpRgILAAAAAAAAqUYCCwAAAAAAAKlGAgsAAAAAAACpRgILAAAAAAAAqUYCCwAAAAAAAKlGAgsAAAAAAACpRgILAAAAAAAAqUYCCwAAAAAAAKlGAgsAAAAAAACpRgILAAAAAAAAqdZBFQAAAADA9Crm+3eX2Z0JHHp1NRrYiisAoNWxAgsAAAAAAACpRgILAAAAAAAAqUYCCwAAAAAAAKlGAgsAAAAAAACpRgILAAAAAAAAqUYCCwAAAAAAAKlGAgsAAAAAAACpRgILAAAAAAAAqUYCCwAAAAAAAKlGAgsAAAAAAACpRgILAAAAAAAAqUYCCwAAAAAAAKlGAgsAAAAAAACpRgILAAAAAAAAqUYCCwAAAAAAAKlGAgsAAAAAAACpRgILAAAAAAAAqUYCCwAAAAAAAKlGAgsAAAAAAACpRgILAAAAAAAAqUYCCwAAAAAAAKlGAgsAAAAAAACpRgILAAAAAAAAqUYCCwAAAAAAAKlGAgsAAAAAAACpRgILAAAAAAAAqdbRjoXq7ex/lQf2zlScjGl1tTbwCZraZly/WUfPj8fH35uW89mqPudLD+qMGlcGAAAAAIBktGUCS2a7SXp/Kk7FNSyJBNZm8Eb9eRYES9JyPqOqf1MSCSwAAAAAABLCI4QAAAAAAABINRJYAAAAAAAASDUSWAAAAAAAAEg1ElgAAAAAAABINRJYAAAAAAAASDUSWAAAAAAAAEg1ElgAAAAAAABINRJYAAAAAAAASDUSWAAAAAAAAEg1ElgAAAAAAABINRJYAAAAAAAASLUOqqA1BbJTY+nKVJyL6RauCIAtV87NK+Sen1NzJ4v9ubGpz0x9cnW4fN76mLdW5qvlwRqZVin2JxTEKyyXu3NobeUx6rCVLOzoDbfdSYp3cYt7za3XTUX9zZdqHmutma8y15ACfyzwzocej1b8UVo2Th1iKm2ncte6vF5gQTxfsvnmtq27dyjQ1pJkUs1jjZlppZvXPNYa8+BP443Oe1fp3FFqcMbZvMLi7TsUvMBjbW3SHJnmuGueAp9rUvOvfUW8WqY1Zr7KA907vG7pn6m+7OnRsVtZZ313D7S13CfaiWuO3OYo8LmKbeVEy9Jquf05zmkodj2yqqaHpEqTGmxvc+ce09sR1efnLHi+TM+T4ufFbttKboFZt7tMsnl/GZ/Io8C0zmNf62ZVcxtWEP85Nr8vn/N7V6y56HFqdfqQwGpRw1HlEmoBQOs5sbO7a3hvi4O9zPVKmV4u+S7y8bwkuUk2MTpYP5Y0/eWPbhP/5xMzSnkgH3cVC6VRxbrTTL+PZcvddfVovXI7dZ28PpXneOgLZdpb0u7u9iLJd3U181p/Tf0p1/tpM1SbaAETl93UVFPFsLchlR6U7Da53+ymm4Oo/sthXbKa2sammK/DZ9ULnfvEcfBam4g/C8bkLzApmGhsksvXxxj9Nf7YX+OQmSRzdYR1Fb1Ulexeye8x81+6a1m1PngXNT01tlO5a13oB5jrVZJepEAvkmt3uWY/7broyX5hfUz5S1+x/pq6SU2pGJZWyXS3Yt0p2V1u8e8KUf36R3XpOmq7PXTnFy0IrOMAKX6xFOwu+Yuk6HlPNpEn28lT28z6ocb6n7mCeOIblWKoulR6QNLv5Xazm24ej3TTE6qMUNOtaEnQnb/1xUHQ8XLz+GUue5lML1e90S2zidjvTx19mvwvAeavAxWTJn5u63/PXHJT4Kbx+C9x5l6X7g2ke+T6TZRv/nL16ouqXIPJI4EFAJhW24RHvTBWc5HLDpZG9lcczP7LCGAquLpl2s+l/UwuM6kYlh6V60qTXdGR15WPrakMcSVmZnBY7LztlbLgEJkOjeX7SerUMwwAt1CnpF0k30WmfpPkYX686OXfKPCr3eJLR8aW3jgVB0L76Av7d3HZW2PZ4ZF8X7k6zZ46FZkEU1HyoqRXu+x4TcSfP8v8GovtJ4W6LX1YlTGuwqbbttC/U1PBwZIfPOb+RpPm/uUyTf7O3lquvSeS6i6TKQrD8aKVbpV0leRXVWvBdVKlzpVokfYyZ9E2zXrHwS4/VKZDJM1/yjddk/34vKTdJO0m80UmqTNUXFT5FpdfY6bLq7Xha1kZnO72MT4eHKrY3ihbfqiU65O7/MmgMj2jha3lepVJr3ry4/P1nBfD/rvk9ksP/BcW6wa+7NjSbrcN9eZLx7rphymp4OHhaKCPprbpip2L91IQ3JSW8xmP8j1T+YhAMSxdIemQNJTNpa+ORAMfo9WlJHYVyq/z2F89M9feHxipD144XZ/f03X0863ZPN7M3+bSHglXbVPS5SY7bTga+gkDzak3r7B4hw7Zu9ztXZK2S/h0HpG01GI/a7gx+JvpK/PRO+bi8aNmqlDVes/XpFMb03bPhuUPmXthRuKP+S0j0eD/TfekpdHo+H8mvVPyBQm2x1UunW+x/aDaqNxEtHiW/m/W0fN9fPxdZnqXSy9IePA+au5L3YJzq7WXLJOWxFM2Bsz37y6zOxMo1epqNLBVu7SXnXVYuDI/a7GbvUfSgYnOaV1VSZco0DnV2oJrprK9/P04sf+9UjAzZQ1ylw2vO//RlownOmJuXAjfFrif4NJ+Sum+3yY94NJlLrt0JNK1JM43DSuwACAlXPEbZfaJGeo2r5c0xQmsJUExv/xwmf2j4vFDZApSsgwmJ+ktLn9LMex9VFY6Y1z2/VW1ygO0usk4sbMnXz3CLHiv3A/x9AwQnyfpAx7YB4ph6XZJpwWRnT6kypopbVTx+J4ynTJThZqvP3/rUWnaElhmfrKk7hmJPm7nSJqWBFZPV3lfi/0j4w291eSdKWiPW5v0PgX+vmKhdLO7fXokqvyU+CFJ5VxvGL/JZe/x5vibZOpIRZ/h6nbZu+X+7mK4/CF56Xsd+eb32dcmeT35/pcEZu8ZdR03sfoxFVmIoqR3yvXOYnj7g+7l0zs6O773+NrzVkzlYXbUCYXVvubUGVtgHDdfL6mlEljFzsV7yYJ/dlO/uc9O+1Ls9cn6D5j8A8VQT5iV/k+xlhbq9iNW7j473kIIANkM/ltP4SQk3xuW3lcMb79Tposlf0OK+5f5cn2qw/2e3rB0Wk/X0c+nNWyuJUGxUD6uJxy5y8wGUn69Xyrpm3HofyoWSqf0zlr83Cm8ibamLWzxhG/K6643LL+5mC/9wmK/QVJJE4+bpm228kqTX14MS8t6usr7ZjmG9OTLRxVDv8Nll0g6Qun9Un17mb4w3sj9qTfs/35fWN6ZG3jmdefLLy2GpYvNbLlL/5Ka5NXfB7cdzfyzzfHGH3vD0mnF/FEvmqpPXjc7os95Fn2d5Zf1FkoXKghulOl4SbNbsBhbuavspvPGQn+smO8/q1joP1haQr7m7+cwAICs8SlJYC0JevKlcjGMf+/SdyXbtYWqoMOl91g8fl9P2P+9vtnl59AqNq5Y6D+4J1x+s9zPMmmnFjr1eXKd5M3ggZ6w/3vbzD5m2ym4iZhMbOkUTzZlK716ukr79YSl61x+mUz7tUgVvM5iv6GYL/2gV0fMzdK17w1Lb+kJ7/itmZ+vib2FWkXeZe+O5XcV86UfziscvSN38gwE7sLRO/aE/d8LzH8n6a0tdOqhS++RNZf3FkoX9oX9u0z2A+PxmD7n7+JJebfesPSTOPDfuaus9tkeaSuZHSe3K4vh8vuL+dKnnjOnzJZE65HAAoBsmtRAqCcsH1IMl99hpgsle2EL10PeZCfG435vMV/+hLSQR+ufQV9n/8uLhfJNcrvSpJe1cFFCk53YHG/c0xuWPiaduOWrdEhgTaLqJl93fbPLzynm+8+yWD836YCWrAjTOz3svK2vUDqg3a95d7780mK+9AuXLjX5ni1clJxMx+Z8/K6esPSVHh27FXf01OvRsVsVw9J3cj5+r8lO1MRWAC0513ZXOZbdUQxL35ynI+dtcdyMG/Q56+2sw8KefOlkl9/q0mFtXtwdZPpCo+EPFfP9p/d2ll+Z9etPAgsAsmmutuCbqt5ZR8/vLZQuNPkVknZvo/qYI/MvFgu9v+jJl19M83jSiZ29hdKSOLAb5b5XGxVsK5e+UgxHbuktlBZu0WTCnInrFvN5k/jHVgxL74/H/S6ZHaeW/8bddoxdV08k0NvRwo5ivnRSYP7rFlohtylCkz5mYXRXsVA6nnt66vSE5UMsjG6X9H61z37NnZI+kAs77ioW+t+xRXErZySwJPV2Ln7FaDj7FjMtkRRmqOgFmZ3ggf+mGJau6C2UX5fVNkACCwCyKden8mbtEdCTL5V9fPy29cu023Rerb3N/JZioXTKpFbntIGJPUdGf+Wuk5XG/YSmxovddXVP2P+9bXXcZu6ZYfMII1tsi+pu2zmLtukJS5dK+o7UVivgOmT+xWJY+k477XfSnV+0oFjo/dX6lx2060TzuXKdWQzLA1up3MOtveXm6/BZxbD03yb/P0nbt2kxt5XbGcWw9NNiV/l5mzU8iVn1WyyUjvcg+Lna6wvULXGIuy/rDUvXd3eV989a4UlgAUBGNbuamzSJ7NURc3sKpfPMdGF6N06dUp1yndQbjl4zJXsltaCesPyhwPxmyV+RgeKayU4cD8d+09dZftkmD6BYgTUZczY3QdwTlt843sgtN+nNbVwv7+8pLP+hVM63/EQzLP9zYLmb5crI4y7e3xn6bcVC+SBu783X27n4FVEY/l7SB9U++xhtyKFq+q3FfHnRps/aLcN9TjlXDEvflutMSV3cMeujjrR/EPv1xbD/g1kqNwksAMiqZm6jg6G+sH8XD/O/NNfR2RsY+Gua442bs7XfwMKOYlj6tsm/ofZddfVsdo8D/2VPofzuTWofHswjiGy5uXNXb/Jqgt6w/HGTXyap7TexNdcxxdDPb92VWAs7imHpm5J/S1I+Y836eXK/opgvnaRsJGGmRE++XPIguF7SDpkquKko88FiWPrvTUroZ3bfxXKumPczJf0Td8uztY3gT1kqLgksAMiq3Ib3oekJy2+MZb+R9JIM19LzPPBrN+tb0pZNKBzT2xP2/Szjg8SCuX9/YkKxkQSC+1xhyyu6Pj5v4791YmcxXzrT5V9W627ivCUW9YTLv9x6MWRRsRj2XSHpA1nuWWU6pVjo/+HOOizkTt8g6y2Ulpj5hZJmZbUOJH2wGI7+pFvlDSeoMpnAKueLoVdkOpbb5dlbRj3suD5LBSaBBQBZ7fE2sJ9CsdD/DpNfIonHpKTZMh8o5kv/2q4F7A3Lu4X1xk0mfy2XW5qYUNxx4Y46obCBaQcb6k4q/sTzNvT3O+uwsBiOXCBTJjfINumjxbD8j60TQ47aNV8PbpT8QFq3JLe3j4azf9KrI0h0P8v93VsoXbB+j0VWq8kPzoV+Xe+so+c/66Q9e4+tWzH0cyQton1soOXIblu9+rzhLJWZBBYAZFTuWb7N6wn7Pyy305W9R8g23F+avtSObwrrC8s7u/xql17AZX7asLB/dbjmp30qz3mWXyCBNZnazT37Ru7b6rjZo+HsnzJx8f/u6Srvm/az3CY86oWu5tWSvZCW/TQHeSF/zdy5i4pUxVOd2Dkazr6wrV8IsyV3u7SHN8dv6AvLO9PnSL2F0smSSrSMDTPFy7I3IAcAZNMzbAjaUyi9x2RfFd+IPstIwb/YTkms7q7y9rHiKyXN5+I+o9d56Jc/SxJrHtUziclabN3P/DflfDMcq0haSC2p02I/fTuVU7tpcXdXefumxq+S9Dwu1zM1dL2ys567amu9vZvKkKRyrqcwcpakI6iLZ7RDrPjqbQv9O/19U8rOvovFfHmRu/6d5rApMSa4NnPTF646AGR1Avn0PbB6Cv3vMtepInm1YeZf7AnLH2r1YnR3lbcP4vhayXbkom5o/qn949CXPv3NcOWcpNnUzqRGoM+wmmBJ0FvwH7p0GBX0F7utC/3zaY0hudiXEUM20mVIL+sMG5fO1+Gzsl0T5VxvIT4niy+F2cwW8/ym21U9XYu3+5veKBOPEPbNLj9Hgf8vY9FNEmdt/6uJ4QMAIKMTyL8OhoqF0uvN7bsMGDZ1QuJfLxbKJ7Tq+c+du6gYxPHVTDw32SHFvJ/65B+2VudW3CuTDT9/v4KtWFj+eR4reqZ4o3/p6Vr86vTFEP8Zjx5vGpe/JgrDM6WOzMaNYt5Pc7ejaA2b0l70AsXBpU9b/ZuRfRfjcf+OXKxY3LR2krn9ryQSWACQ5Z5v64lBZf/ukipiz6vNm1O6f7fY1b9P6536wo58PXcB+9Vs9hV/RzFf/jdJskLM/leTDT/29BWgxXx5kVyfpGaeUS6Ic/+Vvhiinbk0m6Uka34uiwXvCfs/LNM7aQKb0+XoZR76hetX/GbiLYQ9+f5+SYu5+ps8EL02i+UmgQUAmZ1BausddULBzC7g264tEiq2i4td5Zba+6U37P2ypNdz+bZktOif6wlLh6oZkcCadPyxeU/+b19Y3lnmZ4lVbRsI1/6a7rCUikcriSGTkrlNqYuF8kEm+zKXfkvuex3WW/DPrP9jm/c75ZyZfYGrvlkNZFkWi00CCwAyOxm3rZ4I13zDpT2ojC32HDW9srMOC1vhZHvzpWNd+jCXbcvHTSadHVjH7lTFpAfe8yb+Z0nQlP5X0hwqZaON7/NKOMlHDMHmmFdYvIPcz5fUQW1sYah0faZYKL1ebZ7AKhb0dkm7pey0xiU97tL9LrtVrhtddp1kv3XpfklDksYSOre4HsbXZ/GeIJi0ajC7US9IzbPQ4xqy/fQIVwVoOa8z3qQ2eaZ9R8NZ/6VIH0jzaXbn+/dw02lcsEnbJjD/tlMPkxvH2ETsKeaXf1zSa6mRTak0vbI3LB8+HFUuSSQZ0bloT2IINtXOOiwc9eAiSX3UxqQEcp0lqat9i7gkkN/+6YTz8zXJrpX71ZLuNrO7hqPu+6VTGxv7h8+ZU+4bj7S9W/x8t2AHKX6xmb1MrgWSpuXlDS67ffXqi6pZvCFIYLVuKPuWXG9Oxbl06luSPshFAVrOvASO+YSkx2VaJdcayRoybS33WevPZ75a8jEi+6feQmlwuDawLJ3nt7AjsOB0yVt1AFxz6dFAWuNu62S+bqLdaI4mVu7M6GOcLvUSPiY7jLF5PV2Lt1Osz1Abm9X6/lHSJUnEkFyQO72FJ9HjkkZdWi3pCTM15Zot+WzJusUKwCm3sjD73+R6eQsXYfX6Mcs6mZ54SnuZm8D4aX47t5ViYfmBcts1ofHb/5n0/+Wiws9W6Oy1W/IJj62pDGliNdbNT/+bcq6Yj3fxwPa12A+U2YGStpuSs1a8LKuxhQQWAGCaxgQaketaSdeY2W2W091DayuPbXiEdvisdZ0duwTWsbtZvL9kB0l6cSuU1t2/P1+H7/GoLl2XusFhvu9jkr+iRVrOGpOul+yaWLoltuY9K2t7/ElaEm+o3TQ6C7s2TbuZ+WskPdlu2FMppVw+Tx58WdJsamNz6k1v2CY86oWPRxf8YWZjSO+/Si2TjIgk/cpd15j8Vqnj7mo9/oNUqT/bP3jOnHJf1NRu5trNYn+NzA/kLa1bbl7noj3d9YkWurPucdk1Mt0os7saHeP3bGh1S4+O3SrorO0q0y4y2yuWDrSJ7RjYnmdLxP4O2Yx318sU+CeqYwM3Tt8hKs1qXXdJukvS6dLEno+x9EbJ+yUdICm3hZ3Bsqw2FxJYAICpYxqV+/ke+FkjY3vctKGkwzN5VJeuU0O3SrpV0gWS1Dtr8XPjZnCUpHeY9LIUF/6F9TD/eUX6aJrOqpjv313mJ6e85ayVa1CBn12tVZdJy8af/tdLN6Xd3CLplifbzTazj9m2Od54m0zHy/Uqbs7U2dl8xpLTTckflOwPZloVu1ZK7uYWyjRXrufItINaYwWoNa35bkmfmrkYctSLZM1/T3m9RJIuNflZ+aj+s839IuEpKyh+rok92bRtoX+n8diOkul4Sex7t8kWduSCjh9InvY3G/9O8jM88KUjY0sf3px/OKJznlBDv5H0G0nnSdLcuYuK+UbwFnnwDslfJ5JZm6RXR8x1s/4ZPKTLdEq1Zp+RBpozXd6hqHKfpG9L+vZz5pT7xsfjI93t7ZJetxn9T9yoB9dltc2QwAIATIW7ZfrP7traC+7T5dGmJB021fC6pX+W9A1J3+jrLL/Mc/En3K2cxsGhyz7U07W4MjK29FfpOKMlgbT8fyUV0tls/E+SvhREwZlDqqyZyk9+fO15KyR9S9K3uvOLFgTKnSTTMdrSbzsx1abzxQeRpOvkukoeXzO3sdXtD+qM2sb+0TwdOS8IO/cyiw+Sa7GU1CMtGw00J0hLPr25XxBMMoak9UUVj5vsv+qR/vcJVUam8oNX1Abvl/RFSV/s6Srva7H+VfK3ipWdG1TM9348xSt+x+U6N5Z/dbQ+eNtUfvD6FVtnSjpzXmHxDoEHHzDpH8Qq0430BPnXaZr2iXqm6Onm7xmpDf4gDUVfnzg/TdJpveFRu8Yaf4/J3iFpm42MNW+f6njXSkhgAQAmMxZ40Dz4t+G6LpAqzeneTXKoUblFDR3dky9/zsw/L2lxyiokZ577pqR9JCW+z3excPtxctsvhQ1nhcmXDEfBDzb0WM9UGa1ftFzScb3hUZ93Gz9ZE992ot2YbpLbGeNR5/mrdO7okz/e1Li0UhevVKQrJV0p6ZMTSQv/mKQjla6E+XN7um7be2RM054o7ync8U659k3htR5x9/8oRPXvzcRj2yNjlV9KWjSvc9GeuaDj85Ifzg33DO0lvfvauVxn5Sz3+cfr0//47cra0j9K+ti2cxZ9udEIPmayDyq9SeCkHTSDx/peWpJXf2s4uuAeSf8qlT9dLPjRcp2kZ9lCI8v7X0ksbQQAbJnY5acGUfDS4XrlXKkyo8uwR+qV31ejgX6TvUXSQ+kaJvtexXxpUfInUs67W+oe+zFTpZ7vXDAcDX53JpJXfztArNYGjzWzhZLfw23cHkz2C5MfUa0N7FONKv/z1OTVZJMW1Wig3+J4L8l+m6oye3D4TMSQwP3fUnjJL5PZHiPR4Ndnes/BlY2Lbq1GlSNMfsT6FaR42sjAPqP0bfR/n8wOrtYHTpjpveNWrLno8ZFo8F8D2QLJrqGBPEOTkQ6coUM9MR7lP5X+GqnUq7WBs6rRgpfKbbHMfv3348zs7n8lkcACAGy+hxTbviPR4Pum+rGvzU9IVH7sUfhSt4k9KFI0u/wPqZzoo2rF0N9n0k7pSTJo2KU3DNcG3rZ69XnDibabWuXaMKq/3CeW7qNVmW5SbPsMR5X9h6PBS6etvTSW/rY7WrOfXGempuxuR0z3IXpCf79LL0jR9R412Vur0cDh1bHKI8n2PYOXxlHwUjedz404oS/s38Vk70xXiPCvdUdrF1RrlauTPI+hqHJfNXrJwS59WFKD1vKkct6kBTMSMuXnT9WXGzNjSVytVy6q1ip7y22xpHvX/0Wm97+SSGABADZrAGDX5To69642Kjel5ZxGdM4TI7WBt5vZ+9IzMLQXFQvx/0vq6NvquNmawU2eN95udEvDbO+RaOCKtJzTo7p03Ug0cKJM75A0xt3dUla66V3V2sCrZyoW3afLo2p94ASZ/iMld9WCeYWjd5y2ZITKc0ypeovcXYp9v+GocklaTmhUlVUjtYFj0tX3JKdp9jlJadm4vSbzE4ajwY/+dV/O5BMSI9HAN+IgPlDSnwnjUk9eO2umtjTy4OpWradqvXJRNep5ieQfkrQsy/tfSSSwAACbnoU4cyQaev36zbFTZ7hWOTWW3pqaZIRriVTOJ3Ho8fzYByU9JyWX5rJZke23qlZ5IJUDw9rAWYHpDZKe4CZvCcviwPYcqQ2crgT2mavWBj4j6btpqIicGvtPWzIi7x+WtG1KrvkVQWR7VeuDd6W173HZEcpwInxe56I9zfW2lJzOUBD7ftXa4JlprKvRsaW/8CDeW/I7sx7MTfHMvSgj1/xja9fWqY1qNPjNarTgkKy3GxJYAICNc/2gWl/wLmnZeJpPczQauNzMDpO0JvmzsR17816e+eOW8zJ9KB3Nxn7SHa0tPaxKqid2Q7WB6y22g2Qa5WZPcRQy/Wc1WvD60bFKovveVaPhDzzjviQzXiP26un42J11WGimD6Rkivt/XZEdmfTj6hszElV+Glj8xnT0PTMvZ7mPp2Re+Xjs9vqhxuDvUt1expY+3NEZL5R0e6ajumn7metAco+2R6XNxNtn040EFgBgI72+n12tL3hvq3Saw7XKtTJfpDQ80mH2jzN9yN68L1YKVk647CcjkRal5/GNjbSbRuVmmR8maR03fepEMntHtTbwb+mIQ8vGzXWckl5xY9pnOj52tDDnbZL6UnDdr+iO1rw17QnwJw3Vll5nFh8hKcrSzTl37jG9MpWSH6uo6m4HjtYrLZEUWrHmosc7OpsHS7pLWeXB3Jk6VEcc8xbINkECCwCwoQHhDd31de9ttW98qrXBq9z0vuSrz1/T27n4FTN5zNj0/hQ0nDs90ttn+i2Dk243Y4M3aiIx4dz8qRGZrL9aq5ydppMajip3u/SdhAPMntupPPVvfIv9H1NQxXc3o/GjWiUB/pd2UVt6jUwnZukGzUeNd0tKOjnQUGBvG6lXft9KdbdizUWPj5u9yaRhZVEQz5mpQzUVvJDutE2aDVUAAHgWD+U6Oxe32gTiSev3yPn/kj6POAhmbDJTzB/1IpP2T7TAppFAwRGjqqxqxXZTrQ8stdRs1J15YzJ/y3BU+XEaT66Rb56iZPdO6xzrbE7pG7zmdS7aU6Z9E44ho4H88JW6eGVLxpDawFkmfSMj96jJ9J4UnMaHkn7T4JZaVas84ObHSBpX1ri6Zq6h+oF0qe2BBBYA4JnEgen/pXXD9k2eSETDH5Lst8mO7nVst8pbz8zBmv80ccgkW47eOxRV7mvldjNcW7DEZdcRBhJuSa5jqrXBq9J6gqtXX1SVlOjKMLPcLlP5ebkg9w8puPLvGYoG723pGBINf1ym37T7TdoTlt8gaeckz8FN51ejyv+09FilNniVmf9n5qK8WW0Gj/b/dtQJBbrW1kcCCwDwTEPCbw3VBq5v/XIsG7e4+V4l+83mnKCgRdN/mIUdMh2T8ETivGp9YGnrt5slcU7xe8R+WMnNa2SfqNYHfpT284zdT030+PIpTGCV81KyMcTML2iPGLJsPI6b75RUb+8b1d+R8BmsaHR2fqAdqnK4FnzBpNsyNdKMZ3Qfwfmr82s+Qu/a+khgAQCePqCQ7g+j+qfapTzDjaW/lenLyVaqHzndhygW+l4rV0+CpXy80dn5wXZpN0PR4L0u+wwRIYE5senC4ajylVY419H64G1JTjot8Cl7DX1PGB8oaeskb7uOjuAD7dKOR+sXLZfr8+17p5bz5npTsl2r/9Pq1ee1yf5Rlbri+J3K0qOE5jP7CLZpSV+hdAC9bGsjgQUA+NsR4Scf1aVttfKko9b1n5IeS/AUDt1Wx82e5ut2ZMIN53PtM5GYMBJ1f0vSfQSFGfVIvWb/2Eon7KbLEhzKT9kKLJMlHEPsc4+tqQy1U2OeW5/zX5L/qR1v1O7QXy9pq8TuO9l1I/XBwXaq0+HG0t+a/MzsjDeDmb43OmPXpX2Fxa+lq21dJLAAAE8dEN46Un/pQLuVa4XOXispyf0lusbzYwdP89U7PMGW82B3tO777XdHnNowt5OJDDMag97zhCojrXTOsdnlyVWYbzdFn2SS3pJsDFlzWru15wd1Rs3NPteO96pJb014FvuJtoyBQXCyNKOP1iXXhrz5xwQOu3XswdW9hdISaQm5kBbERQMAPGXy6J+UlsTtWLZqZN+T9McET2HaBvt9nf0vl2zH5Eahwb+36tsqN2a4/pLzs7YvSYLTmUtHospPW+2sR8e6b5RUS+jwvZqCFzcUO8t7SdouuUtvJ7drDBmpDZ8h+T3tdrOalOCXJvrRyFjll205VhmrPGLSd7MQ8ccbhfskeQKHzrnr5GJ4x1W9nf2vou9tLSSwAADr+Z2j0cBP27d8lbrJvpPccF9v0TS9IbBpdkSCFfvnaq37/PZtN0vi2PQN4sO0a7rHn2zNUz+1IbPbEzp45zwdOfl9q3JxkjHk0Wqt57z2bdrLxiV9s51KVOxc/CpJ8xObwJq+2tbBMLBvSGq2e9BfpXNHlehj+n6gB3ZTMSwPdOf796Abbg0ksAAAE924gu8pmW/CZkyUH/+Bklsp0dcblnedjg82s/2TqlMzfV86tdHO7WZWzc6XaYQoMa0B6PyR+uAdrXv+8W+SOnRHGG4z6dP3ILGNjc287WOIRY2zJK1um9s1SK7PkfT7odrAz9u5vYyOVR6S7CcZif03Jn17St4fmN1aLJR+01son9in8hw65fQigQUAkKSx8Uhnt3shV6++qCr3SmLjNPN9pmnwldQS+Oa44v9t93bzsCpj5jqTMDGtN0eLr1CxO5M6cjNo9E3uE8o5k78iuRjiP2j35j2sS1a71DYrVQPTPgke/jtq8y/bJCmW/08mQn+ga9NzMnqlu38vDv2R3kL/+b350tHdKm8tpCv+UAUAADNd1mobJ2/5PDlILlHnUz/oL+b7d5M0L6ESXbuytvSPmbhHYj+bSDFt98WN1UblppZuH7L7k2ubwaTecNqdj18iKakVB1dnJYZ4YGe1UUe6d0JHboxH+fOy0F5GowX/J2lFu5ezI9d5qaS07b26lbsd5abzgtAfL4blK4v50knFzsV7SeUcnXaySGABAOTyS7JS1pGoe5mklQlNNV899T158OoEW86PstJuhhqDv1OyLwFo3/hjdmGrlyF2PZDgYD4/mX+fI4bMiNGxl9ygNkhIbDtn0TYuvSChw1+3ft+kDFgSm/yydi/l42vPW2HSDSk+xbzkB8t0ioLgpmLow8WwdHFP2P/hYmd5b2lhB734jPd5AICMa9Y748uzU9xTG2a6IqHJ2kvn6/BZU/uRntijHOMWXJqtW8V/Iky5nOKWb0dBPfpTUseO3QqTatVxcjGkaZ0/zk5LXxLL1fIvSmk2OpJMeF6iDHG3TPSxsbXUI/rzJL3VZF9T4DcWw96VxbB8dW+h/7O9hcUHSid20qtPc39LFQBAtrl0w+rVF1UzVuakJk2dUWdhwRQX5uUJleWOVbXKA1lqN4F0mTDV7huKBu9t9UIM65LVkurJtEsPJxVCTInsf+WyW1fWzn8wW32PtXwMid2T6nOUU8ePs9ReOupdV0mK2r2cs2p2jlytOg6dLfmB7vbv7sHVxXBkZTEsX9kTlj/U03X08+nip2UsBgDIMrNUL92ens7P7Ybk6tt3mtoP1E5JlMPlv8hau2lEzRuUgc2DZzj+/K6NipPIPoJxMLlHCC2hx8EsgzEk6Gi2fJlN/sKEDv3Y49EFf8hSe1mhs9fKdGu7l/NhVcbc2uZlDrMkP9jk37B4/KFioXRjT9j/4WJX+Xn0+FMUR6kCAMg2j/3XWSvzUFT5Q1Lf9rlsx6n6rG113GxJfYlUolnm2s1KXbxS0n1EjamMP7qljYqTSAIrkG/xHixbqdwjKZm3bGUwhgyvW/pnSY+09D1rU9eHbaYbsxkk/aYsFDPfGXxF0hPtd/20t8m+ptgfKoala3oL/e/tU3mOMIk+DwCQ7QlkLvh1Fosts98kM/j3KRv81/NrktpIV3Gz+ets3jC6SZjC6tS9bVMY07rWmzQmthm3PI6zGUPU2om7pFbsyS2b7SUjid7H1lSG5PpSGxcxkLTQ3U6NQ3+0J+z/Xne+/FJGAVtWkQCArDKNjI5VHspm2ePfJVPlUzf4z1lux4Rqr7Gy0ff7bM4l2uqRt+TrM/D2eaNYrEbLnbLFScWQ2kg9uCuLbd69lWNIOS/puYlMWhPqsxO/R2PLTLm76vZ1ybPwmOhck50YmN9aDEs/Kxb6D2Y0sBmxgCoAgAxzezCzE+fEyj51K7A8sb1r9LB0aiOL7SZ2z+w9My1tqamV7VOY1ttsOTBLagXWH6VKM5NtPmjdGNIXantJuWRir+7PYnvpqCszL0t5WJUxD+x4SVmJDSbpILldWcyXbugN+w9nVLAJ/RZVAACZ9lBWCx7L/pjQeGW7KRz6JLIpqEt/zGq7CTy7ZZ8OTYtrbVSceguec1IbC2f2PrLE+p4piP3m2yV16LBez+R4ZUiVNS38hr7NNjI2cIOkr2YwMOzrskuK+dIvejv7X8XoYAPjMKoAALLLlN3VJOZBUpOILmnJ1PS/rmQ2As1wEqcjDEhg4VmjSguedCIxJMtJ8HHlWrfs7nMTOvLQo7p0XVbbjCxbXzZWo55PS3ZVRq/1fh7YTcV8/1nbzD5mW/rVv0cCCwCyPeF6NKsl93pHUm+Csj7dMWuKZoGzEilB0Npv0ZqMx9ZUhtSaK22Avw8h5snEEM9uDFlZa7Zsvxt7MCuhQz+S7TvVHs5WeU9tjEedb5N0d1YvuMyOa4437ioWSsfTUz1dB1XQqj2IviapkpJb7E4uCNCikxf52qyWfUT1tcWEjh3MGZ+lNVoz6fAbaLYnseYj1tpM3zimtXLliSBo/U7AZicSAy3LMaRSl0p1qQVjSBDPllsCY5XJ95etfZv62pZc3zkJq3TuaJ/Kb4nly5Tco85JmyfXmcWwdHg93/yH1asvqgoksFp27LyPrqYWAEw+mFh2l+Sr0pRKkaRwpo9cG++YkkmjJ7QCy83Hsj3p1zpJ3QQQtEEnMFvyBG4hrct4xa9TCyawzINZSbQXk2W6vVisdbLslXsoqtzXF5YXxvKfSdo+w02glK/n9uvpKpXX7xGWaTxCCABZnofHynYiwpKZRAXx+FStekgkgRVkfDIhJt9om04goUcIjRjSou1ldkIHznZ7seyWfyiq3DdutlDyP2Q8Zsy3WFcXC+Xjst5tkcACgCyPieS1TFeAJ5PAC9y6puj8C4lUm2W73ZgynvhFGzVmSySGWJzxvketuYrVlVSfo0y3F894n7OqVnmgEQV7Z3Zj978K5X5WsVD6QpYrgUcIkb6xVJB7wuXXpuV88mo0uCpo40FRPuMVECaxLD+23NQMxi2ZzcQt4+3GE3jsFJimxlxPIgZ6kPU95KwlY4gl9AILc3VmurW0aHuZSk+oMqJo4WG9Ye+XXfqXieaY2bj9qd6wvzAcDX40i8UngYXUGY4qd0taSE0AMzAoCnxWtisgmUfw8kE8JRsYu2ydJbF/jasr23eOz8ry2BntFAOTeTTJnL5HLbgpt1tCfY6y3eeYNMsFadn4cKSPdIelKwPpNGV3c3e57CM9YclHooGPZa3sPEIIAJmehwcZnkQsCZTU4xC5/JQksAJL6C2SmW43ktyyXX6009Q4kRgSK+sxRK1Z/oT6HFO2Y66b0+c8xWg0cHkzGl8g11mZjt7SR3vC8keyVm4SWACQ6c4vu4OibfWHLiW0jCZeu3ZKVj14nNBkgpV7TCbQHk3ZYlZgzbhyTi36GHIQJ/WliWf9S5PZwtOs1MUrq/WBd3gQ7ytXZt/MZ/Kv9IblN2epzCSwACDDYuk5mR0PhvXEyj6scGomjQm9ySv27LabHh27lZT1RyjRNnEwTuhtgObbZrXOe2fltlWLPoPsor0kVPHPEZ7RyNjSX1XrCw6Q2fGSHspgFQQu/2F3V3n7zBSYZg8A2WXSjlkte9PiHRI69JhUaU7NmDapxzm0Q1bbjedrmb1n0JadwJqEDpzZ+yj2ZuvGzyChFViy7davXMvqfZrZPnfTLImrtcrZ1ahnZ5neIemOjFXAvCD205WRzTlJYAFAticv22e16K44oQmUPzqFH/bnhKovs+0mZ0FmJ95oy0D4WDJdT3ZjSND0lk1GxHH8WEKH7ujpys3PYnvZUScUJGV7BdomO7VRrQ2cVY0GXmqyt0r6maQ4I4U/qKdQflcmYigNHQAyPXnJ7GQ8kCU0gbIHp+yTXA8kVH3bK6Ov4XM534SjbZj8gWTuo+z2Pd7CK1g76h0PJldvzUzG3jXhWGb728k0l+Gockk1GjjYg3gHuT7h0v1tP651P6VXR8xt//E7ACDLtumdtfi5mRzduO2ZzIRx6pJOgQdJTSZm9YX9O2dzwq89CBtoF3EusRiy1bzC4kwmJDzQnq167kOqrJE0lMikNfZMxt7Ym3sKW2xkbOnD1frAl0aiBbuY2UKTvt6uySyXej0ffrDdrykJLADIuqa9KpsF970TOapP3Qqs8UZiK7Dkbntn9I7JarnRjhMBaz6Y2LHj3F5ZrHNzb+0YYpZMm3HPZHuRZbTcU25JPFyrXDscDXxkJBp4Yey2h9w+LelaSbU2ai8f61N5Tlv3WzRmAMg4s8wNjnq6Fm8nKZH9NKZyBdaoKqskrUxkLpHBQfV8HT7LpRcTNNAuhtctfUxSIm+WswzGkK1U7pFsp5YeMsgfZKwyk/VtfGkyDUbrldur9coXqtHAwrnRnG4zW+iuJZJdI2mshYs2r1mI39bO166D5gsA2eauV2eu0E3bJ6kdJeLcVA/+7X7JXzHzDSfYJ2vNpl4o7CV3xk5oqy5A8j9K9qKZP7Blru/Jhb6PWnw/owQfv9q9R8duNaJznshOizmxUxp5hTCtHtQZNdV0rSZWY0la2NHb2benmx8s0/6S9pc0r1XKE3jwLkk/aNfrxQosAMBrs7Dp41OZ7E0JHbqZG7PbpnY24bcmU4m+9zazj8nUm5Hc/U0C2q1dmyUSQ0y+79Z6e3eW6jpQ68cQi6e4D9t0OeWjN2SpvRQLI6+VlKnxWTosGx9uVG6u1ge+VI0GDq9Gw30e6DVm/jmZblLK32zo8tf0dB39/PaNowCArAvjfOeh2SnukkCmRCYRJt2xfhPcqftM041JjSGazfHDMnavHEG4QNvxxGJIZ2c+emOWqtpkb271MuSC+FfJ1V/GYrD74QSoNFg2PjI2cMNwbfDkam1gn3q+c1tzHWPmFyihR7A33nbGD27Xq0ECCwAgk2VmkNTTddvekp6TxLFj+ZQP/MfjZmKTiSwNrrcJj3qhpN2JFmi/2YAllcBSHGSn7+nO9+/h0gtavRwraoP3S3o8oZnrm6SFGXqMu/UTnu1o9erzhofrA+cP1waP7oi6tjHXMZJdLKmennG9k8ACALTzGElvna/DZ2WiqLEdndzBg5um+iNXNkbvkLQ2oRK9MSuPAI178+0ECrSjrcZm/y6piZe53pKVR9iDIMG+Z4q59OuEDtzTFxYzsWK82FneW9LORKh0W6Gz1w7XB86vRpVFuY7O7c30WZlGUnCTvrxtYynNDgAgaV6tkD+63Qu5ncpdMjs+sROIp+PRi2Xjkn6TUIlm5cLG8e1/e5RzZno3YQLt6EGdUVNC+2BJmquw89gMxJC8XO9qm+Ik99ipYtn7MnFjmr+f6NRaHl973orh2sASq9V3lOskSasSbEAvnHgJQPvhTTotqrdQfp1iPS8lndjdw43KzVwVoMXHSgr+QW381hJJWlfQ282V1IqhlSP14K5pGuj+Um6vS6bdxO+T9E1J3q7tppiPD5dsB6IE2pb7LyXtlcSh44m+57ttPW7Px/0ua5uXXljgv5Qn9jLFN3d3lbcfHas81K7tZSuVe2T+NgJTaxrWJatV15f7ZpfPisf9NElvSeA08n1hdcehSPe2W/2SwGpRsfvHzZSO56JN35JEAgto/QnMXj1dpf1GxgZuaNMSmlwfSKx6TZdLlea09AnmlwVun0ioWl/UE5YOGYkGrmjbe8OCD7Zxfg6QSz826YMJBeY9ewvl1w3XKte2b/22Vwzprq27fjSc/YSkrRI4fC6I/Z8kndSu7aUzrxMldRGZWtvQ2spjko7oLZROdtfJM54vCNTTjvXKI4QAgKf0dvbFdi1aT778NpPvmVzd+sXT9dGjY3v8UtJjSRXNTF+QZO3YboqF/oMlP5DggHY2EvVcI2llYifg+kK71m1v2H+4zF/dTmW6T5dHZn55gqfwgWJX+Xnt2F66Vd5a8o8RldqGD9cGlpj55xKIq225vyAJLADAX5j8tT1h+ZD2K1k5ZxafnOAJRKoXfjp9H78kNvmPE5x8vqon37+4LW+KOPg8kQHt79TGxCrRpEKIv6Y3LLfhG9eWBLHsc23ZZGL9KMGjdyn2T7Xl5LwQf1ymIjGpvQzXBpdIunpGx/Tenqv4SGABAP52KvHldntNdTH090n2ouTOwJaN6JwnpvkgSU4mZGZf2FEnFNqp3fTmS0e328oJ4FnFlmgMcekUqZxvq76ncMfxJr2sHZvLeL15uaRGgqfw3mL+qBe1U532dB39fLl9iGDUnoPrILaPzugBzda1Y0WyBxZSZ0X+K3vEzeaP0nI++WZtz6KWPMGVQVaY9LJivu+kar09HumYV1i8g1ynJFun8cXTXs5o3RWj4ezVUmJLxndbXVh9smr6ZDu0m7lzj+n1euMbRARkRa6uH8ehIklhQvO7Bb0FfWq4piXtUJ+9sxY/12P/aru2l5W6eGVRpWWSklq13Sk1T5fKr5mu/SVnWhCPf8+lOUSj9jTUqNxSLJR/LfeZeWGG+Zp2rEdWYCF1Yh8PZdoxLf+tUZjjqiBzzP+9O79oQTuUJOe570mJ7gMQ5TrjpdN9kPt0eSTXRYnWttvHip2L92qHWyBs1L8taVuCATIzuVJljWSXJRpCXJ+a17loz3aoT28G35W35ybKf+1h7dxkj699ekP/cDtUZU+h/10uHUYkam/uPmMvq/CmSGABADIjn7PcOX0qt/Q3gT1h+cOSvyHh0cqFK9Zc9PiMHCoX/0/CVd6hwH44T0fOa+V2UyyUT3C3owgDyBzzpGNIZy7IndOrI1p68+FiWP5HSUe0e3PpqukCmUYS7WKlz/d29r+qpdtL/qgXmdvXCUAZCLGy+2fqWHHACiwAQIa4tEcc6mxpSUv2FT1h+RCTfynxesz5/zdTxxoZW/ormW5OeHi2ay7suLBV91Hr6SrvK/fvEgGQRdXawNWS7k74NF6iMH+BVG7JFfDdXeX9Jf9GFtrLw6qMmfsZCZ9GwQO7pFXfSri13t4ta/5I0lYZDTvWbvuubri0vnaGjtRcWcv9uR2rkAQWAGAD/MjewvIlrXbWxXz/7mZ+gRLe69GlW0bGlv5qZkeC/r0UXIJDimHxv1pw4rm9xT6oxPYAApIP+i4lnsB16bBiwVtuH8ZtwqNeGMS+VFI+Kw3GJtqLJ3waz1VTA/N1+KzWqr1yviOsny9pl6wGnO58eUEx7F3eF/a/KRsRVlvP0H35kFSpt2MVksACAGxsNvOZnnz531vlfHvD8m4y+5lc3Yl3sjZzq6+elK/Vz5FpNAXTmg/1hKWvtMwguqu8fRDHV0t6Lnc9siyOxs+QtDbxE3GdVCyUTmmVeptXOHrHWM0rJfVlqb0MRYP3Sroq+S7HX10Lw5+2zuOn5Xwx1AWSDs1yvAlM+0vaLZb9uBiWftQXlndu6zG1/Pkzcxzd27Zthm4aALDRcaH5Z3vypZPTfp7d+UULXH6tpPkpOJ0V+Vr9nJk+6KO6dJ1cp6Wi3UgfW5/EsjS3m20L/TsFsV8n2Qu525F1K3XxSklnpmS2d1Kx0P8faa+z3vCoXXM+/nOXXpDFNhNLqdi/yaQD4jC8LO37d+6oEwo9oS6S/Misxxs3P+Apfzwilt9RDPu/tc3sY9ryJSqm4OUzdKj72rXNkMACAGxap2taUsyXfpjWJfp9Yf+bAstdr/S8Oe4Lj+rSdUkceDzKn5KOVVgTSazeQv952+q42alsN4XFrx13u0HSDtzlwPr7Nhf/h6R1qTgZt3/rKZTOTWvf01soLXQ1r5f0vKy2l9Fo4HJJ16ai7cpfG4f+62K+f/c01lWxq/y81fk1y0z+JkHmvv/f/Cgv2T83xxt/KBZKp7T6S2GeaqIs/tqZCZt+c7u2GRJYAIDNGRkeGxUKy7q7ytun56SWBD350smx7FJJKRno+IPd0dpTkzr6Kp07qlhfS8sVcrejxsOxX6bs0QDrCfs/HHvwM6Un6QmkwvC6pX+W6VvpmeTqmCgMfz6vcPSOaYohxXzpJHddJWmbrLeZwPSZFJ3O7grshrTtq9RbKL9Osf9Wpn2IMhOP3Ur2bI/UzZbrpFyh4w+9hdKSuXMXFVu9vB1hx7s1Q/vjdUrL2jbWcOsAADaL+15B7Lf3hOUPJf2Gwu78ogXF/PKfm2lJqvo0Cz57ny6PEh0o1bu+LmlFilrOS2P5bcV86aSk3y62baF/p2JY+j+TfU0Jb/QPpFWzNp6alZzrvTzn43ekIYb0heWdi2HpSplOkZSjtUhDtYHrTbo8PWMVdceyy4r5/rPmzj2mN8lTma/DZxULpVPc/Wci2fkXOTUP2ITr2OOuk/P13IO9YelrPV2Lt2vFss6du6jo0sdn6HAPragN3t+u7YYEFgBgS2xl8m/0hndcV+ws7z3TB5+nI+cVC6X/DCz3W5n2TVfV+J3Vms5O+ixW6Oy1LvtiytpNl0ynFAv+q4lXzc/wpFPlOT350mfG3ZZLOoTbGHh2K3XxSsX21ZSd1iyZTinm9fOersWvnumD9+jYrXoL/Z+N5cslvZ5W8nQW+78p+TcSPu2UZHZcvt5YXiyUT5AWzvAXFkuCnnz5qCjM3yXXSSLZ+fTRkvsBm/Hrc1z6sMXBH4r50g/7CqUDWqekS4J8veP7mqnV3q5r2rndkMACAEyij/TXKPAbe8Lyj4td/dO+JH5rvb27t9D/2VzY8aBcn5TUmbrxmOxfpEozDSczEul/JN2RwobzqiD264th6Wd9hcXTvh9Er46YW8yXPumhP2Cmz0nq4u4FNi6s177uUvq+yTd/tcXBL4th+afdXYtfM92H61Z565586TNWiB5wt3+XFNI6/t5QY/B3cp2ewlPbVu6nF8PeOycSWSdO89hhInFVDJffZubnb+AxuUwz+ZZ8kZWX6djYdV0xLN1RDPs/mO59ssq5Yrj8OzO8Yf9F7dxuWDYPAJiKQcibFNubimHp93KdlevsPOPxtedN0eNrS4Ji4faDFOt4WX2xu81ObUW4Th+pD1yRnhOq1BWX36XAb1A6v/k9KPbgoGLYf6eZXTiu+PSVtaV/nKp20911x34Wx8e57BhJc51bFdgsj+rSdb1Were7rlYq3ybqbwji4A1P9j1Bp505tLby2FTHEJO/XdIcEUQ2Kq7bR4LQD5WUxke9dpb76cXCyFfd+wc8CM4eHav8fKo+vJjv390CO9r99ndItiOt4dk9Z065r9HwyW60/2LJ/jsXdpxSVPkn5vGg6o3LhnXJ6jSUcds5i7ZpNPwHkt48g4cdqtZ7ftLObYcEFgBgKr1YplOa440vFAulmyW/2l3LOjryt2xqQmtHnVBY27l29zjQ/pIfKFu+UG49aZw6/Y0/j9fzH0vbSVUblZt6wtI3TPpoeqvOXuSuk3MKPlMMy7e4/Oqc/BrPdd4yvO78RzdtVnJYWM3P2TVnvp9MB7kvP1Cx+tQCDQdIs+HawLKesP80k52Y9r4nHvcvFAvl3070PbYs16FbNjWhNRFDZu0WWPAayQ8yLV/osXqJIZtnVJVVRS/9s0wXp/YkXT0mO9FiP7EnLN0fyK+R2zVmduNQNPSgtGx84x+yJNi6cMcOuTjey8wOlPwgyXZ1l2gzG9eoa3/ZlFVUl+T9btavMF8rqnylLB7s6IgvX7HmosdnvnTlfDGM3zvesJNN6pvhxn2udGqjndsOCSwAwHTIybW3ZHub9InmeEPFsLRKZvfI9Zibr5X7EyY15TZLptmSeiW9YLXWbP+00V+rfOPt/v5VOnc0jac2K7LPjIV+hKRdUl6LgeSvMOkVsexjao6rGJZWy3SPXH8287Wxa9X6dlOwQHPcrdfkO45KOwTywFupzQCtEt6i4F8t9Dcpnatq/qbv8b0k7WXyk+JxqRiWnlgfQx5z05q/9j3qssBmu6tP8h1HZdsHEzFIhJHJqdYHftRTKJ1vrqPTfq4m7eSynWR6t8tVDHvrUul+yf5o5k/ItcrlDZd1BKZ5cs1x2fOl5bvIFcrsr5+ETa93i/f36amzguSHy+3w8UZOxbB0l8uvM9P1sQXXjY5VHpquIvV1lveMc94v93dJNj+RQVQcnNHubYcEFgBgpmy9fmIhe+o3lG0w5nPTeSPR4MVpPb+HVRnrs8XviT24Wq23iexcuV4pSe5P+brWJF+frUpgolmbGCQD2TCqyqo+9b8vll3WglF7K7le9Ux9j7uSSj7UJeXbuc3kO+yDjYYfqJnauHoKT13S7pLv/tT2YXpqe5nxXqeh9O35OclxU3DAUyp0Ou1ust3lOjFwVzHs/5Nkd0p+jxTc7fJ7Yuu4Z2Vt94ekJfGmfeSSoLvrju1y3nyhlNvFFb9ObgfH8m2SzHy77CdDjcot7d4fkcACAGBy7lIt/Ie0n+RQbel1vWH5ky7/MpdsUmou+4TJv0FVIEuGosGfFAulL8j1aWpjUtaa7LPtHosfW1MZ6u5a3B/EwdVq82TddDPpky79Z7vUY5/Kc2L3lydUm8+X9HzJDpUm1oDlfFzFcHlTKg1Lqsq1UmbrJlKWtlYT+9/NkXlo0jzX8vmKFboCTSQzU5HT9yCOT87C/cBbCAEA2PJR5WggO3xE5zzRCqc7HFW+IvczuHCTuOTmHwzi5vXUBLKoWltwsqTLqInJBBH/JzP/VRaKOjq29BeSfZSLPplhhn46HA18zaQn2qVMzVD7Kn0LaXKaWC34Ypn2k/xgSYdMvD3QD5b5qyW93KUXKJVvIbUfDTcGf5OFe4IEFgDgd5pYno7NE8euY4eiyn2tdNJhvf5PLt3C5dsCrjOHa4OnBUHnKioD2bQkbkbjx008foPNnmJK36/WBs8cjz0zMaQaVb4t1+lc/S1qLw9E+c7jJLmrfdpMYPH+XN0pVTPpE1kpLAksAGBW/isz/yfqYXOrTZ8ejQYub7XTflSXroutY5GkIS7i5lxuu65an3gL21g+IIGFzFqpi1fKO45UG60ImSFXD0c975ckDzxTMWRufc775bqRJrBZVsVub1m9+rzh9dP2tmkz7sEBXN6pY9JnhqPK3VkpLwksAICGa4OnufRf1MQmDr6k/6rWB77YshPQ2vkPBrEdKtMIV3OT3N3Ijy+WKnVJWr16LgksZFq1fsGdcWBvlrSG2tgkvx+P8qUnX2/vtUKmkn8P6oxaPex8i6TbaQqbpO6y8ki98vun/KxN+p0TOyXfh0s8ZQPSG4cj+3qWikwCCwAgSRqJBv5V8v+hJjY6WvjvkWjg461eiqFG5Zagaa8nibVR9ymw169efVH1rz86tSFpjKpBlo2OVX4eB/EbRRJrY+61XMchq3Tu6JM/WKXGE1KS7yubeatXnzfc2Wmvl2w5TWKDmu52/EhUufJvxh5tkfTs6Rp+paRZXOYpsdIsd7xUaWap0CSwAAB/GR1Vo5f+M5t8b7CKvl2NBj/cLqUZalRuUdMOU9t8szvFV1u634OOg6pjlUeeaeBIDSHrRseW/kKmI0VC99nc50F80PC68x99+o8rTWUw8ffYmspQ0KFDJN1F03hG4+46ZqReueAZOqS26HOCOMfjg1PVVmRvG44uyNx+hCSwAABPsSSu1gffZdLXqYu/881qNPhBtdm35tVG5SYP7DBWYv3tXEG3BLl4/5Gx8//0LL9C0g+QVK0N/MylI8VKrL9hvw067ICRsaUPE0P+amht5THLdbxe0u9pI0+zNpC/daQ+UHnm5tQe7cUlElhTE18++Per9LKBBBYA4O/GF8PRwEfkOklSTHVoXPJ/rkYDH1KbPvIxMlb5ZeC2j+R3crklSVd7ZAuH1y398wZG4SSwgCdjSDRwRez+Gkl/pDYkya6yKFo4tLby2AZ+KbMxZHjd+Y/Gke1n0uW0FcmkYQX++qFo8CfP+jttksAyqYcrPslButvJ1aiS2S0/SGABAJ5RtT7w5Vh6i7L9qNQTJjuyGg1+p90LOhRV7rOosY9kl2Z6YCg/tRr1vHFUlVUbGYXzBjbgKUbrg7fV881XSrqWGNL9pmFdsnojv5jpGDKqyqrhyA6X6UsZv3V+1zDbuzo2uOG3NLqtbofCDkdDC83sfZJWEDU3P7yY9LGReuVzWa4EElgAgGcfYEYDl5vs1S7dksHi323K7TUcVX6clQIP65LV1UiLMvoI6RPudvRINPi+J98UtiFm7IEF/K3Vqy+qdkdr3yDX6dmMIXobMWRzVJrV2sAn3Ow9kupZK71Lp82N5uy3qlZ5YKO/bO2yYm/Z+HCtcqpH4a7rk5c17oNN0nSz9w5HA1/NekWQwAIAbNBwVLm7J1r7apN/Tdl4a5JL/u2OqOuVWdwcU6o0h6OBj7j8jZL/KSOziBsC2SufcePcZ/03zgos4Bncp8ujan3gXe56m0nDWYkhOeVe8az7Fz0TI4Y8aaRW+d/Ym6+U6eaMFHlIbotHooETH9QZm5TAieP2euR0ROc8Ua0NfKJp8e5ynSmpwZ3wrB4108Ejtcr/UhUksAAAmzghGY4GPxoH8QGS7mjXcpr0gMwOrkaDH1ihs9dmekIRDf5fM2ru0eZvpXxC8g9V6wsOGIoq923OP4xlK4kMwAZiSH2gYh32UskuzkIMeTy64A+bFUPYR+9pRusXLa/WevZ11xK1cTLDzC/o6GwuqNYrF23mAKUt28vK2tI/VusDJ8SB7Szpm5LWcTc8zdWWi181XBtYRlVMIIEFANj0AebY0l9UI3uFXP8maXUbFa0p6Vu5qOul1Vrlaq70+oGlLl5ZrQ++M5C/WdJDbVQ0l+uHlot3r0aD35SWbP7LCtxYPQFsxNDaymPVqLLI3I5ts9VYk48hvMn0GZzaGKkPfLYZN/eS7LftVTa/U6aDh2uDR69Yc9HjWzBrb+v2MjpWeagaDXwo19G5k0xflDK/z+Qql/1LNVpwyAZfKJNBJLAAAJupUq/WB/6zo7O5s+T/o9b+ptQlDch9QTUa+GDWV1096yQ0GvxJNbJd1m+8+lhrl8auUhzvU60PHDepQSGP/wCbbLheOdcie4Fcn1CLJ25M9ovA9LrJxhAjCf6sVjYuurUavWQvd71N0r0tXpxHXPYv3dG6l1drAz/b4k9pZiPh+fja81ZUawOfsqi+nUzvkOyqjDV/l/vZQYftPhJV/nsLk+NtjQQWAGCLrFhz0ePVaPD9rbvs266y2PeuRgPlan3wLq7oxlTqw7XKqRbVd3W3k9Va3466ST81s4XVqHJItbH011Mwi2X1BLAZhlRZU60PfKme79x5/Z6KrbR5s0u60iw+aDiq7D9UG7ieGDLdlsQj9YFKNep5icn/UdIjLVaAP7r04a7IdhmJKv99ny6PJtVcctlqL8O6ZHW1NnBWNaocEsT+ivVfmLZ7HVzhgfav1gePH1pbeYwY8MxIYAEAJuXJZd8dnc0XyO2Tkj+Y4tMdk+ssD2y/alQ5ZLgx+Buu4OYPKkfqlc/V882d5DpJ8jRvdL/apdPc/aXD0cBhw7XKtVP1wRYz+QS26KZcfd7wcDT4UQ/iXWT+BUmPpvh018r1g9htz2o0cOhwbek1U/bJJLA20amN4Wjwu12R7TKRyEr5o4WuG9zt6Go0vPNINPCNh1UZm5JJ+1h228tQY/B31Wjw/WEUzXe3o810oaQ1bVK8pplfEMT+imo08IaRsYEbuOc3rIMqAABMhfV7OpwiLflyT7j8YHO9XaZFkrZKwen9TtL348jOGVWFScOUTEIvqkr6sqSv9BbKr/XY3ytTv6RC0oNBSdfK/KyO2qyB6Xos1GV3SfGpM1WoR1UYn87PN9eZsXzWTF+sXEc4onp73BMuXW7mVZN1zuxx7f5WrK+RsaUPS/q0tHBJb1g8zBW8V/I3ScolfGqxS7+Q2ZlBLbpwWJdMz36PTbvLcl6ZkTYSa6zV76+HVRlTpO9K+m5vZ/mVHvh7JL09HWMM/5PMzlXsZ0zXiu4hVdb2WulCSTYjHWk8/nja2sCjunSd6rpA0gU76oTCmnD1Ie5arMCOkKunxXqMe9zth3HQcfbK2vkPMqrcdCSwkDq5QKPjTf0oLecTqqPOVQE2x5J4JNIVkq7YUSf8w6pwzYGB9BaX3mjSTjN0EjVJ15t0RdObPx2tX7Sc6zJ9o7D1K5uu3Vpv/0Bnvv4Glw6V6RBJ283IGZhG5Foms0vrneOXrk+uTe/ku175vaT3tctFHI4GPkxTnmSbiCr/TS1siWXjw5EulXRp76yj5ytuvNndDpXp9XJ1z9BJrJZsmVl8aZDLX/L42vNWTPcBq43KTWrobVz/LYhXjcrNkm7eVsd9rJFf90aZDjXpUMl2nKFTiCXdKtPl1vSLhhuDN2viMdNp7msHjuLqT3hQZ9S0Pm5I5Vxvp14WB3qdSQtlvv8Mxo7NuYT3SLpccXButTFwE1dxy5DAQupsE33yPklHUhNA2wwwLpd0uST1dC3eLmjmXuvm+0h6kaTdJG0/2YGkSw9KdpeZ3+6uq2dFdv1ULdvHplulc0dV1/mSzpeknnz5xTI/VKZ9zLWbpN0ldU3yME1Jd8v9Zjf7bRDb9cONl/zuLxud1rgOQMsmJtad/6ik0yb+K+eKXfGrvGmHmtleUvzi9QmKya7QcsnvN7ObPdbNnrPrR8aGfi0tG+cKtJYVOnut6hqUNChJveFRu7riQ838APe/jDHyU9K9Sb9z6Wa5/aoRjl8zE1+UYFNVmsMN3SzpZklfk5YEfZ137BEH8Wtctqe59pDpJZLmzOBJuUsPmPsvFOhnbv6z9atOMUkksAAAM2Z9533u+v8kSdvquNnNzrW7yWw3mc2PXXNkmiP5VoFpa3frMlO0fjjwRCyNBLLH5XrY3O8OG8Fdf5usGqGq03G9J1Yp/f6vP1kSbFu4fcfYtXtTtquZiu7qC2xi6b+7tjapKdMayWN3G3bXkJkPm4IHJd03HOkBqfI3K2MrVDbQhpPS6phulHTjkz/ZWYeFw52F3QPr2N2knWVxn9yKMttaf5cc95VyXyOzx122Qq6HYh+/N2zMuY83zran4eiCeyTdI+nbEz8p5/rCeKfY7cVmtqvkz3X3XregaFJe8k65hU/2OWY+6q4hdxtWoEcC6b7Y4vtGxpY+oqeusOLZjJRbEg81dIukW546/tgmvPMFTY/3kLSbzOdL2kGm+XI9T9JztPmPZ7qkFT7xduZHTHrQzG6LrXlbMDZ+R3W6Hj/OOBJYAIBErdDZa9XQbyX9ltpo/0Hliprul3S/pJ9QHwA2x326PFJDt0q6ldrAxlWaQ5HulXQvdcH44/FIf5D0h2f++3J+2znj8zQezIma8dycOkLl4q0U22xJUuBrA3ndm7m1TVPdcs3RkbHeFdKpDep2ZpHAAgAAAAAAGVWpr1ijxyX9dfN6UlOpFFAFAAAAAAAASDMSWAAAAAAAAEg1ElgAAAAAAABINRJYAAAAAAAASDUSWAAAAAAAAEg1ElgAAAAAAABINRJYAAAAAAAASDUSWAAAAAAAAEg1ElgAAAAAAABINRJYAAAAAAAASDUSWAAAAAAAAEg1ElgAAAAAAABINRJYAAAAAAAASDUSWAAAAAAAAEg1ElgAAAAAAABINRJYAAAAAAAASDUSWAAAAAAAAEi1DqoAadPXWX6ZB35lWs6nGdnOo6qs4soAAAAAAJAMElhInVjNTinoTc/5dLJSEQAAAACABDExBwAAAAAAQKqRwAIAAAAAAECqkcACAAAAAABAqpHAAgAAAAAAQKqRwAIAAAAAAECqkcACAAAAAABAqpHAAgAAAAAAQKqRwAIAAAAAAECqkcACAAAAAABAqpHAAgAAAAAAQKp1UAWtyVxVmR5NxbmYVnJFAAAAAADAdCGB1aKq9YF3UAutyi6R/N5UnInbL7geAAAAAIC0I4EFzLBqVPk2tQAAAAAAwKZjDywAAAAAAACkGgksAAAAAAAApBoJLAAAAAAAAKQaCSwAAAAAAACkGgksAAAAAAAApBoJLAAAAAAAAKQaCSwAAAAAAACkGgksAAAAAAAApBoJLAAAAAAAAKQaCSwAAAAAAACkGgksAAAAAAAApBoJLAAAAAAAAKQaCSwAAAAAAACkWgdVAAApYcG3ramBmT5ss8OGqHwAAAAAaUYCCwBSojpWeUTSIzN+4AZ1DwAAACDdeIQQAAAAAAAAqUYCCwAAAAAAAKlGAgsAAAAAAACpRgILAAAAAAAAqUYCCwAAAAAAAKlGAgsAAAAAAACpRgILAAAAAAAAqUYCCwAAAAAAAKlGAgsAAAAAAACpRgILAAAAAAAAqUYCCwAAAAAAAKlGAgsAAAAAAACpRgILAAAAAAAAqUYCCwAAAAAAAKlGAgsAAAAAAACpRgILAAAAAAAAqUYCCwAAAAAAAKlGAgsAAAAAAACpRgILAAAAAAAAqUYCCwAAAAAAAKlGAgsAAAAAAACpRgILAAAAAAAAqUYCCwAAAAAAAKlGAgsAAAAAAACpRgILAAAAAAAAqUYCCwAAAAAAAKlGAgsAAAAAAACpRgILAAAAAAAAqUYCCwAAAAAAAKlGAgsAAAAAAACpRgILAAAAAAAAqUYCCwAAAAAAAKlGAgsAAAAAAACpRgILAAAAAAAAqUYCCwAAAAAAAKlGAgsAAAAAAACpRgILAAAAAAAAqUYCCwAAAAAAAKlGAgsAAAAAAACpRgILAAAAAAAAqUYCCwAAAAAAAKlGAgsAAAAAAACpRgILAAAAAAAAqdZBFSBtxhuF+3L5Rjkt57NKc9ZwVQAAAAAASA4JLKTOKp07qroGqAkAAAAAACDxCCEAAAAAAABSjgQWAAAAAAAAUo0EFgAAAAAAAFKNBBYAAAAAAABSjQQWAAAAAAAAUo0EFgAAAAAAAFKNBBYAAAAAAABSjQQWAAAAAAAAUo0EFgAAAAAAAFKNBBYAAAAAAABSjQQWAAAAAAAAUo0EFgAAAAAAAFKNBBYAAAAAAABSjQQWAAAAAAAAUo0EFgAAAAAAAFKNBBYAAAAAAABSjQQWAAAAAAAAUq2jHQvlsnWSP5KS06nSzAAAAAAAAAAAAAAAAAAAAAAAAAAAAAAAAAAAAAAAAAAAAAAAAAAAAAAAAAAAAAAAAAAAAAAAAAAAAAAAAAAAAAAAAAAAAAAAAAAAAAAAAAAAAAAAAAAAAAAAAAAAAAAAAAAAAAAAAAAAAAAAAAAAAAAAAAAAAAAAAAAAAAAAAAAAAAAAAAAAAAAAAAAAAAAAAAAAAAAAAAAAAAAAAAAAAAAAAAAAAAAAAAAAAAAAAAAAAAAAAAAAAAAAAAAAAAAAAAAAAAAAAAAAAAAAAAAAAAAAAAAAAAAAAAAAAAAAAAAAAAAAAAAAAAAAAAAAAAAAAAAAAAAAAAAAAAAAAAAAAAAAAAAAAAAAAAAAAAAAAAAAAAAAAAAAAAAAAAAAAAAAAAAAAAAAAAAAAAAAAAAAAAAAAAAAAAAAAAAAAAAAAAAAAAAAAAAAAAAAAAAAAAAAAAAAAAAAAAAAAAAAAAAAAAAAAAAAAAAAAAAAAAAAAAAAAAAAAAAAAAAAAAAAAAAAAAAAAAAAAAAAAAAAAAAAAAAAAAAAAAAAAAAAAAAAAAAAAAAAAAAAAAAAAAAAAAAAAAAAAAAAAAAAAAAAAAAAAAAAAAAAAAAAAAAAAAAAAAAAAAAAAAAAAAAAAAAAAAAAAAAAAAAAAAAAAAAAAAAAAAAAAAAAAAAAAAAAAAAAAAAAAAAAAAAAAAAAAAAAAAAAAAAAAAAAAAAAAAAAAAAAAAAAAAAAAAAAAAAAAAAAAAAAAAAAAAAAAAAAAACkwv8P+LgsnHmAskAAAAAldEVYdGRhdGU6Y3JlYXRlADIwMjItMDQtMTNUMDI6NDA6MzgrMDA6MDAIL1JsAAAAJXRFWHRkYXRlOm1vZGlmeQAyMDIyLTA0LTEzVDAyOjQwOjM4KzAwOjAweXLq0AAAAABJRU5ErkJggg==;" vertex="1" parent="1">
          <mxGeometry x="290" y="40" width="222.86" height="90" as="geometry" />
        </mxCell>
        <mxCell id="4u2H8YLl8aJc4Wc5pVix-2" value="" style="shape=image;imageAspect=0;aspect=fixed;verticalLabelPosition=bottom;verticalAlign=top;image=data:image/png,iVBORw0KGgoAAAANSUhEUgAAAyAAAAHCCAIAAACYATqfAAAACXBIWXMAAAsTAAALEwEAmpwYAAAgAElEQVR4nOzdd3xcxdU38HPmtq1aVVu23OTesE2zAdMCCYRiINQ8KU9CChBaCCSEQOAhCQlvAkkgoYXQe0sA24CBAAZDcMEY9ypZzep1+94y8/4xq7VsZGlXXtmSdb4f/2FLd+/Orizdn2bOPYNCCCCEEEIIIdnDDvYACCGEEEIONRSwCCGEEEKyjAIWIYQQQkiWUcAihBBCCMkyCliEEEIIIVlGAYsQQgghJMsoYBFCCCGEZBkFLEIIIYSQLKOARQghhBCSZRSwCCGEEEKyjAIWIYQQQkiWUcAihBBCCMkyCliEEEIIIVlGAYsQQgghJMsoYBFCCCGEZBkFLEIIIYSQLKOARQghhBCSZRSwCCGEEEKyjAIWIYQQQkiWUcAihBBCCMkyCliEEEIIIVlGAYsQQgghJMsoYBFCCCGEZBkFLEIIIYSQLKOARQghhBCSZRSwCCGEEEKyjAIWIYQQQkiWUcAihBBCCMkyCliEEEIIIVlGAYsQQgghJMsoYBFCCCGEZBkFLEIIIYSQLKOARQghhBCSZRSwCCGEEEKyjAIWIYQQQkiWUcAihBBCCMkyCliEEEIIIVlGAYsQQgghJMsoYBFCCCGEZBkFLEIIIYSQLKOARQghhBCSZerBHgAhhBAywAkQnX9FPJgDIYMHBSxCCCGkWwI4BwBgCqRileAgBCCjpEV6hkKI3o8ihBBChhTOgXVW0QjO41EQAjUdNWP3AYgUs8i+0AwWIYQQ0pUALoAxcOzYug/ja/5jlq91WuuFYzNfrjZqsmvGfPdRX1fyRwAACA5I1cykGzSDRQghhHQSQk5Kxb/4oOPff01sXSHMBKoaKAoAAneEbSGCMmys75Rv55xzFRqePea6COlEAYsQQggBgM50xXn7S38KvnoPOBa6vIAMhIBklXtyTVBYCRGPuGYcn3/FX7TRU4E7wJSDO3Yy0FDAIoQQQkDeKii40/qPG8LvPsG8AUAG3On+WERgioh0KIUlhdc/akyZSxmL7IVmNQkhhJBk0XrbE7eE336M+fMBYJ/pCgCEAMdGT8Bpa2i++/vmznXAFBD8gA2WDHwUsAghhAx53AGmhN56JPzmP1lOATgOpLO8w210eZz2pua//thp2dW5mEgIAAUsQgghQx3nwBSzfG37879Hww2CA6SdkxwH3T5717bWh64XtglCUMYiEgUsQgghQ5gQgCCsRPtTt4tIByhaxgnJsdETiH62JPivvwJjtFBIJApYhBBChjDBAVlk2cux9R+iJ6enuqseT8I8/uDCvye2rASmJPu/k6GNAhYhhJChSghgjMfCoTcfRkXt++qeEMBUYcbbn/udsBKAQAuFhAIWIYSQoUpwAIz+91WzfD0anv1a3eMOunzxDR+H336cqt0JUMAihBAydDEGthX54AVkSgaF7fsiOBru4Ot/s+srgCEVYw1xFLAIIYQMSZwDYKJsjVm+Fg13FgqnhEBVt1vqOl65GwD3P7CRQY0CFiGEkKFJAEB87VIeC2etCTt3mMcfWfZK7Iv3gTGqdh/KKGARQggZkpgCgic2f4qKmoX1wRREEE77c3eIWJiq3YcyCliEEEKGHsEBwGmutWq2oaZnMwZxjobX3P55aMkjgNQWa+iigEUIIWToEQIAzOrNTkcT7E+Dhu5PzpnLE1z8kFW7g/YoHLIoYBFCCBmirIoNwkoAZvtSKASoutPW0PHCnSAEVbsPTRSwCCGEDD3IAMCs2txf10HuME9O9NPXoyvfoGr3oYkCFiGEkCFGCEAUtmnX7kAt880H04es4+W7eDQIiFTtPtRQwCKEEDIUOW0NTls9sqzeQtiV4Gh4zPK1ocUPAlLf0SGHAhYhhJAhRggAcJpreLgdFKUf55YEZy5fcPFDZuVG2gR6qKGARQghZKgRAGA3VAkzDqw/r4NCgKLySEfHC3cCdwD7a7KMDEAUsAghhAxFVu0OITgAZvAYzORgiTvM44+tWhJdvojaYg0pFLAIIYQMMcgAwK4vzyxdCQGO3ZeMJQAUpePFP/JQ64CudhcCBAfe+UfwgTvUwYACFiGEkKFE3kJoxu26clTTvoVQcNRdLKdA2FbGGUtw1D1m1abgwvsHXMASAjgH7gAIQARkwDr/IEuOljsDa8yDBAUsQgghQ4oAAKe9wW6pTXcXQkRhWUrByMIbHlMLS/rSm1Q4zO0PvfOEWbnx4LfFSoUqIQARGAOmAKCIhe36nWb5OnP7arNsrVVXxqMhQASmACJwmtDKjHqwB0AIIYQcQEIAgt1QyaPBdGewkAF3lECRMfnowEU3tvz9J6BnWK4uBCiqCLd1vPSnol88kdHKZJYIECKZqOTUFAAAOB3NZsV6c9OnZsUGq75cRDp4IgbcAaag7mK+XG3kRNeskz3HLFDyhidfSB8WSYckCliEEEKGHLuuTCRiqBkgnHSOF9zWxkwDwb0nXBD972uxz5agJwd4Wo9N4g66/bEViyOfvOad/w3gvH9vYATYHaoAkrNQCADAw+1W9RazbE1i83KzfK3dWifMODIFVA2Zkoxfji2iQTvcZtVsi65YHHztXt/Xvp9z7tWoGZSx0kQBixBCyJCCAGBVbc5sGglRGz0VkAFC4JJfxjf9FxwbGMts1QwBFCX48l3uOacwT05/JRVZqw4IjKVClbAtq3qLuXVVfMtys3yt07yLx8OIDDQDNQN1d/KB0LlzIiIwhooqP+UEW9qf+U1i86eFP/0HyymgjJUOCliEEEKGEsZACKtmGzIlvXU+BO4wt08rmQwAwrH08bP9p13a8e+/Mn8uOBlNYnHUPVbVptDihwKX/BK4A6j08VXsJRmqIDn/JE/LHbt+Z6JsTWLrZ+b2z6xdO3ikHZChpqOqM2/u7imubqfx5HsjHABARcWcgthnb7c8dF3h9Y+hooDAg7HQOZhQwCKEEDJkCAGIPNRqN9eAkmYBFoBjs5witXgcACAyECLnG9dGV79t15ah7sqstZXg6PKF3nrYc+wCbcz0/VooTC7/iT1CFYDTXGNWbIhv+tTcusquK3OCLcKxUdNQNZgvT44heW9gRs/l2CxQGP10UWTp876v/m820+EhigIWIYSQIUMIQLRbap22xrQr3FFYllo0WvHnAwAwBlwwX17gwhta7r0i4+bsQoCiOsHW9hfuLPrFk5lPAqXKqjpXAAEAwAk2WxUbze2rE1tXmjvXO20NwrFQ1VA10OVF2W0h01DVzZNzVNXwe894T/4fVDUAkVkjsSGGAhYhhJChQwCAXVcuzCga3vQmn1BwRx0+FhQ1OeHEADj3HndedNkr0c+WME8g02p35smJffZ2dPliz7HnyFv2ehs13yNUyVr1eMSq3GRuW5XYusrcuc5pqeOJKDKGuisZqpJpjGdtfx4hUDPs+p1Oc41aXEqVWD2jgEUIIWRosWq3C9tCF6adPIRWMkn+BQAAEFAAKoFLfpXYvFzYVsbV7gAA0PHK3a7ZJzO3r/ukkiqrSvb8BAAQjm3X7jDLvkhsXZnYusqu38ljYWQIqoGqzny52Q9Vew0JFR6POKFWtbiUJrB6RgGLEELIkIEMAKya7ZhB5ZNARVVHTtz7PNzRx8/ynfGj4Mt3oTc3zXYPnafkaHjM8nWhhQ8EvnnT7nqmfZRV2Y1V5vbPE9s/M3d8btVs46E2IRxUDdRkqOpTWVXfIADnmZX2D1UUsAghhAwRAhDBtuy6MmBqmgVY4DjME1CLS5P/3P0pBkLkLLgqtuINq0/V7sztDb31T8/887TRU8E2QVG7tgDloVZz57rEts8SW1ZYFRuc9kbh2KhqqBno8SFg59aBBzbrCIGajobrgD7p4EQBixBCyNAgABCctnqnrb6zRjuNBzmWUjBCLRoNAHssiSEC58yXG7jwhuZ7LutTtbvGw+3tz91R9MtnQNUBQMTCZtWmxNaV5vbPzYoNTlM1T0SRqagb6PIla9VBHLSddhDBsZk/X8kdlvwn2TcKWIQQQoYGwQEVu3kXD7ak3aMBwbbVojHMk5P8Z1cMQXDP/G+4//tadMUbrC+93X2x1e8233u5MX62WbHBLPvCbqzi8TAgJlcAtbz+LavKCKKwEuqIiUpgWHI6kOwbBSxCCCFDiFVXLiwTNR14Wl1GBbfV4lJA7O52P5T1UoFLfpXY+F9hJTKudhccdSO67JXI0hcBIRmqvF3KqjIq7ep3KLjjPvJrwFhaNz8Obf29ERIhhBAygNi12wW3077/TQBj2pip+/w8MuBcHzvdd/oPeCzUl66hQqDbx3y5zJuLugsAgDvAnT7clti/EMEy1aLR3uO/kfwn6REFLEIIIUMDk7cQyk1y0iMEqoY2at8BCwAQQYicc67Ux84QiZi8UTEznHeGqoNUXJUOxoQZ9Z54sZI/Ejjvy8scYugNIoQQMgQIAYAiHrZqt4OqpRVlZE13Tr46bDQA7DNSIILgzJcX+OavgPNDszUUMpGIqSMm+M+6nPqLpokCFiGEkKFAAIDdvIt3tKCipVcwjsK21LxiJX8EQI+LiowB5555Z7mPPkNEQ4dmcRLngf+5RckdRgErTRSwCCGEDAFCAIDdWMWjQWBKWj0VEIE76vBxqOrJnWr2fSggALLAxTcybwCc9Gu8BgNF5ZF232nf9x5//n7tTj3E0NtECCFkqLBrdwjHSn8CRnAn2cO91yVFWe0+bqbvrMt5PDwwUggCsv0tlmKqiHa4ZszP+/atNHeVkYHwP4AQQgjpbwgAZvWWDB4hBCqaVjKx9yOTz4AgRM7ZP9HHHSYS0YNWBo4ITAGmgOAiERWJSN9PxZgwo0rR2Pyr7kNPDvW+yggFLEIIIYc6IWTrJruhAtNcHwS5Y6BbGzkJIL2uBIggBPMGAhfdcKCbradCFaCwEjzSIaJBYIpeepgx4/g+DgYRHBsNd8E1D2gjxgN36M7BjFCjUUIIIUMCj3Q4zbtATbeHu7AtNb9YKRwp/53Wc8je7vMWuOeeGVu+CL2BftwrEBEQARAEF7YFVkJwhxkebcR4feKRxpSj9dLD9PGzWx+9KbFhGbr9mY0EEYQQlllwxT2u6cdSW9E+oIBFCCHkkCcA0GnZ5QRbkKlpTWAhgm0q+SMUfyFA+jXrCCCAKbn/c3Ni839FIgZMyWbLUJmoEAEE2JawEsJxUHcp+SP0cTOMqccYk47QSg9jbr88PPyfp8LvPI4uT8Y5D5mIBXO/c5v3xIvAcUChdJUxCliEEEIOdUIAglVfIWJhNDzp9fNEwblaXAqKAiKTvprIgHNt9FT/GT/ueP5O9OVmYbsbZMlQ5TjCSgjbQkVhgWHG2OnG1LnG5KO1sTOUvOG7j7ctULXYqiVtj96Emgsy3YlaUXiozX/6D3O+cR1wZ2AU7A8+FLAIIYQMAYLbdWXCNtHlTTdscEcrmQSQzGcZQAQh/GddHv10obVrO+ruvrRoR0ymOu4IMyZsCxGZL1cbPVWfeLhrxvH6pCPUotG7j5cbQssspWpmxcaWf/wMhABVyawGi6ki0u4+8vS8S38PQnRmO5IxCliEEEIOXXLLZABAZlZszKCQSAjUXWrJ5L48KSJwzry5gUtuav7LDzKYPepaVmWZYJuCO8yTo42eaoyfpU89xph4hDpyAmrG7ofItT8Zg1BOtilOS23LvZfxjmZ0eTNbHGSKiIe00tkFV9+HhjuzqTuyJwpYhBBCDjEChAAhgCmATE4+xdd9GF+7lBnpTSYhAreZJ0cbNTn5z0wxBoJ7jlngmXt29NPX0LPvavdUWZUQ4FjCSgjuoO5WCkr00pnG1LnGlHn6mOno8ux+COfJjgnI9oiMcjugRLTl/mvMyk3MmwvczmjMwowrucMKr31AyR1GPUX3EwUsQgghhwQZqkDmKpS5yq7fmdiyPLb63fi6pSIRB1VNr+QchWOrucPUghL5zz4PKnDxjfENy4S5V7U7dk5WCXBsYSWEbaOqKrnDtVGTjanzjOnHaWOmKYGiLq+Od/b5xO5zj1wiRNb26E3xNe8xX4bpChk4Nmp6wdUPaGOm022D+48CFiGEkMEsWXsEyVwFAIJbNdviGz+JfbbELF/HO5oFCGZ40k5XAAhgW+rwsWi4+96+HBlwRxszzX/mj9tfuJP58na3knJsYZnCNhEZ8+drY2boE+e4DjtRHz+7+7IqOVnV8ygEB6Z0vPTH0LtPJp8rk7ECCGHG839yr2v2yZSusoICFiGEkEEoFT4YA1QAQFgJq2JDfP2y+Lql5s71TqgVEVF3oceHgMB5Ju0SUAiujpgAALKqqY+DRAZC+BdcGV3xprlzPRoukYgBCObN1UdO1CbMNqbMMyYfqY0YD4q2+1Hc2T3FleZTcweYEln6Qscrf2aeQMY19YzxSEfuxTf6Tv0OpatsoYBFCCFk8EguhMkZHQUAeCxslq2JrX43sfFjq3YHjwaRqai7mDeQLMbqSx9zgci00VP3d7SIIDhz+/P+9zct912FukufMMc1/Th9ytHaiIl7llU5yeP3KqtKB3eAKfF1S1v/+QtUdTkblcHDFZWH2nynfifwzZuo7iqLUGSxARohhBDSH5IVSLtbBvCO5sS2VfH1H8U3fGzt2i7MGKo66i6QO+FwkVnnpz0ggADuDLv1FWP6cVmY0RECEJ3WOlQ0Fij80ovqvHOwbzgHxqyabY2/u8Bpb0TdlVmgVBQRCRozTyi66Vnm8gIIum0wW2gGixBCyEAlIwhjqQokp6U2vuHj+Lqlia0r7cYqYZuoGqgbqLuSRe77vzUNAtgO8+cpshxq/wMHIgih5I8ASLWNSK+sqleCA2NOR1PLvZc7rfV9acoQi2ijpxRe+wBz+6gpQ3ZRwCKEEDKgdNNkwa4rj2/8OL52aWLbKrupRjapQt2Fhie5aLj/3dJ3Q8FtJb94j97o+3tKTLXj2t9QlSKbMliJ1geuSZStYb48cDJsymAlmD+v4JoHlYISKr3KOgpYhBBCBoLOdb2uTRZqd8TWfhBf836i/Ave1gAAoBnMGwDonArKZq7qhAiOpQ4fh6re91sIuz1tdgkBjLU/cWts1RLmy80sXSGCwxGw4Cf36hPmULrqDxSwCCGEHDxdm1cxuQpom9VbEhuWxda8b+743Am1IDLUXejxyxbnWVgE7HVQXKjJTXL24xbCfsUdYErw9b+HlvwTPQFwMn1PUJiR/B/+0X30GZSu+gkFLEIIIQfcHk0WkrkqUb42/vl/4us/sqo3O6E2ZAx1F/PmAgAI3qebAfs4OFQUfcz0A/V0meMOMCX6yavtz92BLl/G5fyKwoOtgW9c5zvjR7SXc/+hgEUIIeSA6boOmGyyYFVsiK9bGvviA6tyI4+FUNH2bLLQ7/NVe0AEQNQMdZhs+Dnw9jnmDjAlsXVl68M/T5apZdT1SlFEuMN74oW53/0/4LKqfeC9xkMCBSxCCCH9T05Zda4D8mgwsXVlfN2HifUfWbt28HgEVQ11F/PlJUPYgc9VyEAI4Vgi3K6Nm6kOL01+fEDhHJhi1ZU333s5j4czb8qgikjQmDYv//K/JLfuGWgv8BBCAYsQQkg/k1U+qABAYuvK2PLFsTX/sWp3CCuBmoGawXy5yQR2oHMVk71AhZUQVgIVTS0cpR99hv/sK5JDGlD5Q3DZcr3l71c6jVXo9mfYlIGJRFQdPq7gmoeYN5d6ivY3CliEEEL6jWytxBRhJaIrFkc+eD6xZTmPhmXnqt1NFg5orurchYY7wowJK4G6Sy0udU0/zjXrJGPKPCW/WA59gKUrAQDCNlsfvM7csgIzvm2QgW0xl6/gpw+pxeOosP0AoIBFCCGkf3RexWMr3+p49a/m9tUAgIaH+XL7scnCPiEwBEDgjkjEhG0xl0cbPcU1/Tj3kafrk49inpzkgbKkaaC13BQcmNL+7B2Rj//F/AUZN2UQQjh2/mV3G1OOpnR1YFDAIoQQ0g84B6bYtWVtz/0utvJNEALdvuTHD+R8VWojGscWsbhwbOYNGJOPch12gnHYSfr42UyOSg5MbhQz0KIVJKNq6M2HQ4seYP68zN9AFPFQ7vd+653/DUpXBwwFLEIIIdnGOTAWXfFG2yO/sFvqmMcPiAewz0Jn0ToIsC1hxoUQij9PnzjHfcRprlkn6+Nm7A4ZyV2W2cAtSOIOMCW28s22J29Dw51sG5Y+ReXBVv/Zl+ecczVwZyDGx0MUbfZMCCEkqzgHxsLvPd32zxuFEGi4Mm+D2VedNwOCbXIzjohK3nB94pGuWSe5Zh6vjZqyO0VxZ3cx1kDGHWCKWb628Y6LRTQEqpZhUwaVR9o9R59ReP1jqOnJl0wOCJrBIoQQkj1y7uq/r7U+fAMqOirKgUhXu28GNIUVR0VVcovd0+Z5jvq6PnWeOmxMl+E5yWKsQbFMJjgwxW6qbr7nxzzUhi5Pxns5R4PGhCMKrroPdRcITunqQKKARQghJEsEB8asmm1tj94EqICi9me5Vef8k+DCjMuOD2rxWGPase45pxiTjlIKS1LDAs6TBw+KXCUJAYg8Fm657yp71w70BIBnuJezGVcKRhZc+wDz51NThgOPAhYhhJBsQQDoePlPTltDxn0E0n+K5M2AtkgkhG2h7tJGTXLNPtk1+xRjwhzmz08eKBtAyEXDQZSrpOQWjdD2zxvj6z/KfC9nBraNuqvg2ge1UVOosP2goIBFCCEkGzgHxsyyL2KfvYNuX5bT1R43A8YEd5gnoE843DXrJNesE42JR6DLmzxSNoCQi4YDc5/m3iW73rc/d0f4g2eZLy+zZVZEACFsq+DyP7tmHE/p6mChgEUIISQrBABE//sajwaZLzdri4NyYSt5MyBXfHnG5KNdh5/imnG8NnY6akbysNTNgMgG/d56nANTwv95KvjqvcwbyPidRCYi7YFv/dp78jcpXR1EFLAIIYTsPwGMAXcS2z5DRc2sj0BPZxUiEgREJa9Ym3mYa/ZX3LNO1sZM3X2AbP0wuIqreiabMqz5T9vjN++Oj+lTFBFu937te4ELf051VwcXBSxCCCH7TQAg8mjQ6WgERYUsNQBCVXUde45n7hnGpKPVkRN2fyLVZOEQCxCCA1PMio0t918jHBtVI7OmDEwR4XbXnFPzf3Bn50aKg302bxCjgEUI6S/c4aLLTAZjDPt0l7gQgnfXo1KeDRH7dtoUznnXjoB9HmdXolPqVPLvGY2268AQke07TOz1FqX/EvZ67d3q+an3GIaVEIl4dnoBIIJtoz/fd+p33Ed8LXl+2wJEZMqhM1/VlRAA6LQ1tNx3Je9oQpcvs8VBZCIR1cbNLLj6PjQ8yV0gycFDAYsQ0l+Ykp2f74ioKD1dUDnnaSaAbu3PY79M5qoeIk7X1JWtgfX6Fu3/U6RFUVHTs7M+KAQoKg82N//pf7WxM7zHnuM+ZoFaXJr8LHc6e7UfQoQAxjpeudvc8TnLKczwLgEE7jC3P/+Kvyr5I6j0aiAYzAFrQPSgl7+fCwDonI8FAEhOzFJLNzIkyRkR27JXrlxpWRYiAwDHcaZPn1Y8ojj9eAGdWaShoWHDho3qlyp7DMPILygYN26sruuQSXDpinO+cuWqWDTGGAME27ImTZ48ZszoPp9NRqtwOLJp06Yd23fU1dVHoxFN1YYNHzZ5yuQ5c2b7fL7eTwRgmuaqVZ9ZpskYsyxreHHxzJkzvjwq+ZGqqqrt27Zrmibj3Zw5c3Lzcnt+CfKzO3aUVVZUqtq+FvWQc+52u446+ihVVXt9T5gnwPz50FAJKmYjZglABgozy9cmtn2mLLrffcRp3vnfMGbMTxYndb1h8BCACAA81Ios8zVWRGEmtHEzjMlHJ98TcrAN5oA1IL6jsJcFbu6AAMAu9xgTcqiT8zfvvPPuLTf/2tANAYIxFgwGr7/hZz/68Q855+nPtciD31ny7p13/r+cnBzu7LFQqKqqy+0qKRm5YMHZF11yISLr+mtOOidnjC3/dPm111wnJ3IYY8GO4I9+/MPrf/4zwQUqGXzDyvDBGNu1a9er/37t42UfV1VWxxPxrsfouj5y5Iibbr5p7tyje5h1k5+qrq7+xQ03mqapaVpHR8ell35/5swZX3735PO+9OLLjz36eCAQsCzL5XI9/uRjvQYs6ZF/Prpo4SK/37/Xeyshw1gsNnvO7MeeeLSX148InKOq6WOmJ7auRMRslbkDABoedKGIhsPvPR1Z9rJeOssz7yz30WdqJZOSP1MPjQktwQEV36nfja58M7PSKwAQAlXdrttpVW3WRk+FjL4TSP8YhAFLcEBm1e5oe/A6YNm7VyVDqGqg6ajKPxq6vCynQAkUKYEillPAfHlKYQnz5Ow9Sbv7RmL6r08OTfKiHovGnn/uecMw3G63zFu2bVdX10CGa1IyH1RVV3k8HrfbvVcllhDCNM1t27b//vd3btq0+eZf/0pVtdSj0hmnZVlPP/0sInq9XhlrOOdVVVWQ4fqmPJsQ4sUXXnr8sScaGxsNw9B1PcfI2evIHTvKmpuaoXOerwdVlVWcc5/Ph4i2bU+fMQ0AvvxLmnw/a2p2+Xw+t9uNgCUlI0tKRkKP74McsG3b9fX1fr/f5XJ1Ox5FYbbtTJ48SVPVNNZhBQC4jzo9/P6zWV5hEBwEgKIwby4Ibu5Yk9iyMvja312zv+I94ULXYSeg4ek8bDBPaDEFBHfNPtl95Gmx5YvQk5NJDZYAVXM6GkNvP5b/47sO1pWRdDUYAxYAgoiGE+uXgaodtP9GQiR/QMqNzeX3P2OADBlDl5f589SCEnV4qTqiVB01WR87Uy0u7Wb/9kH6g4CQfZBxatGixZs3b/H5fE5ng0TGWFVVleM4iqJkVITEOa+qqkZEzjnnXOYY6KxtZ4y5XC632/3vf786rnTc9y/9njwmzXF++OFHq1et9ng8tm2nPlhTsysSiXi93jTHKQ+LRCJ3/v7/vfnmWy6XKxAIyA9yzuU7kKqRCgQCI0EqfEAAACAASURBVNNIPwBQWVllmqbL5bJt2zCMUaNGwZcm7lNPXVdXJ98r0zKHFxd7PJ6en0JqbW1rbGhUFEWWusv3tuujOBcAYty4cb2+CQAgJ5Bch52ojZ1uVW1G3Z3xNEzPhADhQGpCy4xFlr0SXb5QHzvDM+8s9zELtJLJg35CSwAg5JxzVfyL95N3SqZ/jeOcuXyRZa/4vvq/eulhVOR+0A3CgCUxhh4fKAcvYAHs8bNO/jX5S5sAzp22BqdpV3zDJ7KMgPnztJET9UlHug470ZhxHPPmJh84eH8QEPIl8vLc2tr2/HPPa5qemhQRQiiK0tTY1NrSWjSsKMOztdbuqlVVTZ4tldg453I5TMYsr9e7aOHiCy483+/39xqM5AHxePyZp57Za0pIVdXW1taG+obxE8anE7DkqKLR6M033fLh0o9y83JlWLFtOxaLGYbh83kZY4mEGQ6HETE3NzcvLw96TD9yoqiyslIe4zhOXl5e8YgRX36UHGFzc3NzU7OqqvLg0aNHQ2+F//KB9fV17e3tMvICgGM7e70bMq1OmDCh+7PsBRG4gy6v//Qftj70U0BPf/14Tv5CqzBvAAQ3KzYkdnweXPyQa+YJ3pMucc08PtnVPblVzqD6PZYxENyYMtc998zIhy9l2GVUgKLycFvwtb8V/uyf/ThIkp5BG7AAgHNAPmAnQlHVQTN2l2jZllm2JrFlReiNf6jDxrhmnuCee4YxY34yaVHMIocEOQP0r1f+VVlR5c/xp1b0hBCaprW3t9fV1RUNK8poZqi+vqGlpUVVFUSMxWJnLzh7wTlnW5YJAleuXPnSiy/LI1VVbWhoKCsrnzNndjoBizH2xuI3161bn5OTkwptMgiGQqGamprxE8an+aoR8e67/vzRh8ty83Md22GMRSPR/IL8Cy44/7j5x5aMKtE0vb29bePGzf/+17+bm5rz8nJ7PSHnvLq6RiYk23YKiwoLCvL3dXxNdU04HDEMXb6usePG9jpmmajKdpSZpinn6hKJxOVX/HjO4YdblsVYl3dPwPQZ0yG9hVdABkJ4T7ok8vEr8Q0fs0z3J85IakJLd6PhEfFo9JNXoysW66Onuued7Zl/nlYyOblVzuD6ASsAEALnXhNf/a6wTUCWySSWw9z+2GdvJbasMKbOo0ajB9dgDlgDXOdWnUnI0PCiywcATntj+L2nwx88qxaNcc87y3fa97WSyQDyp8Cg+mWLkC6Sd/zVN7z26usut6tzCV2kulXFY/HKyqpZs2f1Wn6UOiEAVFVWyhAAANzh848/7ogjDpcHzDtmbsXOig8//Mjn83HOTdNqaW5Jc5wdHcEXnn9R1/W9xgkAjuPs2FF24kkn9noqOUu0cOGi119bmBPIkekqEokce+yx199wXen40tSRxcXDp06devrpX1uy5G051dTz8Nrb2psam+SRtm2NHj2q25v45OB37CizLNPtdnHONU0rLR3X68jlecrLdzqOI/Ocy+U65dRTelgNTC9gIQiOupH3wz823n4uj4VQ1aG7HmbZ1FmhhXJCq3pLYue60JsPGzPme0+82DX7JObyAQyeCS3GgHNt3EzviRcG33yYeTPcdIgpPBoMLbzfmDqP7qo6uCjbHjACBAfuAHdQ1Zgvj3kCTntj6PX7Gm46rfW+q8yd64Apco79YA+VDETy9nveHfmpgz3AZDJ44YUX6+rqNF0DAMuyvva1r+bl5dq2jYicO2Vl5ZmetrKyqvPh3OP1jBwxgnNu27ZlWZzz4cXFjp38lkGEdO5PlONc+PrC8rJywzCEEImEecKJJ5SUjDRNU04alZeXQ2+RQk4Xtba2PvbI45qmAQBjLByOnHLKV+7+y59Kx5c6jpP66sivlM/nu/DCC3oukJJfyobGxtbW1lQUGzVqtOM4tm1/+UvPOa/YWZFaP83JyRkxYkSvb4J8mVWVVfIdsyyraFhRXl6efGMty7Ys27Is+YyZ/e9CBpzrY6bl//hu4Bwc5wBNHQkB3AEhUHczb64wY7FPFzXf/f2GW85sf+mPZtWm5HY68mdsdovD+oMQvrOuUPKKwbYyS4TcYW5f9PN3Yms/AGR0QTmIKGAdDPIHgUxaOQXg2OH3nmm85cz2J37NO5qBKXvPfpEhSV47HcfZq6b7y1LNwVMX3QM/WjmXU15e/vprCz0eDwgwTbO4uPgHP7o0JxCQ0yTIWEVFBaR9I6E8rKKiQoYA27bzCwqGFw+Xn1VVlTFWsbNC1VQZYnRd77XAK1W09NKLLxsuAwAcxwkEcq74yWVFRUW2bQMIVVWrq6oty0oV1O/rVADw1ltLqqqq5V148Xh8ypRJv77tFsMwZDl/6qsjv1L7akm/53kBACp2VsTjcfkQRVEPO2ymoiiapu31pZdvQlVVlaZq8i0qKMgfVlQEaRTRR6PR2ro6meEsyyodNy4QCKiqqmmapqmapmqaJs+fcT8wxoA7nmPPyfvRn4SVAG4f0KaX8ldZpqA3Bw2PVb2144U7G287p+mP34588iqPhoApA325kDEQQhsx3nvSJTwezni0iGBbodf+1plu6WpycNAS4UElBDi2LIEHxwm+dm90xeKcC2/wnfpdAKBWvEMT51wI6Lwud+6yAiISjnR0BGOxmJlIJBIJZAwRFcYMw/D6vLm5uR6PJxVc5FV8//eQydSzTz/X3t7uz/EjYCKROPe8c0aPHp3j9zsOlwGouqo6zRv05AGJRKKmelcqBIwZM6qgoAA6s9e///Xq2i/Wut1uALBse/SoUWPHjoHesgVj7PnnXqipqQkEAgAQjcbOPe/csWPH5ublyalAVVXrGxpaWlqKi4t7GKHsPbH0gw8VhaVy2GWXXyaLurqdS0vnKyKbF5eXl1uWjYiO4xiGtmHDxo6ODjmT1/VYRBaNRmt27VK13RXuuqGn02K0oaGxrbVNVrgrihKLxd58463UUyCibVkjS0bOnTe35wF3jynAuf9r32Oa0frIL0Uiii5vhq3J98/uCi0XGm5hxmIr34qtWqKNmeaee5b3uPO0MdMO3GD6AAGEyDnrsugn/+YdzaBqGfzWzTm6fPENn0RXvek5ZgFdSg4WClgDgQDHAQCWU+i0NbT+7SfxNe/lX/4X5s+nb4yhI7W/SioktbS0bNu2fcf2HeXl5dXVNcGOjnA4Eo/HTcu0LUdePRljuq673W6/3zdixIhJkycddthhMw+bkZ+fLIiWd4H1d8yS01cbN258993/eL1eEJAwE+NKx5173rlCiNFjRi9fvgIAFEVpbm6uq6ubOHFir+eUIaCpqamlpUWGAFVVW5pb7r/vATkfVl6+c+WKlXKSSVGUeCx2/AnzZTFWDw08ZdPzha8v8ng88l6/oqLCb37zYiHE2DFj5CVMUZRQMLSrZldx8T77znMuGMNdu3bJdUYASCQSkydPOva4Y+TXsc9vZucthFWp3IbIHnv0sR6mvgzDkHnOcZyJkyZCZ4PWnp+orq4uFAoZhsE5Nwzj88/XrFixMvVZRVE6Ojq+9/3/nTtvbh93ImIMOPee/E1l2Ji2h28wKzcxT0BObmV8qv3RecshenIAhLVru/nK3cFX7/HMPTP/inuYNzBAe3IiA86VghL/13/Y9vTtTDNkXkz74QDAQ4sfdB/1dUxugTDwXuOhjgLWQOLYqOoYKIp+/KpdvTX/2gf1CXOA28Doy3QoS0Wrzrrj8pUrVn62avXWrdsaGxtN05QtlBSmMCW5IKjrWuqxlmUlEomWlpaysvIPl36k6VpxcfFRRx91yqlfmTdvrqwN2s+t+tL0zFPPRiIRuQ9MPB4/77xz8/PzOOdjxyZvalMUJRqNVlZUTZw4Mc1+7vX1DR0dHaqqcs51Xd+5s2LTps0IKABUVXG73YCoMBaNRseMGXPJNy/pdWIMEZ979oWWlla/3wcAkWj0wgsvGDN2DOd89JjRSnJJTolEIlVV1UcedeS+lwgFAJaX7wyFQrJVhGlaM2bOkHmlz++2HL9pmtVVVbKqXX7c5XL18CiZvYQQqqKOKx2X5nPtLN9p23aqxahcHEx9VlEU27KnTZsGafRE3SfGgDuu6ccNu31hxwt/iHz0kohF0OU9CLVBckKLKaga4Nj62Bneky5hbp9MV6nvwQM6pF4hghC+U78bfv9Zp6kaVCOD0jHO0eWNb1kR/eRV70kX0+/qBwVduQcYwcHhLCffqt3ReNuCgp/+wz33TPreOISltq6LxWIffbRsyVtvr1u7rr29HQAMw5Cd0OUFrmtPqa4XvFQtjpypEkI0NTW99uprb77x5vTp086/4Pwzzvy67CTZT1NZnRvOrPjg/aWp6atJkyZeeNEFcngTJkxQNU0eZtt2ZWVFWucVAABVlVWWZem6LmvLdF3vGjXkWxEOh3MCgdtuv7W4eHiv+89s27ptyVtLUtNXJSUjv/Pdb8txjisd5/V5HceRK5I917knS9Hr6uV0mhACEWR1+f6UwMnJlIb6hpaW1q43G/ZauYUInHO3xz161Ogeht1VRUVF1zy61/8rIYRuGKNHj0rzbPvEFOBcyS3Kv+KvnuPPD772t/i6D8Gx0eWVjcsPUL0pIiATsRC6fTkX/jzn3GuYO7kjZOp70DRNuanlQIEInLOcAt/Xf9T2yC+Z5sq0mAqZElp4n2fumejyDtCJukMaBawBybHR5RW22Xz3pQXXPuA5/gJwHEh7+zYyKAguAEHe1f/WW0v+/cqr27ZtAwCXyyUngeQFL9WiaZ/n6RK85F80TZPdBzZs2Lh27fpFixb/8IeXykqa/pjKkjuuPPXU07ZjG2gAgG3bc+fNbW9rb2hoUFU1noh7PR7LsmQW3LmzAtKoc5elSJWVldzZ3ZndNM3UAfJeQsbYrFmzrrv+p7NmHdbzq5MneeyxJ4KhUI7fL4QwTfOIIw43LXPnzp0KUyKRiMvlCofDcnjy1ryexxmLxzkXiCiSO753jr3vBADuqq0NBoOpFhI996bv/BQ6jl1YWDC8eBj0Folk7XxNza5Ui9G95qgQ0bIsf46/ZFRJr2frHWNyxwvXzBNcM0+IrX4n/O6T8Q3LeKSDuTygaP0es5gCjs3jIdfM43O/fasxZS4AAOcCUXDBFMY5f+rJp9ta2352w3W9ToIeUHIS65RvRd5/xqremllzfM7R8Jg714eXvug/44fAOQWsA4wC1kDFHVQ1QNZyz2XAmOe4b9A81qEkFQXeXvLOU08+vXXrVkVRZKuntG4061FqKkJWf3+++vMN6zdcdPGFl19xmdzOL4sZS57to4+WfbbqM7mdn3zed95+95233xWdu6+kpnkUpuyqqbUsS9O0nq9kcgGxqrKaKUy+IkVVivKSNwkyxnx+38SJE4477riTTz5JN/SeX5f87OerP1/20TKvxyNjq8vlXv7pihXLV3aORMTjCbnhjKqq9fX14XC4577whq4zhqmX2djUCPsfRwCqq6os0zJcBnDhOPyGn18/Y+YM7jjY9QUKAYimad7x2zvkbYyWZQ0fPlxW7vdAjjYUCtXV1smJz3g8fsyx866+5ioZFgEAAbi8K7O3GxLTJbe65xwYcx95mvvI0xJbV0WWPh9dsdhpa0DdjboBArLfPUFOXEWDzJ+Xe+HPc86+AnWX7DjIARgiKrh167YH73/wrbfevurqK2HPjmgHH6LsHZpzztUtf7syo41zAACEAE0PL3nEe8IFA7fa7NBFAWsA4xyYgpqr5e9XKXkjjGnHUMY6BKSqPSorK+//+wMfLF3KkMm76vYzV32ZPKFcDnvi8Sc3btj461tvGTtu7L7ucctUqmDomaef3evnfiQS6fpPGX2EEKqmNjQ0tLW1DRs2rNczx2Kx6prqVAiYO2/u7/9whxAcAFVV8Xq9qVfRa2pERCH4U089k0gkUkEQEaLR6JfHCQCqqjY3Nzc1Ne0rYMmPFI8oTk0C6bq+fv0Gy7K63Wwxoyqfip2VAgQC2g53u93z5x+Xak6xl46OjnAkIk/LOS8ZNUouB/e6SU5dXXKTHACwbXvGjBlTpkxJZ2z7RY6KO4DMmHK0MeXonHOvDn/wfPST16y6MmQKGh65LpadzgJMAdsUZtw155Tc79yml84CkBNXTE5cJRKJF1946cknngqFQn6/b8yYUbA/BWf9BBkI4Tn23PCSxxI7PkeXJ4PGrYKj7jarNoX/83TOedcAd5Kt7ckBMcBq+sheBAdVBc6b//wDu7FSVjMc7DGRvpPXNrkX8k8uv+q9/7zvcXtcLle/Nq+SYSI3N3fNmrVXXXnNZ6tWy2vw/p9Zvpw333hr7Zq1Hq9HrmTJdUBtT6mAJe9Nq6utgzSuZHV1da0traraeX/chAl5ebn5+fn5+Xk5OTnyVci3rufgIgf28bL/Lv90uceT1jgZY9ForLq6pudxTpg4we/3yzEYhrF1y9Z33nmXMfblFqPyGXt9yZ2LdzWMMUCQNznKWyPlOVNkC9BtW7d3tHfIai0hxPguveP3RY6huromHA7LLMgYGzlypG3biUTC7qLX5ek+Snb75CC4Wjw+939uGf6Ht/Ivu1ufMFskoiIaBBDJY/oMGTDGIx3Ml5v3oz8Ou+VFvXSWbEPKARCRKWztF2uvvurae//6t0Qi4fF4VFUtLMzSdF12IYIQqLv8C67sy0Kq4MzwhJY84rTWAbJB0GH1EEIBa8DjHA2301rb+tDPOr83BtgvWCQ98iprmuZdf7r79tt+I/tFyYtlfz+1XKTz+bxNTc2/+PmNH3/8iVwI289zypWm5559XtVV+eps2w6Hw+FwOLSnWCwmH8UYi8fjsgyrh7Qhx1ZdVRMKhRQlOdE+ZuwYWZmeWgNN9VntdZymaT7x+JPJfqeIjuN0O87UhBZjzDTNip0V+zotYwwEjBo1avLkSYlEQo5BUZS/3fO31atXp/pzppJcc3Pzyy+/Eg5HenjhItX/s7ZOVVUQ4NhOcfEIr88r7yTdq7ssY2zXrl2xWCy1rClv2Ow5xsmh7izfKb9knHOPxzNt+jRVVQ3DULvIyjTnPjGWvN5zR8kp9J/+g+G/e6Pwhsdch38VAESkAxynjzGLKcJOiFjEe8yC4b9d7D/jx7KaXiDjQjDGIpHogw/84+qrrv1izRc+v0/ee6Hr+rC0tyE/0BiCEO65Z7pmHi9i4cy2FxQCNMNuqAi98zgg0tXjQKIlwsHAsZkvL7763eCr9+ac/zNaKByM5KpNc3Pzb2//3ccffyIXnvprhmAfHMdxuYxEPHHLr279w52/m3/8/P1sKMAYW/j6orKyMp/PJ2vGx40be9bZZ+11mKqqZWVlb77xlqZpMtzIfu69Fm7v3LlT9r10HMfj8YwbN1amiozmGOQ4333nP+vWrZOrpXJbmAsuOD+1ugeds2s1NbsWLVwkC6oYY9u3b4d91+NzwRVFOXvBWStXrpJJRVXVYDD0ixt+ed43zj3hhOOLhhVZll1XW/vFF+veWLw4Nzfvwgsv6OGFi87+n62traqiAgAXYuy4MalPdfMWlSe3HuKce73edGrS5efKysrlVvScc7fbXV5W3tbS6nAuHyqzcn5BvmzT0I+QyY6aIDhqhueYBZ5jFiS2LA+//1zss7edtgbUXRmUZyEDEDzSrhWPz7no576vfAsguSLJO5v3fvrp8gfvf3DDhk1eryc1nck5DwQCefl5MABnsAAAEISDqpZz3rXxzcsznscSnLm8kfee9Z3yHXXYmOSGjKT/UcAaJByH+QLBV+52H32mNnoKfYcMLjLH1NbW3nTjzRs2bJCdvg/WSDRdM83Ebbfefs+9fz1s1sy+ZSx5vW9ra3vpxZflzW7ykvzd7333rLPO/PLx27dtf3vJO8ladUWRM0PpBCz5F+5wf45/9Jh0GxDsNc5YLPb8cy/Il4kMTdO85OKLvv3db3/5+Pr6+nfffTcWjTHG5DhlPX63J2fIhBCnnX7am28s+fTT5YFAjm3bmqbJ2bIXX3hJbnQYi8Vs27ZM6/DDD+9s6NBT64ea6upwKCy38QEQpaWl0N2klDxJRUWl/IvjOMOGDRs+vJdbCIUQyJhpmrW1tYqaXB9MJBK/uf23e/X+CIVCF150wW3/d+uBaKKGCKgkN2NmzJh6jDH1GLuuPPzBc9FPXrXrd8Lu8qx9f+MwRZgxEML3lW8F/ucWtbBE3rookEFy18i2xx59/F+v/Ntx7Jwuk8eI4DhOQUG+3+fv35e5P5gCQrhmn+w+/NTYqrfQk5NBIzEhQNXt5prQG//Iu/T31HP0gKGL9GAhgKk8Hul44Q8HeyQkM/L6VF1Vff11N2zatOkgpqvUeAzDCIfD/3fb7bW1tekUBn2ZTAnPPft8dXW1YRgyxMw8bOapp57i7EmW8nh9vkAgIF+4qqq1tXWRSAT3sdNfKq7t2lUrJ3Isxy4uLk61p890nIsWLtq8ebPL7QKARDwxrnTc2eecnRpb50Adx3F8Pl8gJzlOTdOam1uam5sBgPPu3iIEIYSmab+65ZfjSscGg0FZC8UY8/v9MrjIJl6BQEDTdVnX3+u7XVlZJVtayLmlUd11otp9J2Bdvcx/lmWVjCqRU4m9ZtC2trbGhiZ5I6f8SOcWhHtINtw/YItKcjNm6CzPGjE+91u/Hv6HJXk//KM+YU5neRZ0s27IGADKiavC6/5ZcM0DamGJzB9cgFymff+9D6647CfPPvOs7E+b2uJTPrHjOPkF+S63a2DdQrgXwQFZzoIrUXdlXEolOHP7Ikuft6o3yw77/TNEsgcKWIMHd5g3EF2+KL5uKe2RPljIdNXU2PTLG3+1Y0eZz+c7uOlKchzH7XZXVlb+7jd3xOPxvTpM9io1IbdwYXLDGbmKd/HFF8me5sqXFBYWBnIDcjlG07Smpqba2lroMW10dHQ0NjRquoaI3HFGjSrptbPDXuT0THt7+/PPvSh3s5GVVeef/41AIICIsswoSVUURfH5fMOLh8txqqoaDAbr6urlybp9ChmDRo0a9ee/3D1z5oz2tnbTtAAAEeTezLIYy7btcDiUl5/f80vePW/HUK5b+f3+kpKR0E3AAgBoampuamqSC6+Ci9GjR+8rs3Z9TwCgdlddOBKSJVbJ9rOY/Iv8FwBomia7jIoDX7bTtTwrUOQ/88fDf7uo8PrHXHNOAc551/IsRGCKiEeFY/rPvGz47xZ5jjtXdtXiyAQAY6yhvuH2235z0y9vrqqqkj0svlx9yDmXBVgD7hbCrpgCghsz5ruPPoNHg5kViggBiuaEWoOLHgSgGawDhALW4IIIIrTwgeRfycAmL/DhcPiWm2/dunXrAElXkuM4fr9/xYqV/3jo4UwnseRV/NFHHq/dVcs5N02zvb398CMO/+rXTu22VEgIoetaUWFhJBKR96m1tLSUl+/c1/nlYHbtqm1saJS3tsXj8eTFPpNxyoOfefo5WUplxs2O9o7S0tIF55zdbVCT193i4uGRSMQ0TdM0Q6Hw1q1be34WmbFKS8c98ND9V15z5ahRJYlEIhgMBYPBYEcwGAyGQiFFUU466cS5c4+CHguwZBTbsb1MvupwOJKfn7+PeTsBABUVFe1t7bZlx+Nxy7LGTxif5nuyY8eOjvYOy7ITKfFEvFMiYUYiEV3XR5Zko8tonyGT62LAHdRdnmMXDLv1laJfv+g75Vvo9vJwu7BNcCwebtdLZxXd+HT+j/7EcgqBOwDIhZC3GCxatPjyy36ycOEil8swDKOHb8Di4T1t7N032Y9rAgAg57xrmTcXuJ3ZVYBz5vZHP33dLF8rNzrM8tjIl/Ty685AxDkwZpava7z5dFC0IXdLHaIwE8PueMOYfBRVuw9wnHMQcNttt7+x+I3UAtmAIvtL3fH73552+mmOwxUl3d+4OOdr1nxhJhKMMQC0bGvcuHGjRpX0MMO0Y0dZQ329XERzHKe0tHTEyBHdHi8/2NraunXLVln9YzvOxIkThg8fnukKjhBi3br1kUhEYQwAbdseMXLEvnoZyJNXVVZVV1erqgYAtm2NGj167NgxvT5vqlApGAxuWL9h27btTY1NjuP4c/xjxoyZMnXK5MmT0hmwbdvr162Px+OMKY5j5+XlTZveTZm5HE99fX1ZWbmqqADCcZxp06fl5eX1PFT52erq6srKKk3Vup2dSnYZ1bRZs2ftq/7sQOssz5JzL9au7ZH3n4suXyjMuPeUb+ecezXz5MhO5byzZ0dlZdX9993/wftL5d2RPXz3yYKz397xm7PPPitbLeKg/xqWCg7IWh+6LvTOE8ybm9lSBlN4pMN34kUF1z1MhbwHAAWswYapPNTq/ep3C66+T74VB3tApHvyivvYo0/c97f7cgIHue5qX2Spk8/ne/AfD0yYMP7A7Al90PXTla/XVqIDur5nsOAcUN4tCDzUKmxLyRue/Dhj8j+w4zivvPyvJx5/sqGh0e/39boCjoiWZd3zt7/Omzc3W98CnTeENuTn5+8dUmUbVbm+2Ye1OsEBmVW1ueHWs4WVkDdOZvBwRLCtoltfds04nq4g/Y3e3MFGOMztSaxbysNtnTt8kQFH/phesXzFo488KvcPPtgj6p6s0W5ra/vjnX+yTCujtULOearz5Z4lwz0c76R/fKpFZ5rHp/m8Pe/rB509w/rwvKlWons1BZV/h7TX2jjn3NnjgVkfatcH9iDNsx1QXcqzmD9fyRsOnIMQMigwxrZu2fbTa39215/u7ujokLcK9pquuMPdbndhUWG2xij/j23evOXXt9wmO6vtMQbGgCmADACBO7L9aQZnRwaca2OmeU+6mMdCGSckZMJKBF+/j7YmPAAoYO2brADo5Q870P9HhQDVsJuq42veAwAqdR+A5C+vzc0tf/x/d8ndiA/2iHoi+yetXr367rv+nFEQZIylOl8qitJrepCHpX98qkVnmsen+by9fjm6tvTsw/PKYXdtCprOk+41YKak9cA+D/XLbUu7OTKeDgAAIABJREFUlf6YD7RUeZaMVoiyA+3TTz1z5RVXLv/vp16vV1XVNP8/y2+Bgvx8yEbBWfIWkF21v7751o0bNra2tIIMWIIDQMfLd7Xcd1V0+SK7sQoAktcRRBkZ0930GgFA+M/+iVo4Cmwzw0osB92++NqlsbUfdO5KRPoL9cHaB0SRiAor0fMxqKig6qjqwFjGv4jsn9jqdzwnXNjNInrnd3I/wwM3t3wAXhFiFssR5DrRw/94uKKiYv+bMuxxZ1fnOlQWV/ZlYXVnuyZH1wfwZZWQrjq/KbjDmcI++mjZ3Xf92e/3+/z+DL7pEGzHLiwqlFut76fUjau33Pzr6upqxlhNTU2prPkTAhB4NBha/FBk2StKTqE2aoo++SjXjPn6xMOZJ2f3amFyDXHfv70jA87VYWN8p3y7/aU/MV8uiEx+yCCCY4de/7t71knAFKC+WP2GAlZ3kAkz6j78VG3iEeB8+U4NBMfkiRgPtjitdXZ9hdNWL6w4Gh7U3en+CrI/BEfdZZZ9IRIxNNx7b5AuW/YdSgbVK5K/v3687JOFry/an9sG5USI4ziJRMJxHO5wAcl9DFVV1XVd3ry2n0lLUZRoNOZyGT//xfXf+va3YIDfpk5Id2Sp/tYtW2VrDNu2038sAtq2M2zYsEybgHQzDCEQIBqL/d+tt69duy43N7e9vX1n+c4TTjxBCCEzjD5+NsspQMPDw23x9R/GvngvqLvVYWP1CbNdM+YbU45WR0xAzUidEQQHwM6CrT3GDUL4Tr80/OGLTnsjqloG1x3O0e2Nb1gW/XSh5/jz6Wap/kMBqzuMiUTMPe9s76nf6fVYHmq1qjbH1y2NfrrIqtrEPDmyW0k/Dk8I1Ay7scqq2qRPOnJ3wBIckCU2fxp571l0+/pr7pcxEQu75pziOf78fr8PRXBAZteVh17/O6hav9zPgCgSMX3i4b7TL907qmZO/oCORqMPPfiQrMPoW16Rs0qhUNjtdo8rHTd27NjCwgLZIrypqbmqsrK6uiaRSLjdblVV+1YrI2fFgh3BqdOn/uLGnx9++Bw5eKrCJoOOXM1samySzcMyeiwiCsFlB3zOeZ9vIZTf6VyIO39/50cfLQsEAg53hBAVlZXQZeVRGz4ONR0cGxQVVQ0BQXC7scLatS267BXmy1VHTtQnHemadow++Wi1YOTu3y3lr+6p0nhkwLmSP8J/2vfbnvkNakZmk1gCAFlw8YPuo89A3bX/P/pItyhg7QOiSESTFYg9pHumMH++MWO+MWO+/9xrIu8+2fHKn5MTS/1aHcUUEY+Y21frk44EwbvW0imBosjSF4SV6K8SeKaIWMis3OiZf16/TywLAQjR5Qs7/nUPy8kDJ4NfTNOlqDzYVnDdQwAAnMP+3aEtFwhef23hpk1b/H5f36IPYywSieTl5Z5z7jmnn/61adOnySaZKbFYbNPGTW+9uWTp0qXt7R1erzfTRUPGmGM78UTi7AVnXf/zn+Xm5g6R+wfJIUnGl7r6+j78H5bfsyNGjNifAaRuIL3nr/e+sehN2ZNFTjZXV1XL1g+CcwRQCksUf4Et55w6fz6gZqDuBhDCMs0daxJbVoTffFjJK9bGz3JNO9aYdqw2eirz+LusITqpJ/addmlk6YtWw07UjAx+4AuOLq+54/PoJ696T/kWcGcQrRIMIhSw9k3WUQL0Mn0qZ3GFYJ4c/7nXGNOObb77+05HE2qZ72aQPiGAMatqC0CXjqNyYX7kRO/Jl4Q/eIH5+yeRIII3YNeXW7VlWsmk/p3EQgYAiXUfKrlF6PFnP7MigmOrhaO8J10MAPtZVSZ/wkYikddefV3X+9I9SF4nwuHwV75y8hU/uXzipImpM6fyEyK63e4jjzryyKOO/Ob/XPLwP/753nvvezye9GfLFEWJRKI+n/e663964UUXQJceToQMOqlp49bW1q67d6cPEWXA6vP0LedCUdgjDz/69FPP+HOSFWDyFt3a2rr29o6CgmS3WCVQxPKGQ0staPruPCREcv4JGRoedHlBCB5ui3/2dmzVEub2qUWj9UlHGNOPMyYdqZVM2n1JcmzmDfi+/oO2R34JujvDSSwBTAm+8ZDn2HPkM9IkVtbRT9X9JvfPUlQQAhxLn3xU0a+eQ83VXfFWFglkilW7A4TYM98IAPCccBEigGMlZ+Cy+8exAYCH2hIblgFAv0ySJV8KB0S7scosX4uaDnY/vBwheCTomnUS8+UBd/bz6yXnq5a+v7SsrMwwjL5NX8Wise9f+r277v7jxEkT5a3y8vqRurFLBin5qYmT/j971x0mRbF9b1WH6YmbE1EQlJwERTEgDxX1qQT1YXzmHAADKCAGlCDBgDm8n8+sCIYnGEElB8k5h40zuzOzO3m6u+r3R80OKxvY7unZXXXOx8e3OztdXV3T03Xq3lPndpo5a8bd99wly/IJ3QegWtdVVVV1yimdXnhp7pVXjTqhdVMKKfwp4PV4fVVVOu5kQogkSTkJeDSoqspxeOHCL9988y2bzUaq19WUUo7DPp+vtLQU2KOZUuB4Pr8DVZV6wv/02HZCjkcWB7amAYBcst//84fuefeVTbqkbMoVlZ9OD2/+RfW6gOMBIduFNwsdetJwQNtalxJkskQPbvH9/H5sG2MKRiP1YDUOCAEngCoLHXqlXzeZhP1JDO1QCryouotpJAgIHWM5mAOgpu6DhA69aDiYxA5gLrx5KUAyK/ZQCgCR7cvVqgrg+KQ4ylKKON5y9khDGmMeSIsXf6f78FAodNsdt97/wH2AEIsqMUZ13DvjfIvRr9tuv3X8hEeZDVIDHItJ5gOBwIgRw199/ZXevXupKkmJrlL4s4OFrLxeb1WVT2sEi9XQdDgcGZkZoCuCxdJ/P//08/MzZomiCPCHBxXGXCgUKi6qLrtJCQAIBR0bJZClNLYOBIQECVvTkMVOo+HIzlXeT6Y5p40um3hx+aybfd+8ppTst549CijRLNmgBAmS//t31apyQClXReORShEaDY4HQmwX3RxY+nH04BZksiRlZUABcRzxe0mgkpP+uLuYqIgXrGeP8uxZj8w2UJNxdoJFc3TvBlJVgR1ZSYstIwAIb1ySLKUXwjQaEtp1NXU7CyDR/CDjQ/v27tu+fYckSVrDVyy3eP75g++86w4Wi2rMWpxROlVVR4wcHgwG5855gemxar+T47hgMGiz2R56eOzIUSMhpudNra9S+IvA6XJFo1FJkrSmCBnBysyos+DjiY/lOO739b8/8/SzAMBxXO0vvqqqR44cgRh7owAgtO6sbdMfUKDVNY0whyRrTBpfXqiU7g+sWIht6VxmATLbGBvTcAGUIlFidYccwx9IKbEMR+oJazgQAAXMWc67msqRpAV4KCBMI0HV6wL4Y54OYQCwDBrBZeSBEk0KO6EUBEGpKI7sXgsAyWGQFDAmgcrInrXYZE7KKWJ7RS9FgglUjQ+merBhw4bKyiodG5FUVbVYLLfefiv7VZNjJAtNXXf9tVdffZXf7+f+KBmMpwW7du3y8ryXRo4amUoLpvBXAmNUZaVlqqrqcIUlhGRlZUpmCTRGsNiWw107d02a+EQkEhEEob5lFSNY7IQAwLfqhES9Cl1KgbAcIkWCiCxp2JYOqqKUHgBC9BXeQYLJv/Qj4vfEvFtTMA6ph2wSgBAAmPsOxTaNlTg1AWMqR0iVCwD+EJVm23ezW0t9h5CQP2l2oAiIGt60JDmNx0hbdNca1VX4BzWogVAVbHVYzhoOYECikz2at23drqMhjHEkEunZq2eXLqfqoD7xCi33PXBvjx7dg6FgvIV4WnDUlaNeeXVe9x7d2CTU0tKCtB40d7+aGalhaTzKyvQQLABQVZKblwsaHeBYxLqoqOjxxyZWVFQ0oLnkOK64qJhVdKAIAIDLaoUz8kCVE33sxHOICB+zztLeCBLNytHdwVVfAyRntfw3RopgJQEIAQCX04bPaVtdjDMpp6FEJZFQXX+iANR63mjEcckqhk0pEqXIjpVUjlZ7ARuP0KYl9atBEwPGNBwQTxkgtOsaL2SmG0z8FI1GDx46xAu81imQVVzu3r0b6PX5ZMp3i8XywIP3s5U0q4USDAYtFsukyRMnTnrMZrclYvNjIOIi/ZpF+uoE/LFq3l+bW9QcFnalDQxLzXKHf+1hOSHYcqK0pFTHFkKEECUkNzdmgtXIo9gqyO32THxs8pGjRy0WS31+wmwjYUlJidfrBYgJ3Tl7Fp/dmioJE6wa50lsCUoB4cDKr4Ak2dfw74fUaCYDCAhBgonPa0+1ForScBIERAVWzOe4bxfGAMjU4xzhpJ7JkrpTgkRJLt4vH9oGAECMfcRTwBxVopHtK2ImeMYDUVWxDBoOYNiizeP2lLvK9TEYSml6ejokYKTOglXMuyEQCHIcV1VZ1aNH93mvvjx8xBVsGm7GtGCcPUANkX681p6qqqFQyOvxlpeXl7tcbrc7EAjIsgx/rJrHeGQihZ9bGuobFsaiVFWNRqM+n9/j8Xg8nqqqqmg0yubymuUOEUKE0D8j06ovRNf40B1b26iKUlxSouOrRynlOI65jKLGLeRotSvE5ElPbNm61WZtqFoDa7+ysqq0pHojIaGAkFDQkerL6CUDTIl1aKtcsj+1ndBYpETuSQIFAGRJS3ZKm0bDAFDri4qY1N0yaIR33wYkWZMSYMIcDQfCW34RO/czOIJFKGAkH9wmF+3VL1ZoAAiBEuWyWpkHXAIAiRNQ9sx1lbuCwaA+EoMQcrvdkFitWZYo/PdN/1722/K9e/Zee/0199x7t9VqbUabq/i8WHM7pLvCXVxccuTI4SNHjpaVllVUVHi9lcFQUI7KcSLI87xkltLT07KysgsKCk7q0P7kkzu2adPGarWyeZS13ALTnY1Bzc7HuZTT6SwuKjl85HBxUbHL5fJ4vJWVlaFgSFZkUk2qBFG0mM3pGemZmVkFBfkdOnRof1L7Nm1am83mWAXglj0slFJCKOuagZ30+wNsbaOVYlJKeYHPzcsDaBTbYe2rivrs1OdWrVzVmEqjbP/KkSNHe/TsQasL5gitT2lBaidKgedJlTt6YLPQujNUdzKFxJEiWEkEtjiSlKCLI0awan8fEAIAy9mjfF++ROUIoCRk8ShBghje+qtj1Dijg2QUAMKbl9JIAJnMxtulIkzCAevAy7n0XCDEKJma3+ePRqOsopmmAymlPM9v2byF0hN7WTUAFuBxOOz33ne3x+MdPuIKaD4TURaVifOqqqqqbVu3/f77hl07dxcWFror3OFImE1OHOZQLBCD4lfBQAhRVQJAOY6zWCz5+Xmndjn19NMHnDFwYE5OdjxZ1mL5RG0cNyzl5eUbN2zauHHj7t17SoqLvd7KaFRWVQUhhDHHxqTm1TECGg968TxvtVoKCgo6n9J54MCBp58+ICs7qwUOC/s02VVz3LEu1Ux01ozAsTsWASCM2aIDIwQICcLx/r2MTZZXVASDAX0RLFEUc3NyNF3FrFmzF327mNm1n/Ao5gRx+FjBHAoAfH5HlCRpqU4gSolSvK+5u/FXQ4pgJRXJ//7wQt3nQRgo4XPaSn2GBH77PGakaSwIQaIkH9yqOI/wue2MNGtAGICGt/yCeDE58WoKGFfbXxnwGbGJIRQKKYoiiqJ2gkUkSdq2bfvGjZv79eubCCVi7OS8wefFe9X07KqmzYTXW7lh/e+//bZs0+bNpSWlkXCE4zlBEHiet1gsCDFRCsR7exyqKRdQCqqqHjp0eO/efYu+XZyXl3faaf0uvOjC088YwMyHWrgZfXxuZp0sKSldv2798mXLt27d5nK5FEXheZ4NiyAIqIYpf+1hOY6GyrKyf/+BXbt2L/p2cU5OTv8B/S+86ILTT28pw1KTWgFAYWHh3j179+3df+TIEa/Xy74yiqqqiqKqpNqKADiM2XVijkMAGONoVO7evdukJybWSRkrKsqDwZDWrx7TPmZlZbHs/AnJKLNrf+vNtz/95LPGxK7iI8Bx3IH9ByD2qQEC4PLaY7ONytFkFTTTA6p6nQDQUhKXfwmkCFYSQYK+5N6rFLBojv1Ux18pILAOvia4fEGyvsO8oFZWRHas5HPbJV7ILwZW4Ln0YPTgViSajS9ZjTCNhIXWp0g9zgFI1P7quKb1HUYpYIwj4fAbr7/58rwXWQxMd+whPvU2C7WKc4jdu3YvWrR42W/LiwoLZUU1mURRFJlNUTw6dcIGa86XGGOTyWQ2mymlHo/n228X/fDDj6eeesrlV1x+yaUXm81maAF8ok6wXrEPdM2atd8t+m7tunVlpWUAIIpivMxRA0qjmjjuDTWHxev1fvu/b3/4/ocuXbqMGHnFsIuHsSqWlFCEm3rWrEmtKioqlixZ+svSX/ft3efxeBRFqQ7MscgUqoPexNhWbJHg8/nat2/HBqr2V8NV5opGoyaTSQfBSktLS89IP+GbmeXVZ59+/tYbb9tsGsqMMoJVWFgUDofjNl1cZj62ZymuowiLje9wskEVubm78FdDimAlByxKX+lCDdcxTARs75soxU93PDAGoKYeZwsn9ZCP7ELJcJOiAAjCm5dYB482LHxFCSAc2fob8bmxIxMat0zUAIxpNGgecEmsILdxHxATHWsNXzEQQswWy/p161995fUxYx9gT3PdPWn63FBNSrd27bovF365fPkKX5VPMplMkiRVE4hGLvrrOwUAsBZYpIdSunPnrq1bty34YuH1N1x74UUXMqfHlpMaizPOaDT66y+/frnw6w0bNkQiEUmSrFYrVIvcEzlFncOyY8eOLVu2LFzw1Y3/vn7IP4YgjBK8o7QizikLCwu/XPjVd4u/Ly4ujnPBei6iXnAcF41G27ZrC9U5wePeUFxSorOfKsnMymShrwbuGTZ6P3z/w5zZc0WTZkokCILb7Xa5ytu2bcNe4SwOPqeNUnYQkJYKzckFwiZLc/fhr4YUwUoCKAWEqRxR3SWxGoXJOQ3CXIP2JwhUFQkmy9kjve9NRmar8a7ulCDRHN21jgR92GI3KEuIASC0aQlgnJQUK1GxZIvtHzQowMgezTa7TYcA61i/CLFarR+8/2HHDh0uH35ZE8+IiSA+m27csOn9999fvWpNJBKxWCxpaWlMWKN7TOpDvE02W+/bt++JyU9+++2iO+68o1evntACQlk1GedPP/700YefbNu2jRBqsZiZZ1KCvKqBk0L1sOzYsWPC+MfPG3zu3ffc3bFjB1pt/WD4eY8DG/xQKPTJx59++slnTqdTMkkOh6PxkcvaDQJATk4O1MPFSkpK9XQUAaGkoCAf6uFtDOybuHrV6menTuM4vk679oZOglE0HM3Ly3M47ABs9zcBzHHZrakiI8wDKEBoU+hJTgQuqxUAtISe/GWQIlhJAKWsSrHiPIr4pC1QKADmkan2crAGMAIAy6CRVV++BHISDCMoRaJJcR2J7v1d6j0YKEm00gIzcK+qiO5Zj5NRZQhjGvKbup4pduiVuP3VcchITzeZTOFwWMdupjhMJnHu3Bfan9S+d59eLZ9jxSM0hYVF7/3fe99+uzgSDlutFkGwMf1yE3QAACRJAoDVK9ds2bz1xhtvuOHf15tMJqIS3Ey1gOKMc/Omze++85+VK1cBIIsllsRssmFhNOvnn5du3rTl3vvuuWL45ZBk6hmX/W3evGXOrLmbN2+xWiwOhyPBq2a7QGJmCn98iLGYscvl0nFRCBAhJL+gAOqPoTHruO3bd0ye9GQ0GhVFURO7whgrsiKK4oNjHmDrDVwtujL3vSDw2+fE50YchwQJOB4AgJLmCWhRgnhRaNe1GU79l0aL0yv8FcCqFO9YSQJeSJbVJwJKkChy6TkA9RuRIwyE8LntzL2Zq3syZmtElWis8HPioAQAIrtWqxXFoK1cVyOBqRK1nHlFzEXMILCHfmZWJptLdLfDJpJQKDTliScLjxZqXSs3MdhsQQj55ONPb7/tjgVfLOQwttlslGrwbDSqJ4QQq81KKX311dfGPDDu0MFDmMNNQGWOA4vQYIy9Hu+c2XMfuP/BFStWWiwWi8WcpKhVA2BndNjtfr//maenPvP01EAgwD6yZJyOVttDfPzxJw/c9+DOnTvT09M4nkvct4xSKggCswM97nUACIXD7go3z2k2+GVft4L8vPrewD7KI0eOTHxsUlVVpWjSxq7Y/kGVkMcnPnbueecco7YYA4DlrCvynv4m/erxpq5nIkEkAS8JVIKqAMKAuSY1/EQIlCif3Vrs1A/AANuaFOJIDWUSgBEAhFb/L4lG6iiW6uIcOdW/1wcKANbBo1GSlq2UIkGKbF9OiWpUQCi8cQnVWrW0MUAI1CiXnm8+41IAMJBuMoJlt9sLCvKZgFd3U4QQSTIVHi2c8sSTVVVVukVdSUU8/3Vg/4ExD46dOeP5Sm+l3W4HLXbYhoOprxwOx7p16+6++95ly5Y3MUONb59cuWLlnXfc/f57HxBCmQ9ZMw6Lqqo8z1ut1gXzF44d81BxcUkyOBZjV6qqPj9z1qyZs1VVNZvNhljCsmZtdhuTotf+cgX8frfHrSNaSQiRJCkvL6/OZtkdXl5e/tiEiUVFRWazmWiRWDA9vizLEyY8csmlF6uqWjvGZjr19LTRE/Ke+jpv6qLM22ZazrgU2zNpJEAClTQaBoSqmVaSs7oYk0hY6nM+l5YNhCStfu7fESmCZTSICghH9qwPb/sNme3Gb4KLAVFVwWk5yOo4wRsxBgBTz3OF9t1pJAmu7szS/eguuXAPs7BPoCkKmKPRcHjHSiQmQZKPMAkFpF7nclmtDH+OsOVpx5M7qqqa4PNQVYnNbtu0afPUp59lbuYtimPFVeTffP3N3Xfdu3LFKrvdzvN804eLaoPp6G02m9fjfezRx+Z//gVjqE0wgOwGiEajr8x79eGHHj106FBaehpCqCXEIFlcLS09bcP6DWMeGLNv335jORalFBBEIpGnpjz90Ycf22w2Y9tXVTXNkcbMFI4/L0BFRUUoGNJRwZMQYjabc+siWIRQhFDAH5g88YldO3dZrVZNtzdjV+FweOy4McNHDCf1lahiZZsREtp2sV9yR874D/KmLsoe85b9opuF1p2oHCV+D40EgRLAHGCcFOqDECgK58iyX3w7QMqiwWCkCJahoLG9xVWfTAMjS03VAgJQFezIQrx4Imk5AqIiQbScPZJGQ0mp/Yw5EvRFtv4GAAlF7FiB5wOblZL9SEyOdg0h86ARABQgKdNez149sRHafFVV7Xb7jz/8NHvW3PgefiM6mCgYjYiEI7Oen/30k1N9Ph/bst5CusegqqooioDQ9Gkz3vu//zbBALL4RGlp6bixj7z91js8z0uS1NJK+rA40MGDh8eOGbd7926jOBC7Rkroc89O/+qrb+I7GxJvmYFFsDIyMiwWC9QVanK5ysPhsI5Yr6qqaWlpaWnHr1EppQiBLMvPPPPsmjVr7Xa71sUDQigUCt1z792jr/kXW5DU/T6MY4VcKQGiAqV8bjvLoBGZd87Jf+773EmfpY0cJ3bqAxxHApU05AdViR1i4MyCORL02YfdKrTtwnZwG9ZyCimCZTCIAhzn+/aN0MafkMWRtPAVACBKFD63PUAjSunFXN1HYkc2KHJSFikcF5NhJfz9DG9aQqOhRMXytYEQjYaEViebe58PgAyXo7FnaO/evXNycmRZTnyvlqqqjjTH/M/mv/Xm2xhjanC1Rz0gKsEYl7vKH3740Q8/+MhitbSQwFVtMCJoMVtefmnee++9nzzhEVTroDdv3nzPXfetWrkqLS0NmjVV2gBUVbVaLWWlZeMfmXDo4CFDhoUlB+e99Mo3X/8vIyM9GfcDpbSgVWyv33GvA4DL6YxGozoiWKqqZmVlMt5Ws012Rc/PnP39d9833lA0Doyx3++/7fZbb77lpsaZhqBq3RWqZloEmW1Sz3PTb5iS98y3eU9+lXnzs1K/ocjioEE/CVTGCkUnLtXiBOJzm/uc7xjxINAWUxvxL4QUwTIIlIKqACeENvzofX8KTi67AkAAFMROfWKnPsGbmdS9vbn3EBL2Gx/EogSL5uj+TarXGXPd1geEgdLw1t8QLxofYUKYRkJS/4uQZIUkCLxYxiE/P69v3z5sPZ14m4QQi9XyxutvfvLxp80i2a4JVVUxh/fv33/vvfevXLHS8ECF4WB5K4vFMu+leQu+WJgkPRZjckuX/DJ2zENFRUV2u62lBa6Og6qqFoulqKh4/KMTykrLEuRY7PK//vqb9977r82mLY/WSDAmVNCqFdSirYy4MI8GHWNOVJKVlcVGIM6BmPTq9dfemP/5fH3syufzXX/D9XfdfaceS7a4wp1SICoQFfGieHIf+2X35D7+af60H7Lun2cdNILPyKPRMAl4aTQEAHqkWggBxxFfhemUAVkPvI4ka+zFFAxFimAlDsry6MDxodXfVMy+BSHMir0k8ZyEIJNZ7NAToJFBIwoAlvNHo2R0jFLgRdVTGtm5GqAREbU6QQggpBTvkw9vRyaL8fSUEmQyW84aAQBJWqixR/zFlwwTBM3VchqA2Wx+Ye5L//vmW47jmotjMcOI7du2j33woQP7D+hImjQL2KdgMplmz5qzcsVKw+NYLDP49VffTHx8UjgUZmlBA9tPElRVtVqt+/btf3LKU6FQqGZlHk1g7Gr/vv0vvziPOWUkA4zxFOTn1/eGkuISfQFjCjTvj1sI2Qf68Ycfv/3Wu5rs2hk4jvP5fFf/6+qx4x6kCZbcZgEqzAGtTiAC8LntrIOvyX7o3bxpP+Q88p79kjuEtl2AEBLw1pBqNZxAjEXLqCITn9dy+iU5Ez7kMvNTycEkITWmelG9wmD5JhoNV340tXzOLUBU4ITkVNCrBkJUkbn0PL5VJ/briQ/BGAAkJnUPh5LyXSIkvGmJ/sMpAYDw1t+I32tMyZ2awJiGg2LHPqZOfQ1thnRsAAAgAElEQVS3v6pxEgwAZww8o2vXU0MhzarbOsEe0zzPTXtu+pIlS5uFYzF2tXXL1nFjHy4rK9Mq+G1esEIlhJBnn51WVFRs4K5MNiwLvlj43NTnMMaCILTMtGCdYCK/1avXvvTCy7oJFis189JL8zweTyIWuw2DUmqSpAZMsJxlTr3fNZRXg7exD3Tx4u9efOFls1kzX+Q4rrKy8rLLL3vk0YeM9HRF1QlEgLhUi0vPNQ+4OPO2mfnPfZc75Yv0f00QO/UFjieBShqopHIEoDoYVvMfwgCERoLE7+XsmRm3PJf96PtcRl6KXSUPKaPR+nGMQsWBYv8hDAgxnRCVI6HV31R9/Up07+/Ylg6gN4TTeCAEckRocwq2pjfaPJ1J3U2WQSO8/52CJIvBYSxKkWiO7FxNoyEkmmM1dDQBYwAIb1qCMGd87A8hKkcsZ14OmAOiGi/wip0EEUJEURw5auS2bc8Y1SyjCLIsPzXlabMknXnWmU1pQKqqhOO4HTt2jn/0Ma/Xy/beN82pjQIhxGQylZaUzZg2c87cWZjjAPSXeoy3yXHcV19+PXPG87wgJFXjlSSoqupw2D//fH73Ht3/edmlWg1I2fu/W/zd8mXLbTZbku4K9p2STCa2168m2NrD5/O5PR591r48h/Nyc6F68ynHcStWrJj+7HSO57SSTha7GnbxsEmTH2edSYpjPsKxxyoLawFCJoupy0BTl4FpVz4cPbIzsmtNZOdK+dB2xV1CIwGqyLEJghE+XkAWu3hyV3O/C2znX8PltI01lWJXSUOKYNUDSpEoxYh/XVA9pdEDmyM714Q3/hQ9uAVxArZnGuhd2RAQpqos9RkCABpKLMek7qN8X71MFdngJCYlSDQppQeiB7aYupwBhIKm4rKUAsKq1xnZ+3sSaiYiUBSclm0e+E+A5OoM2HP5wosu+GL+gh07dlgsFkPmXUKIIAjRaHTypCmz5jzfp0/vpuFYhBCOwwcPHHz04QkVFRXGpsDqTqDE5o9jVV8Mgaqqdrtt+fLl8+fPH33N6IY2djUCRFUxxy1ZsnTG9Jk8r7l2SsM4Niyoxhe0+mdjh4VSKorivJdf6du3T+s2rRvPsRiB8Pv9H334Mc8ndxJRVZKV5chIr9sEq9Jb6Xa7OU5zH1RVNVssOTnZUO04unXrtimTn4rKsla7dp7nvV7v4MHnPTFlcoKV2huL6uU9UAqUAlDgeLFDT7FDT/vFtxGfR3EdUYr3K+VH1So3jYYRL2BbOp/TTmjfTWjdOVZgjTkXpnRXyUSKYNUFoiLJGlj6UWTPeiBK9S2IgBASDdFgFfF7lfIi4i2jqoJEKRZJahp2BQCqjK3pUt+hAKCBxzCpe157U+/zg8sXYFu6wR3GHI2Gwlt+MXU5A4Boyz5TAoiL7Fylekqx1fCOYRLwWc74J5/bPtnB8NiCW5LuvufOsWMeMnAuZLExn88/Yfxjs2c/371H92SX2yOEYowrKiomT3qitLTEqCgFqyFDCFEURZblOtvkOE4URZ7n2TsNGUZCiGSW/vOf984999xWrVvpngUJIZjjNmzY+PSTz7CuJs6uUDVOOCyCIPA8z1JjhmwAFEXR6XS+8sprzz6nIeZKCOU4/MvSX3bv3qNDq9R4IIQURc7OyWa1sWuCfYIuV3kwGGTVmjU1y5Kk2TnZjF0dOnRo0sTJPp9PkiRNl8NxXFVV1VmDznp66lNms9QU7KomEKqenmiMbCGM7RmiPUPs2Lveo4h6LO2YQjKRIlh1gVIkmCJ71od3rDz+TwghhAFjxIvIYkcIx8zimgwY05Bf7DpQaN1Ze3SXAoDt/NGhlV8a3zFKEC9Gtv4GVz2qLwcX3vhzcryvACi1nD0SgIXKjD9DTbBs0cAzB15+xeWfffp5WprmjUj1gRBiNkset2f8+MdeeGFOp86dkhfHYlZA0Wh06tPP7ty5K3FVO0IIYURUEgyGFEUWRTErK6tt27atWhdkZWY5HHaEMVGJz+crr6goKiw6cvSIu8KtqqrJZBJFERI2PqCUioLocpa/+85/Jj0xUV8jjNQWFRY9NeXpcDjMyjYn0itGkRVFiUQiqqpKkpSRkdG6davsnOyM9AyL1cJUd8FA0OP1upzOoqJit9sdjUYFQZAkKXEj02rHtR8vuGDo+UMGN5K1Y4wURf3228UJUvwTysAZlczOzuYFvk7uUlpSoiiqyaRZRqaqqsPhcDgcCCGn0zlh/OPFRcVa9YWMXfXr1+/Z56ba7fZmLTGOAKEaCUQao1zxEWM/I5QMk5oU6kOKYNUDSpHJEtu8WutvQAGAAiFJ8qtsCAhTOWo+7SJACFQFNMXGMQagpp7nCe27yYV7DHZLJwSZzNFD25WyQ3x+Bw2xImbgHglGdqxComRwfhAhGo3w+SfFMqpNojZgicK7775z06ZNBw8cNJvNRi3xWQUSZ5nzkYcfnfPCnA4dTkrSM51t3Xrt1deXLv0lPT0hcyNWPSYaiYYjYavV2qdPr36n9evVu1fnzp1ycnLqnF8JIWVlZTt37Fy7dt2a1WuPHj3KcZwkSQkmyJgL1Pfffz/qypFdu3XVOnSUUgAUCoWmPvNsYWHMkUF3Z9ipQ6GQoijZ2dkDBvTv27dv9x7d2rVvn5WVWSdvVlW13FV+4MCBjRs3rVmzdveu3YqiMBunBIN8CKH//vf9MwcNNImmE8Zg2Ljt3rV7y+YtWuM9cbDLl2VZUZQGOo8xDgSCWVmZUB2yiv+JHVVSWqpqL07FIliZWZlms9nn802e+MTePXu1riI4jvP7/T169pg249n09LRmZVd/xLGwVgrNjBTBqh+UJNVpQQ8QAjnKZeZbzxkFANp3w8Wl7iO9/52CJCtoqa51YnA8qXJHti3n8zsAIdDI6mCUAOKi+zYqZQeRyWo0wcI0HDCfdiG2pgFRm2bpxuIK6RnpEyc+/uADY6LRqD4Rbp1gPkaFhUXjH5kw98XZrVtrkM40EqzBn376+cMPPtZhBRQHQoAQjkaj4XC4Tds2Q4f+4/zzB3fr3q2maodNz/HBYTMlxrigoKCgoGDIP4a43e6lS35duGDhjh07JcmU4GY9zGF/lf/TTz9/8qkntM7KcYek1avXpKWlJTAsCCEUCoYo0G7dul140QVnn3N2+/btar6nzmvkOC4vPy8vP+/Ms8685dab161dv2DBwhXLV2CME4mlsYoxW7dsW7rkl4svHnZCgRr7sNauWRMMBvWNA8Y4FAoRQvLy8nJycywWS31KB4RxMBjq3bs31BJgsV/Lypw6yATb/9iqVQGldMrkp9atW6/1Puc4LhDwd+7ceebM6Tk5OS2IXaXQkpAiWH8qIExCXvuQa7ms1jrpwvFSd0MXOhQA4fDmpdahN2glf6FNP1M5gsx2gzkfpUiQLINGGNlmI8AShb1693zk0YefnPIUx2nel9QAmI/RwYMHH314/Oy5s/Pz8wx8vjMaUVRUPHf2C5z2ArpxsBEI+P2t27QeOXL4pZddmpPDCpPH2APjGfV1Ox6syszMHHXliEsuHfb5p/M/+OAjj8ediE8EUYlkllYsX3H0yNG27do2XjHDRnjZb8s+/eSzRBKmHMdFIlFZjvbs1fPqq68a8o8hJpMIsXKBFKFjFLP2sbGiNJQCgCRJ55x79jnnnv3jDz++/tqbhw8dttqsiVBPhGDB/IVDh/7jhKJ11rfNW7bqWzYghAKBQI+ePa666soBp/fPzs5u5K1b26MBAJxOJ8fpsN6gCOGMjIyXX5r3008/ZWZmamVXwWCwbdt202c+l1+Qn2JXKdSH1G3xpwJRsdlmu+hmANDplllD6k5CfoMjOpRgkzmyZx3xe2NmxI3tkhrZugwJksH+ohjTSFDs0FM8ZQAAbWLlAWMYl1x68V333On3+42VvjKOtXv3ngnjH3O73QbWlWPq6blzXigpKTWZTPpIIeZwKBSilN5w4/Vvvf3GTbfcxFb5TLGOMWZS9wZaYNyLSXBYYvTGm2547fV5/fv3r6qqSmQ+43m+oqLixx9/gkbrulhQp7y8fO6cF0GvvxG7Ip/Pl5WVOf6xR19/49WLLxlmMonM+R0hxHGxYamv/TgljYvcKaUXXHjBq6/PGzxksN/v1z0sLIi1ZcuWtWvXNazrYl2tqqoqPHKU53mttwdCKBwOX3vdNa++9sql/7wkNzdXX5/ZeWVZLneV65AhqiqxWi3f/m/RZ59+rjUIx+7t/IKCmbNmtG/fPsWuUmgAqTvjzwOOI8Eq8+mXCu26ASUJuGVSALAOHo2w0a7ulIIgKuVF0T3rARrnB0YIICQX7ZGP7EyCAAvTaNg88J+I46E53JsY77nllpuvvfYan89nrCBdVVWbzbZ1y9bHJ0ys9FYaVVcOY7x48Xe/LP1Fn8YoRiOqfKeceuoLL80dM+7BvPw8xiEaw6vqbJBFSlRVPbnTyXNfnD1ixPBEyAQA8LywdMnSSCTS+BgMQuitN98+ePCgPtURo0QBf+AfQ4e8+fYbV111JUvqMZMzHYyNjTPTEuXl5c2Y8dwVw69IZFgQQrIs//TDT9Agg2TD5XQ63R6PVoMGjHEwGBx15chxD421WMyJ1xTyeisZ29YXSKuqqtL6lWSVzjMyMqZPf65Tp5NZdU6tp07h74PUzfFnAQJFwbaMtNETEmVFzNW913lCu240YrirOwJVCW9uvKU7BYDw5l9IsMroCBMCRcb2TMuZVwDo0KsZ1AmECCFjxj04bNiwyspKwzmW3W5fu3bd5ElTQsFQghyLBSfcbvfbb76jz5ibpUEDgcCoUSNffe3l/v1PS4RDHNcyM0SQJGnylEnXXX+tz+fTN7cRQiTJtG/f/u3btkMj5OEsRLFu3fr/ff0/fclBjLEsy4SQ+x64d8bM6a1aFcQZZ+JxTTYsHM8/PvGxYRdfpJtjUUpNJtPvv2+oKK84YTrb5SoPBIKamA1CKBKJdOzY8e577mbht0TuCnZer8eTyLpFa4oTYxyNRh12+4yZ07p178qqc+o7dQp/E6Tujz8JOJ4EvY7L7+ULTgaSoJnTMVd3GgkZLcOiSDBFtq8AVQbMnZgLIgTMwF27VeAJgDENB0zdzuQLOjajWzFL6/A8P+mJxwcOHJiMOJbD4Vi2bNkzz0yVZTkRpRcjWO/9338PHTqkIznITh2NRu+59+6Jkx93OByMmhiYG2UzOqV07Lgxw0foD9hgjMPhyNq16074TjYmiqK889Y7UVnWcS0Y40gkYjabn5029aab/w3V1vzGDgshhOe5xyc+1qNnD31lmpgnVmlJ6caNmwCAkHo+fQoAUFxUrKra9u6xcbho2IUOh52RS609rI2KiopgUBvPqwmt7EqWZZPJ9MyzT/duKqffFP7sSBGsPwMwpiGf2L6n/bJ7jLHKZFL3c0ZxjixQFSOLH1OCRLNcuFc+shMATiDDogQQVt0l0f2bkWg2vMAzJSQmb0928aIGwYJYFovlmalPde3aJRAIGM6x0tLSFi/6bvq0GTV10JoQK9y7f/833/zParWqGq3dGLtSFGXCY+NvufXmuNZKazcacyL2/6PjH+l3Wl/dZILj8NYtW08ooGEEa/Gi79atW6/Dl5+xivT09BnPTx88+DwW/UqGESXjWFar9dHxj1gsFlVV9Z1FUZUNGzZA/fUOmEVNcVGx1lOw3a+n9e9noPtuSUmpqiZkyt9IYIwVReEF/pmpT50x8IwUu0qhkUgRrJYPBIQC5jLumhvz5Ur8gYIwUMLnnWTqfT4J+w1On2FMQr7wll8BAOpbBzNQCgCR7StUbxnwgpGCMIRAjvK5bc2nXQjQRPZXDYDNf9k52c9Ne7Z169ZGlYKOg8WxFnyx8KUXddbuZbPUxx996vV4eZ7X8VFEIpGx48aMGDmcTb3Jm/bidvnjJzxqs9kU7TZILFpz6NDh8vIKqJ+PMnYVCAQ+/ugTHQVhWEbJbrfPmDmtf//T2KycvGFh91j37t1GXTmSxXU0N0GB5/mdO3bKslJfWIg1W1xSgpG2/KCiKOnp6W3btjXk3oiZYJWUEKKTSjYerPOU0slPTDrn3HNS7CqFxiNFsFo8OI74Pek3PmXqOjBW4sAQUAoA1vNHJ8GSjiJeiBGsEzzlEQCENv5sdAcAECZhv9R3KLZlMB298afQCDb/tWvfbvqM5zIzMyORiOHmVQ6H44P3P3z/vx9gjDVJhdguuYMHDi79eYnFrCdOEwwGbr3tlqv/dVWyaUT8jISQTp06XXf9teFwWAfB4jjO4/EcPnwYTkSwlvy8dM+ePVq17Ux+znHcE1MmNVlGiXHr66+/rm3btpFIRPOwABUEobCwqKysrO43UMquq6SkhBd42mgajgCpqpqdk2232zV1qd4GEQIAZ5nTkNYaBstKT3hs/AUXDE2xqxQ0IUWwWjY4gXid1iHX2S+9E1TVyFATxgBU6nme2K4bjQSNjPFQikzm6IHNqrsEEKo3PUcpK/sT2bUmCQWeKeLFWHmcFmMXy3hPl65dnp76lMkkybJsLMeilJrN5nkvv/Ljjz9xHKdqdBT7Yv4Cj8fL8dqUvxyHfT7f0KFDb7/jtqbcss7IxOhr/tXx5I46yARL3h04cADqIViMTMiyvHDhlzouivkR3HvfPU0Z82BjkpGZccmlwyKRCNZUcL2ad/p8vkMHD0H9vNPn85W7yjHmNHyxEKiqmpOTzYoGJs6/2SficrkMtPCt70ThcPiOO2+//IrLUuwqBa1IEawWDI4nvnLzaRdm3jWn2pfBwMAAAkKQKMWk7gbOi5QCJ6heZ2T7SoD6s4SUAEBkz3rVeRgJJiOrECJMIyGhfTdT14EAzSZvrxOstNyAAf2femYKx2HdWpk6wWRPHMfNnD5rz+49HNeoTYXsKKfTuWTJUsksaS2aGw5H27VrN+7hcQ17OBkORiasVuvwEVfI2uXnLM9YVFgE9YiiGA9Ys3rt9m3btYavMMZ+v3/oBUNHX/MvQghuWgM2Sumwiy/Ozs6SZc3JU8Y7jx49CnURrLhHQyDg12RCixBQSnNzc+tsVitYC5FIxOUqTzbBYigtLYXkiOdS+GujBc09KfwBvEB8bqnHOdmP/BeZLABGSK+OQ8zV/UrOkQWKbHDjADGzhgZ7Hd60hCpRQ4kj8xcNmc+4FPFiC8kP1gTjWIMHnzd+wnhZlg1Z0MdBCBFF0ev1PPP0s8zd9ITTD3vDkp+XlpaW6XBnoJSMGftgbm7OCUusGA52uqFD/5Gbm6uVY1FKOcyVlpZBPRMne/Hrr75WFAVpCQUhhKLRaEFBwZgxD1RL8ht/dKJgoZ327dv16ds3HA5r6nkcLPVWe1jYveFyuvz+gCZmQykAoPz8fB2dqQ9ut7uysjLZEVNWYX3+518sXvSdUXa+Kfx9kCJYLRIcT7wuqeuZ2eM/QBa7MTsHa4O5uuefZOo9mIQNdXWnBInmyK61NBys16wBc1RVwtt+Q4JkZPgKAFQF29Ji9lfGUjeDwDjWPy+7dOy4MZFwBAxdHDOT923btr31xtuNIVhMVfPLL79qLYyDMQ4GgoMHn3fe4POanl1BdRQqLy+v32n9wuGw1rkWYVRRUQH1MAmE0NEjRzdu3CRJEm14r0atXimKcutttzRXERXW23PPPQcAaU2PU0oxwhVuN9R/T5aUlOrYWIAxysvLA+MiWGWlZcFgsEkiWEgQhBdffOnw4SMpjpWCJqQIVgsDwoAxqSy3nDMqe9Jn2JaRLHYVA3N1vwYZS0QoRYJJKTsU3b8RAOrwXyAEAOQjO+XCPQYbuGOOhgOmLmcIbbswmZdhLRsK5g85+pp/3XHX7SzUZCzHstlsn38+f/269Q1PCYwY7d9/YNeOXZoKBiOEVJWYLeabbrmJdbxZEihscj3zzDOQlk1tUJ0YDQaCkUgEas367Ndly5a73W5NBWEwxqFgqGevnpf+8xJCjIxNNh4sajXg9P7Z2Vk6kqeAwOerqvsvCAFAcXGx1jYJISaTKSc3G4y4T2IEy+nUuVlS++lMJlO5q3z2rNmKooARHDGFvwla6PTzNwXHUyVKAlVpV4/Pfvj/sMWRZHZVw9W9vdFSd4xpNBzevBSgrgAWpQAQ3vILDfnAaN0oVRXLWcMBmtn+6oRgAZjbbr/1hhuv9/l8xk7GzLnnlXmvhkKhBuJY7PUVy1dUVVVpciJACIVCwSFDzu/atQslSbG8amQ3AKBnz55paQ6tgjaMcTAU9Pv8df6JUrpq5Sp9JltXX32VKIoAzUSwEAKA3Nzcjid31KdOC7Ooah2LLgQAJcUloIVksPvcZrNlZRlDsFgLZaVlTRY3ZVHh5ctWsC26KYKVQiORIlgtAwgD5ojPg822rDFvpF03CShpEv9xBERFomQZNNxoqTtBgim8bRkQArVzTxhDzMBdMFTejkCJ8tmtpf7DAJrf/qphsKgVIXTM2AdHjhrhqzLS5J2V7928ecuiRYsbIFgsw7J2zVqtqRbmRDXqqlFQbT7ZLIiRibzc3LxcWdamI0QIyVE5Eo0c9zobh8LCwl27drNdb41vMBQKn9rllMHnn2estE4rGNfs2rWLvl0UhHl8/PE4SinGSFXViooKrTcqC6lmZWVq7UkDKC0tRQg12R5h5uP6ztvvbvh9QypRmEIj0aJnoL8FEAaOp9EQCVRazx6RN/0n67lXA1EBoSYSxyZJ6k4oMkny4Z1KyX6AP5o1UAoIKa5C+eAWZDKfwIxUExAm4YDUZwiXlhMbw5aNeGLw0fGP/mPoEB3VZxsApVQQxM8/m1+f2p1NEkVFRfv3HxBNGpgE22vWo0f3bt26Ni+TYNdlNptbFbTSSiaY+Ky2YRirErNl81at+UGmvhp28TBJkporPxjrCSAAaNe+ne5CyPX9KRAIuN0eTXScjXN2dpbFYtHakwa65yxzAtK5OtP30WCMo1F51vNzqqp8+ux8U/i7IUWwmg8IA8dROUyqKvj8k7Ifeifrof/wee2BqIC5plNnx6TuHYyWulPAPAl4w9uWAfxRhkVVAIhsX6ZWlhts4A4UMGcZNNK4BpMO9qwXReHJp6cMPNPIYoWUUkky7duz77ffliGE6lNq79q12+PRNmUCgKIo5w0+j+d52qxMAqoDTied1F5HUEElMYJV89rZ1fz++watjhWKomRlZpxz7tnxRpoNCACgTZs2Aq+naDfH81BPEtBX5dNaszxGsHKyGdtL8G6J+5O53W5O18OKUqozsEeIxWLetWvXyy/NSxGsFBqDFMFqciAEmAOEaSRIqtx87kkZt8/Mn7nUMmgkUAKUGLmbr7FgUvfRBkvdAQDjmAzrD8lHDADhjUsAad7l1BAQppGw0PZUU/dBtc7YosFEKlar9ZmpT3Xt2pXtgTescYy++eobVVXr27G/a+euBv5aZ29VVbXb7f37nwbQ/Ns02TzXpm0bHV3hMGaTdHy6ZeL3SCSyd89eraK0SCRySpdT27ZrC9V2Cc2LtLQ0s9msVahEKbWYzXW+DgDl5eVsw6a2LQWE5uTkQHXQNHH4/X6t8cVYTyjled5qterjWOzO/3LBl98t/j6VKEzhhGj+p8DfBQgD5gBzVJGJz0MjQeGk7hl3zMqb+bP90ruQZI2VwWkW2VBM6j5YaNeVRkLGVeMh2GSJ7N1AqioA4Vg0n1LAmAS8kd1rsWiogTtCNBK0nH4pEiUgavPP/FrAHtZZWVnTZzx30kntjdoexZRS27Zt37d3H6NxNf/KJphDBw8hLUyX+TyddNJJHTp2AL3ZFsNBCNEqKqeU8rwgiELtP5WVOUtKSjS5giGEVKL26t0Lo+afd9k4WK1WyazNIhUAmH1rXa8DADhd5VqrPDHOmp+fB0bcLewT8Xorq7RrFlkcVxTF+x+4LyMjXc8WS5Z5F4WXXnz56NGjGGNNFh4p/N2QIlhJA0KAY6QKAGgkSHxuEvByaTn2i2/NmbIgf8bP9kvuwGYbEBUobY7A1bG+VkvdR9CocXsJKQVeJBXFkd1rAKr39FECANHd61XXURBEIxXuRMUWe2z/4J+KXTEwjtWmbZtnp03NzMyMRqOGcCyMcSAQWL16zXGvs1RLKBQuKi7WrDSSlVNO7SwIQrPYX9XuDwB4PG4A0JRuZiWfRdF03IsAcOTwYb/fryltSggRBbFHj+6N70CyIUkmTSJ9YINJwWa3Qx0pQuYy6tRhEI8wys8z0mXUWeZk9ZE0R7CAYoyHXXzRzbfcFAlrrrAE1bdNWVnZrJmzZVmmQFO5whTqQ4pg1Q+EYiGlBv5hfIxFYQ44HjDH9BdUjtKgj/jcxOcGAPGkHvZ/3pX98Hv5zy/NuHOO1OMcwNwxatXcs1RM6n7OKGzPBNVIV3dK1PCmpce9GNr4M1UVI2kQxjQcFE/pL7Tv3pLtrxoGxlhVyamnnvL0M0+aTCYddo71Nbthw0agdeSt3BUV7go3z2nIhVFKEUZdu3ZNvGMGwlnmQghpmOkQqKpqsVjsdlvNl9lkefToUU0EN542bdu2rYZOJxkYYx0id0KJI81R+3V2K5aWlrK6NxoaJEQySTm5uZq6UR+qy/WU6SuXrqpqdnY2AAwfMfzscwYFAgF9jdjt9mXLln/w/ocp14YUGoCGB+vfDIgqMpDjdxgdA6UAFGjsH6U0pqDieMSLSDDx2W24nDZCq05Cx16mLmcIrTsfiwyxZhkzayFAGCjh8ztKvQYHV32FrekNXXvjQSkSpciOVVSJIl5kbJIqcmT7ciQaa+COqCqbzxoOCAFRAbWYgdUIVqDw9DNOf3ziY09MnpJ4EItSKgjC4UOHvZXe9PT0uMqY/VBcXOzz+TQVeGYqlnbt2iXYMaPAhqi4pARpibwiQJTStDSHIAiUHktdVXtplmjthqIoGRkZ2VlZ0GLSpqw6pI4D09PToFYEizVVUlyidaumLMtZWVlZ2Zlg3MiUljp1iKjYRoTsnGye5xFCY3/abcAAACAASURBVMY+uGPHzlAopMMOnhBitVjffec//fr17d2nd7NY9qfQ8pEiWHUCAVG59FxsS69XzcPxiBcQJwAvII7H1nQuqxWXWcBl5HIZ+VxGHk7Pwxb7Hw5hlAW1JF5VE5QCAuvg0aHVXxvXJkGCJBfvkw9uEzv3o6qCeEE+tE0u2osEAw3cESgyl5FvGXAxQLPv4EoUrJDOhRddUFpa+uILL9lstkQ0PYwPeTyekpKS4wgWABQWFoXDYYfDUdutoE4wA3ebzZZpqKeRbrDL8fv9ZWVlvBaaCACEkOycHACglMTJGRuc8vIKTdbwTN/mSHNYrBZoMQRLlhWtLITVssyqRRPZOKsqKS8v17GFMC0tjbWZOGIuo2VlekJHCCilOTk5jGl1PLnjLbfcNHv2XLvd3sj7Pw5KKeZwKBSaMeP5115/xeFwNK9fSQotEymCVRc4jgQ86ddNtg67FVS5Lj6EEMbAnchMIRbWAsAotnmwJQNjACr1Hiy07SoX7zesgg3GNBKI7Fgpdu7HGgxv+YWGA8hhBqIY0D4AYEyCVdbTL+EyC4CQP2l+sCaYHuvGf99w5MiRBV8sbDwBqq+1YDDocrpq5vXYZHDkyBHQ6BRKKTFbzHabDVoAk2CzWllpqcvp0qpJJ4S0adMajvdoQADgcbuxxjLJlNK0tLR4lzQdmyQoiqw1y8zKwtRHhnw+X2VllQ5P2uzsLPbpGGXj7iwr09MUBYRQQUE+VN8AV/3rqmXLV6xbu85qtWpdxhBCLBbLzu07X5n36uMTH2sJesQUWhr+9FNREsELiBeQaEaCqdY/ETg+xq4YiyIqEBVUJfZDzIcdAeaA4wDhP4PsGoFKkGg2nzWcRoNG0hTMRfauBwDE8QAQ2bYcGWx/BYDAfBar7vxX0EMwk3dK6dhxY/r27aNPKVIThFCnywU1yASbDAqPFmnaQggAhBBBEEyS6cRvTT7Y5WzZss3v92vd2sbzfNt2bWq3pipKKBTWOlkyaqLpkOSBXUgwGGRK8EYexTiHKIq1E52sQZ+vyuv1at27RwjJyzeszDOzw3C73fqsTBBCrVoVQPXVCYIwbtwYHXWWGFRVtTvsX3359U8//pxybUihNlIEq34wlRXTodf+F5+UmBa+psgdc4DwnzJRxXZ3n3Mltmca5upOCeJN8uEdNBICzKmeUvnwdiRKdVSA1geEaDQsFJxs7jUYoKWXx2k8GMGyWq2PjH/YZrclKHinlFZ6K2v+ytwWnM4y7RNVC7qz2Zhs2LBRq98pqy7XsWNHqBWHi0Sj0ajmHWoIEG1h82sgEAyFQppSaaxooN1hr/OvLqdLa4OsGFRerjEEi6HSW+nxeHUIpygloigyRy6ojhN3PqXzjf++IRFjFIzx3DlziwqLUoL3FI7DX2Q2ShpQrGRN7X9/goiUdmAMlPAFHaVe5xnn6k6RIKhep+I6AgDyoW2q1wWccREszNFIUOo/DDHDixY0+ycKNgF06dLlrrvu1BSKqAs0GAwe95LH43G5yrW6NSIEiqLKUSO3muoDM1iqrKzctnWbyWRqfPyAVcLOy8tr06YN1CJYqqoqOuIZCAUCAW2HJBlerzcajWqKYKkKycrOqtMHCwCKiop15BwFgc/LN3ILocfrZUWltDpQqCqxWq1MPsiugvG/0deMPq3/afrixCxyWVpa9vzzsxVFoTTl2pDCMaQIVgp/BDXa1Z0CYJ4GK5WSAwAQ3b+JKlEj849ERSazZdAIwxpsSWBZm1FXjuzbt28oGNK3yGZJwJoqLjYHVJRXVGmX1GCMQ6GQPxAA42IS+sDOvuH3jcXFxYJJW00YWZY7duxgtVprC4MIoTrcIzFGXq+XZZqaf4alAAAup1OrMEhVlaysLMa5a6cIi4uLFY0mWIQQURDy8mOyp8Yf2ADKSks1EcdjnWEEK/OYwgwhBEBNJtO4h8YkYu9us9mW/bbsk48/TQWxUqiJFMFK4Y9gru69hwhtu9CIYaajVFWVssMAED2yA3C1q3viQJiGg2LHPqZOfVkhQmOa1QvD16/scc/z/IiRVxC9LVNKAUHtVGBZWZlWM2tKKcdxfr/fXVGhrzMGgvX8hx9+VBRF23oAAQD0O60v1MUROYy1Elk2LF5vpdfrZS9oOtxwsF0LTqeLqETDx4uAAs3NZTsr6/BoKC3VJi1naVaTJOVWZ+USRDXPK5G1Z8yZ1X5mZobN9of4HIsTd+3a9YYbr2MJUH0dM5vNb7359pbNW1JirBTiSBGsFI5DDVf3SMiYjBtCQInqLgYApXhfzBDLECBMlYjlzMsBc6A250ONUsqiBYbvJGINnnXWWa1aF+hbuDNYLJb4z2yiKitzRmXNDTLx1v79B/R1wyiw0d6/f//qVavNZrO2mjaKarfbTzvttDrfwPM8L2hLm9bwwiiF5g7sQfU943KVUwANYgYKCOq2XGe0w+V0YU5bhEZV1fT0NHtaGhgXwSotLSV6Q005OTksZFvzcJYovPa6a3v36a07UchxXCgUmjH9eZ/Pp8NiPoW/JFIEK4XaYK7uV3L2TGOcFCgFhEllOQ35VY8TGSbAQqDK2JFtHvhPAACN++qNAqWUZRYwxoWFRV6v19g4FntYp2ekdzn1VN0ECyPETATibQJAWVkZaJ/2WH+2btmq41jD8eknn1VWVmrKcrJtaN26dW1/0klMxXXcG0STyWQyafUUYJnTHTt2NP6Q5IFdVLnLxWnkQwij2jv+2M+RSISZYGnjsqqanpHu+KNdvm6w63I6nRhrVrgjhIhKsnNZzena8TlqNpvHjH3QbLHoM1yIuTbs3Pnaa2+kCFYKDCmClUItVEvdTb3OIyFDpO6UWVWpFUXE7wWOMyaChTEJB6TuZ/O57YGSpt8/GI9acRzn8XjefefdG669YeGCLw1/vLKMQ9t2bfVpRAAAYcxSPyyVFs/46CmlQojJJG7dtq2qqqq5JhJmnL1z587vv/vBYrHocDA6f8gQjju+Ui8bFoyRw+7Ql+VZv+53aG7eyT4RRVFcLmYKqmELoWSSsnOyoa5L8Hg8Pp+P0/g0UFU1K7MOUZcOsBYIpc4yF8/rCTIhjAry6y6JiDEmKunVq+d1112j2xWFibG++PyLlGtDCgwpgpVCXaiWuhuzWZICQpgEq+Syw6BEjWRClFrOHsl+MKzNxoFRK1ZKef7nX9x26x3zXn7V5/cvXvSdz+dPhtbVarHomKJYFMFiseSyYnAo9iIhhEUCtDZIKRUEsfBo4cYNG6E50mHsjJTSN19/KxAIaDUWV2QlJyfn7HPOAgBUK+rJKFdWdpZWnTvbTbZly5aSklI2vJoONxw+n8/r9WLMNfLzYX222qz1mWB53B6/36+pqhI7Ni/PSI+GgN/v8bh1RLAAAGNcUMBMsOr4K8KIUnrDjdf37NkjENDp2sCeCXNnv8BcG5r9NkiheZEiWCnUBYQBQOpzvtC2C42EEqVElCDRLB/dXfnBU4YZxCNE5TCf30Hq+494h5sGhBCWWlIU5dv/LbrrjrunPTe9uLDY4XDYbLb9+w/8/NPPkATmEQqH9bWpqmpGRkZ+tYE1a6Sqqsrr8WpNITGwHe+LF30HzRGtYeGrL+YvWL5shVYDboRQKBwaNOisgoICUpd1FqEEAAoK8gnVlidiNR+dTteSn5c0/qhkgH2g5a7yYDDIcRq+F6qq2mzWzMy6iyCVV1Ro1YCzm43lHBMXBcS2vla4fX6/DpdRSqkoiLHO1AXWW4vFMmbsgyaTqI8bEUJMJlNZWdmcOXNT7CqFFMFKoS4gJnU3WwYZ5OqOMQ375eJ9gA2qzoQwDQfNp12ALY4ms7+KUyuE0K+//HbP3fc9MfnJPXv22mw2QRRUVaWUchz+cuGXzLbKKI7FZrWiomIdgTGEkCzLbdu2SUtPhxoEy+P2VFZqduVmoJSazdLKlat27tjZxNEaohKO43Zs3zFv3quiSdRuNUklSbrsisvYb7XfwFKobdq00WoPBrEpXFi48MuqJpc515ZMucrLA4Fg4wk0kyhlZmWxcoq1UVpSovWDZtLvWATLoJ2VbneFv8qvxwRLUR3pjszMDKh/VcBiTn379b3m2tGBQABroadxqKpqtVl/WfLrRx9+jDFWm3XzTQrNixTBSqEeVLu6czaDXN0RRoLJsB3slCBRsgwaaUxrJzwbpSxwghBat3bd2DEPjX90wsYNG202qyRJjHgBACHEbDZv377j119+NWqKZdITX5Vv186dTHyt6XCWIuzWvRuq1nIxuN1uvz+gww4bqifOYDD4zjv/aUoaQQjBHHa5yp966plQMKiVA7GajGeeNbB37151ytsBYinUjid3tFgsOgoAm0ymA/sPzP9sflMSrDrlTWWlZbIcRVoiuypRc7KzGYmv3WBJSakOrZskSbl5uWBcpNPpdOnY+goAiqqkO9Lqi8/FwT64m26+sVv3brqd5yilZkvMtYHjUonCvy9SBCuFeoAwEMIXnGzqea5hru4GujNEgmKHnuIp/YEm1/4qrmTHGO/auWvS45PHPDBu2W/LRFFk8uraT0+E0Ecffsx2/CU+y7IWVq1adfRooaZ6xgyEELNZOv30Ace9XlbmVBSdknmo3jP169Jfv1v8PcY4kVrUjT8j822f9Pik/fv2m81m7QEVIoriDTdc38DnwgakTevWubm5iqLoMMQym80ff/TJwYOHmkaCw27OkpLSQLX1K7uEkpJSTd5gLILFysgc1+3qPadO0FImiYU2TZIU211hmMtomb6kNlFJVnaWJEkNd6a6RJXtwTH38zxPtFvOQg3XhlnPzw4EAqlNhX9bpAhWCvWDSd3PN87V3ShgTKMR88DLEMcbo+iqCzWp1aFDh6Y9N/3uu+9dtGgxx3PMAbzO6ZMFsbZt275o0XeJP1jZ4XJU/uzTz3WYbGGMo9FomzZtunXvBtXzCmvT6XTq3pMYhyAK815+5ciRIxzHJZVMqKqKMa70eic+Nmn9+t9tNptWSocxDgSC5553bu8+vesNX8XnV5v1lFM7R6NRrf1khlher3fm9OfD4XCyZ1Y2LL//vmH6tBnHZXtLS0sAaRACUkoRxizaVHNrS2zvHiHlrnKe4zVdjaqqGenp6enpGo45EUpLS+sUz50QhBImQzzhjcqY8YABA0Zf869AQI/eC6pXINu2bX/11dcRQjpqA6TwF0CKYKVQPzgMQKXeQ4S2pxogdTcMCBQZ2zMtAy8DSErp4ZrWVi6Xa97Lr9x+652ffzZfjsoOh70+alXzcEEQ/vPuf9wV7gTDGCxs8/77H2zcuFlHzIaZgg46+2x2LKquvwaxgESi5E8QBKfT+eSUp6uqqpIUsKGUqirhOK6oqHjsmIdWrVpjt9u1siuWJ7Xb7bfedvMJSQ/76+mnn66PfbKZdc3qNXNmza3JaI0Fuwk5jlu/bv3YB8cBBUmS2IlYjq/cVa41/IYxys/Pg7q+UqFwqLy8XJPLKEJIUZTcvFyz2QxGRLDi7qkYa6atjCPm5xdA4z4OdpPcfMtNXbqcqtvenbk2fP7p50t+XopTicK/JVrIlJlCywQCQpDJbD5rOI0YIXU3BBjTSMDU7Sy+4OQk2V8xa6vKysr/vvf+rTff/u47/wkGgw6Ho5GSVUqpKIqFRwvnznkh/orWPjCSx3Hcjz/8+PZb71gsmtkVxB7x9mHDLqz5YsytsaxMnwCrJgghVqt186bNT0yawtyDjM0VVtuM4bVr191/7wNbtmy12zXHrqBafXXV1Vd27tyZcdYG3swm8gED+mdnZ2utbRzvtt1hX7Bg4UsvzmNxR2MnV6LGAqsLv1j46CMTPB5Px5M7Qo3bLBgMuj0eTZ8vu2ljXh614HF7fb4qrY4Yqqrm5uQYcvkskKYoSnnM3Evz4RzHNb7mNCNYdrv9/gfuT9ByheO4F+a+WFpSmipT+DdEy5gyU2ixQDFXd2zPANUIqbsRoITE7K+SE3gPBAILF3x52y13vDj3JZfL5XA4OI5jmwQb2QIhxGazLVq0+J2332UPVk3PVjYhcRz3w/c/TH3mWR3JQaj2Fu/bt/cpp54ST4rFco6yXFbm5LAGF8r6wCJDy5ateHjcI06nk+UKDVGeMSYky/Lbb73z0NiHi4uLWTlerU2xcejateu/b7qxMXaXbHJt1bpVr149w+GIvtAL2/D/3v+999zU5yKRCKOeiQ9LbB8rh6uqqqZPmzFt2gxFUQRByMvLhRoEy+/3ezwatoiyTXbp6WmZ9ZhguVyuYDCkiSKwoWZZOcNMsAIBt9utY2FQkz428gNlH9mZZw286uor/X6/brW7yWQqKiqa9fwcdgOkONbfCimClUKDQBgoEVp1knqeS0KB5g9iIQRyhM9pZ+43FAAM7w+bv7/+6uuJj08qKiqy2W2CIOibGlmq6M033vrg/Q/Z9sPGkAOmmmfptrfeenvKE08riqp7rx/GeMSoEbWTYlVVPq/XizlsyNOe+SetW7f+nrvuXbN6Tfxi9c0lbARYhGbTxk333/vAa6++ziYq3dZEGOP7H7jXZrM1hmBBNSEYesFQTm/9JTaV2my2L75YOG7MQwf2H+A4jsVy9H2UNS1Cfvt12V133vPZp59LkoQx5nk+Py+vZs8ryitCoaAmgqWoSlpaWlZWVu1TA0C5y6UjU4ZQzNgzcb/i6m6UB/wBrW7ybNhFUczRWHOaEcpbb7ulc+fOjCVrOpyBrUCWLFny6SefpYJYfzc093yZQstHzNX9GgAwxtg9ESBMwgGp31Bsy0iG/RWbfXv06JGdncPzfILBGISQKIovvvDSrOdnh0IhNuGpqsqapdWO5Gz6ZIwEY4wx3rlj54MPjH3j1Td5ntPHrljYpk+f3mefPaimpjs2AVdUBIMaJuATguUKCwuLHhr36JzZc1nROjaxEfXEYxgfAdZzjPHRo0enT5vxwP1j/r+9+46zq6zzB/55nnN7md5SSAGSEKQESKgBAlKkSNHVhRVULICC4lpRcW2LHXdXEdvvt7/1t66uZYsri+hvdRVXpUsRgoohAZLJ9MzMvTO3nPM8vz+ec849t0wyd+bOTGbyeb8sNzNzzy2ZzPnM9/me7/PII4+mUqkZN3hZlpXJZP7iNX9x6mmnHnBx0Ge+Dc7YevrqNWvMSLMZPDTMWmE6/eADD914w1u/+Y//lMvlTEIyIXKab4sfN4UQTz311Ptv/eD73nPrn579U1NTGoDjONFotKu7G4HaTH//QD5X30WsjqPa2tpjscpNGM3tPXt6Z1A0CoWsqZq6Zqa/vz87ka13w2kAjuM0NTc117nntHkDm5ub3/b2m2ZTfPJ/19q+/RmOdz+kMGDRgQgJ6Ngmv9V9QTOW1iIcSW595Rwd3vyKecyxx2w64fiJiRlul+Ez56p4PP6tf/r2W99y8y9+fp8pR5mTpd9ybk6fJpH8/pnff+bTn3vrW26+/zf3J1PJGV+GprW2pPXa111bc1jU0OCQaZlq4O/TZoa1EPjmP/7Tm95w/d///T+88MILUkppSfNKTVZwXO6NYIAwge+p3z31uc/c8aY3XP+df/6eWWibccw16erU00694cY3T7N2ZZgMlEqlLn35JYVCYTbfBo7jJJKJTCb7N3f87Q1vvvHuH/6nWW8KJi3/3Qi+J/D2XZFSjo+P//y/f/6B93/wLTfc9JMf/yQcCcdiMdMOqJRKJBMdne7Snn+JaL1PWyllWpRqvtV7du+p61Wbl5ZMJtvaKktiM2OeVV9f/wwqSaae2jqjPadNHtp65tYrX3FFZkYT5OF1gGUnJj79qc9kMxlObTh0NGisNi1hZqp7NJ447fLRb39CxBJw7AV6JlLnJ8KrXxI96hSzgfRcPIi5OOvCCy/49f/8evZHMz9J0+n0U7976n3vvfX4Tcdv23b2iSedsHz5ing8ZlmWbduTk5N79ux54vEn77//gcd++9i+ffsSiUS9m8AEWZY1Pj5+3nkvPaO8fAW4PVcDAwPFYtG/7qxRzBNuamrq6+u78wt3fufb3zn5lJO3bj3j+OOP61nWs5/zYrFY3LXr+YcfevjXv/r1448/MT4+Ho/Hm5ubHOXM+E2QUuZyue7u7lvf/75IJDL98pVhzoJXXHn5D/79B3v29EYidU+N9ymlQiErnE5t3/7MRz/ysX/65hFnnnXm1q1nrFu/zlxhN5WBgYGnn3r6wQceevjhR3bu3GnbdiKRSKVSwcTp2E57W3s6nfafNoDe3l5Rz4wGIYTSTletTQOFuy/43nrLeO7GO+37m5w+ff7rmtndHcdpa22LRCvrc9N8aK31DTde/8jDj7zwwovRaGQGw7GUUslE4vHHHv/KV772rne/07+kl5Y2BiyaDgEgedarxu/+Mpzigi0UCqELucQplyIUhnLmaL6oOQ2fsfX0VatX7endEwnP/MzqM8OxtNaPPvLoQw8+lE6n2zva21rbwuFwoZAfHh4ZGh7OjI+bclc6feBJEPthLrZKp5ve+KY3mEJC2Y9yAQB9fX2zfEX74ThOOByORCKZTOY/7/7Pe390b3t7+5q1a9asWb1ixYr2jvZkIiktaReL4+OZgYGBF1548bnnnnt+1/Ojo6NSylgsZt6B2VyQaIoW4XD4rz582+rVq+pNV/BqMM3NzVdd/eef/tRnZzBDP8gsMJk4tWPHc8888/tv/dO3D1t12BFHHH7YqsN6urvT6aZwOOQ4KjuRHR4c2r2n9/nnn9+1c5eJwtFoNBqNmj0Dgt8Ypneqo6M9Ho9DQ7g7/cBsOF3X07Ok1V11CaGJI/l8fnh4pN7ijVKqubmlqamprnvtX29v78zKP1rr7h633X4GAUsp1draetPNN733PbfO+LvANGN977vf37xl89lnnzWD70ladBiwaBqkhFah5UfGjj1r4oG7ZbIFas4nd9egHJlqiZ92OTAn468M8/O0paXlrLPP+sY/fCMWjTVk9IA5LyYSCQg4ttO7p/fFF140P+4ty7IsyxQhZhOtDLOi9La337x+w/qpfoj39fVBz+E+zSZPWJbV1JTWGmNjY488/MiDDzwYWBWVWiu/Dy0UCkUikaamJq210jWG49fFPEo+n//AB99/yqmnOI6qa8/j4HG01i+/7OX33HPvU797yixWzuaJmbtHo9F4PO44zo4/7fj9M783DyQghBTBzjwpZSQSicVi/iJpzWChlDd+XSsp3GXHgf6Buk7eWuloNNrdU9bI5Rsfz4yMjNS1MZEJuJ2dHeFwuOYx62X+Lup9XcH7LlvWM+NHNwuF2845+7LLLv3Xf/m3puamGf9MEEJ87rN3rF+/ftmynhmkPVpcmKBpekyr+9lXLdgTkFLlMtGjTg2vXA+t52Hq6UUXXdjUNPOfpDWZpm8pRTgcjsfjiUQiHo+Hw+HpNz7vn5Qym81u3rL5mmv+ouaPb/ORwYH6hkbOjNbaNBSFQqFEItHUlE6lUqlUKplMJhLxZDKZSqXS6VS6KR2Px81V8UqpWQ6OMD1t2UzmhhvefOUrrnAcZ2bpCt6JOR6P33TzW8PhcKN6k/3iXDQaTafT6XQ6lUolU0mzLmzeoqamdDKZNJnmQNdjim4vOpgNlTOZzL59+6afh4QQSqtIJNLdXaOCBWBkZGR8fLyujj0vYNXYeGcGzHdyNpsdHq4v5/n3l1L29MxqYIT5ZnjrTW9Zs3bm1z2Yi2F3v7j783d8fj+hmZYMBiyaHiEBxE44N7xyoaa6CzgqsfVKAHO3PY5hziUbjtqw9cyt2ezEjM/QU9G6dIFYQ6ZGGUKKYrHY1NT0nve8q2a7ifnI5OTk0PCwZTVgCNY0eRcJqtqchr4JQoyPj7/29a990/Vvmv0qjLdryuZrrn3NjHucpxL8Hqh8S6b9ngiBHq93ynz92OjYvn11DMGCuciuacqL7Pr7+uptmTffad21mrpmbGx0bGSk7pVKAI5SsVjMpL0ZV4xMwGprb3vrTW+ZzS9dZqHwv3/28+9+53uc2rDkMWDR9AgBxxHRRGJBproLAbsQ6lwRO+kCAPMQ78wPvj+/6tWJRGI609sPBgKiWCze8o6372dxEGZa49CQZVlL7Ge7ueZubGzs6quvuuUdbzfn+EYtTl33htdv2bJlfHy8sRlrlrTW4XC4Yjfl/oEBcwHs9CtY5iI7v1M+eHwAe/f2mZ3L63pulmUtW96DRqwPBmeL1BtKhBBK62g02tnVMcsnY9L2eee/9KKLXzabtK21jsViX/3KV7c/vZ1TG5Y2BiyaNn+qe6p1vi8kFFJNZmObXmo1dczF+Ktq5uf4cccde845Z09MTMhGF7EazrKssdGx173u2ssuf/lU6cqcmYaHh7PZ2U6gONiYE+f4eOaaa1/z7ve+y7zShjS4+AuFH7jt1p5lPWaW1ewPO3tmWTmRSLR3lI1CePHFF+1ifTv8OI7T2tYWrap6Cnfbyr56r3ozHXhmVa5R+vr6i4XiDP5OleM0Nzc3ZM9p8+g3v+2mVYcdNpuFQsuyMpnspz/1mYmJiQO27ftV3kCB0/F79dyF9aq71Pw4zbOD4icFLQ5SQqvwinXRY89Uk5k5uohvClqEQu72OPP2kFoDeN11r21qanJs52BuR7VC1ujo6MsuftmNb73xgOfCwYFBM0xoySxPmNeSzU688U3Xvevd7zQfbODfl+kPW7NmzYc/8lfhcNi27YMkYzmOk0gk2tvKhmDt2b2nWOcWilrrmst5fsCqtwFLmSFY7W1oXAXLXFA5g6tBbdvu7u5KJhOzfBrwXlpnZ+eNN91o2/aML6c2788TTzz59a/+L3GgvRrNMLkgMzMP3q6p1e+J+ZqD5Lv0UMarCKkeWkMgdc7VuQfvmb8HFVLnJ8OHHRU9+vS5G39VzVTvjzzyyGtfe82dX/xSwxveG8XUrrads+2vPnybaQGe6pTmTqEcGMzn89Fo9OB8OfWyLJnPF6SU737vUKfsDwAAIABJREFUO6+++qoG1q7KH8VyHOfkk7d84IPv/+hHPmaWIxc8oTqO097elvLmZ5oTal9fn6xnhx+TzMzI9epPAeiv/9o927Y7OzsbUjRCIOdp4Tby13Vf23a6u7ultBoyGcH8WLjwZRf+8r7/+dE9P5rxjwXHcVKp1D//83dOOHHTWVNPbcjlcnff/Z+ZsXErFIpGI47jFG27kC+ccOKmk0466fHHn3ji8Sda21ovuOD8SCQCr/vt8ccef/zxJ7q6us6/4LyDalH7UMOARfWQ7lT30Mr19t6dIhLFPJxjpNSFyfjJl4hwFI6Defx5Yc4911z7mgfuf8Ds2XKwhRLLskZHR88868yP//VH4/H4/k8h7vmyrw8a89bhPqfMUktHR/sHPnirOUs1pO9qqsdSSl108cuKxcInbv+UZVlmM6W5eKzp8K/U84egenmo35J1bK9kRkKYGQ3Be5lT9cTExMjISP2XEKqmpiYzBKtRU0b7+vqlEPV+22poIVD96mb5fATwtrff/PhjTwwNDYbD4Zkd2fx4ueNzn9+wYUN3T3fFr0bmj4VC8b9/+vPBgUEIPPvsn5qbmw477LCRkeF4PH7SSSf9/Gc//9KX7kql08t6ek7afJLjOJZlFQqFz37mjt/8+jcnnLjpnHO3mb22DuYC/BLGEiLVRUCpUqv7/FxL6Ngy0ZQ4/QpgDsdf1WR+AkYikffe+p729vYZb/g6F/ye7osuetknP/UJM+B7Ok9v7969EKLeM8LB88IN83xGR8dOPPGEu758p18DmNMTialeXHb5Zbd96INSykKhsIDlASGEclRnVycC0SGXyw0ODNU1g0MpFYvFurtqD8EaHR0b3Tda78vUSi1b1jOzoaDVZjMEy8x7a2w3mFnU6+npfstNN9izaB4w7/yLL+7+27/5O+0JPgqApqb0l+764ne+/+2vfv0r7e1tl778km/84//59x/829VXXwUgHAmvXbt29apV99zzI/+Ojz7yaF9f35aTt0QiEeaqhXVw/dCkxUAASJz1Z+52y3NNSp3LRtZvDq/eCD1/64OBx5dKqSOOOOJDf/VBUzM4GKKGtKTjOJlM9trXXvvx2z+eTCZ0xZY4tXgVrP66lpCMycnc3BWH6mL6TnKTOdu2X/f6a79w598dfsTh8zYX23w/XPrySz79mU82Nzc3fHbD9GloIcWyZcsQCFgjIyPjmToudRRCKKVjsWhXdxfKA5Y55ui+febayXoqWHCUs3zFcjSiaGSOMD42bmZPzOCAlmV1d9eOjzNmvg0uvviic196zmyuLXUcJ51O/eQn/+973/3+VFcUamEKzqafXQOlrTRs245EIpe8/OL7fvHL/v5+8zR+8IMfbtx41FEbj5qYmDwY/sEeyhb+VEGLjGl1X74uNk+t7kI7duL0KwGxMOPjAxu+3vr+9xWLxYXNWCZeZDPZRCLxoQ9/8C/feYtlyeksAfjTGgfNjIZpr7WYi56OPfaYYtFe2JoNhNsLNTY2tm79us/d8dl3/OUtsVh03tKVYXreTz/j9C/e+XfHHXfc2NiYqSbO2xNwaUghly1fhkCH+76RfZnxjFXPv0qlnObmltbW2v1Se/v6isV6r90TQGXym6WxsbHR0boLaeY3okQi0d7e1pCnUXFwIcTb335zT0/PDMZY+JTSsVjsy3d9Zfv27WYZuvIrdOB/3bu4XyOlnJyc3LZtWyQS+fG9PzF1vgcfePDyKy6LRMJKKcarhcWARfXTGkBi21V1N0TUSwjYBattWXzLRQDm97rFMt7a0Mvf/4FbleMUi8UFyRlmc+ixsbETTzrxzi994YorLjfjKKf/w33fvn1Dg0OhUGiaf3VmNSQej3/89o999GMfbm9vHx0dXYA8ISAtqZUeGxuLxWI3vOX6r3ztrjO2nm5e/vyHG3MiXLd+3Z13feE11/xFoVCYnJz0r+2aH1rraCxasYHg0PBwLpeT1nTX5sxFdl1dnYlEArUqWL17eu06r0lUSkUi4eqS2My40+T37ZvBECzzZJKpVFtbY65nDDL/NFasXHHjW2+YTcDSWodCoUwm87nP3DGZy01nXdV/LCFEoVBYvnzZ1jO3/scPfiiE+MV990UikbPOPmtyYvJgqLUf4vgXQPUTEkB807mhlet1fnIO+6KEVLls7PhtVms3lJrnBqwKJmNdceXlt3/yr1OplFkbmp8TqhDCDOIaGxtLN6XffsvbvnTXFzcctcFx6ug68qY1DptnPt0TlYDjOC2tLc3NzRdceP5Xv/6Vy6+4zLZtc7abh5/gpmKnlR4fG7cs68orr/ja179yww3X+z1nC7UIYr4fEonEu979zs99/rMbNx41NjZmF+15+K4w74njOPF43AzBKk0Z7etXSk1/O3ZzkV1nV9dU61N79/Y5Tn1tRmZDmK7Ozunf5YD69vYV6xzuZTiO09yUbm5pbuCT8ZmMdemll2zbti2Tycz4n4OZ2vDoo499/atfn0HjmnLUFVdetnv37qefevpn//WzbdvODofDxWKRy4MLjgGL6icElCNiycRpl+v8xJwWloSwEltfAeiD4ao3cxI659xz7vzSFzZtOn50dNRctjN3J1RTK1JKjY9ltNZXvuLKr339q6+/7nVma7wZ7OHT19dXV0FCQDiO09bamkjEHUetXLniIx/98B2f/+xJm0/KZrMTExNCYC5Sjnnh5hf0sdExy7Iuv+Lyu77ypQ99+LYjjjxioQpXFUxBRSm1desZX/7qXe9811+2dbSNjo6ajWXm4m0xh1VKZTKZbDZ7+umn9fSU7Rnc39/vj7CfDgBSCrMRcsV53by9AwMDlhWCtyJ2QOY9SSQSjSoamWfV19/nOLZ5S6fPvFddXV3RaLQhT6aCEAIQUsq33XJze3v7bAakKaXS6dS3vvntX973y6nCbs3nb1nW5OTkxo0bjznmJbf/9Sd27tx16csvgff3NbMnQ42ymMc0CDFXJQ33yPzu3A93qvv4f34VdhFCNj4ACaELk+GV62LHnAWIhdj9sAbzs2/9hvVf+vKd3/iH//u9735/aGgokUiYK/YbeB24lEJr5PP5QqHQ2try0vPOfdWr/+yYY44BYIYR1Puj3D1R7a0vYJmH6+7uFkJI6R7ktNNPO+XUU376Xz/713/9t8cfezyfm4jGov6W1bruWUUu/7yotS4UCvl8IRSyVq1addbZZ1508UXr1h0JQCutsfDRymeesCllXXPtay582QX/8YMf/uiee3fu3AkgFouZyWQz39ZXQJixAALKURMTE47jtLa2nnb6qZdccvEZW8+oWKru7d1r2gSnOU9ESuk4qmdZjYvshBBK6d7eXkDbtj39Ncd8Pr98+fJUKjWdr5+mvb17C4WiGVA+/XtpjUKh0OHtOT0X3zZSCqXU6tWrbnzLDR/76MdTqdTMBqS5vzAIfP6Ov924cWNHZ0f10n/1tt9mkrujFICLLr7oPe9674UXXbjx6I3+p2b34mi2Fm3A0lrbhbka5+MenN+dU5MSWodXbois25x/4ucikYZqeMCSOj8R23KRiMahnAVswKpgMlY0Gr3+hjefd/553/3O937y45+MjIxEIpFIJGJZ0uzlXO+Oaf7/KqUKhUKhUAiFQqtXrzrn3HMuvPCCI448AjONVsGH6Ovrr/deSml/jJB5aHOuOv+C81563rmPPvrbH9/7k1//6tdmQ5VIJBIOh6WUQrgj0vbzPviv2rxdtm0Xi0XbtsPhcE9P9wknnLDtnG2bN5+UbkrDa+yVUoqD7zcfc07VWnd2dr7xTW/4s1e98lf/86v/+q+fPvrob8f2jQkpIpFIKBQyBZgDfm94bwu0hlKqUCwUi0WtdTKZ3LTp+K1bzzhj6xlHrjuy+jkAKBQKnZ2diURcTe/foxAikUisXr0a5QUS7e4LPlHI51taWyLTHvUkpZyYsFauXJFwJ6fP9i/LvK5MJtPa2pxKJesaPCYtS2u1atVhaFy7fTWTsK+48vKdO3f+4N//ozoGTZNSKhwO79q168Mf/ugnP/WJdDoVzFhCiFQ6FYtGg3eJRqPpdNpUss88a+vRxxx94YXnm3csnognU8lZvzialcbMKZlXSkHK4q6nB25/NazwnAQsGdLjQy2v+3jypdccVKf2g4jWEHD2DfS97zw1NgAr3PiJo0Jou9j9iXsjhx9v/tIbfPzZMadJ87PsuR0777nnnl/9z6927nw+l5u0pBWOhC0rZH7w7TdhwPwbdBzHxAutdTweX7Fi+THHHXvWmWduOXlzMpmseLjZeO+73/fTn/739E9UUsrx8fEPf+RDl19xuVkP9T8VLAkMDg4+cP+DDz308NNPP723d+/ExITJgpZlmSXU4IKFeS3+rmpKKSmtSCTc2tq6fPnyjUdvPGnziccdd1xbW6v/QDj4BnHVVPHXtGPHjgfuf/C3j/72D3/448DAQD6fdxxlWe42Jvt/W8zFm/F4vLOzY+3hh594wqYTTzppw1Hrzde7DyRkRYAZHh4pFutruBYQrW2toVCNX7YdxxkcHKxzmKrQWsVicf+vryGGhoby+byov1KutW5ubmnIPjnTsfvF3ZOTkzNPlRpCylwut3bNmkT5c1ZK9ff3x+Px5uZSP9nY2NhEdqKzq9P8wxwaGmpqagqHwwBGRkaKxWJnZxfXCRfQIgxYhnLUZGYOj6+1iMZFOHrgrzw0OQ4sa/zur4x87d2ypbPxez9LqSczkaNO6f743cCcrQXPWvDcPzEx8fRT2x95+JEnnnxy186dw8Mjk5OTwlvjCXbk+KdSeEMQmpqa2jvaDz987cajNx533LHr16/3V1gaEi/Mr8KO7bzhujdu3/6Mmfk+nTsKIWzb/vzffO7U006tXmTxizH+xzOZzPPPP//sH579044du3fvGegfGB3dl8vli3bRsR0AQgpLWuFwOBaLNbc0d3S0d3f3rFp92OFr1648bGV3d7d/KPMMF2MridZaKy1k6ZkPD488v2vXs8/+aceO5/b29g4MDI6OjRbyhWKx6L9My7LC4XA8Hm9tbeno7Fy+fPm6dUesWbNm+YrlwXPqIoqbh5q6ruelQ8GiXSKUlkzOyYUhNA0aUmq7mP35P4toHHOxW4iQ2i4kTrsCQs7z9jh1Mec5kzMSicTmLSdt3nISgKGh4R07duzauat3T29fX9/4+PjExKRtF5WjhCVDoVAsFkun0+1tbT3LupctW7Zm7ZoVK1bEYjH/yP55t4Gn0tGx0dGx0elfQmjWPmKxWM0eHQTSj5+0UqnU0UcfffTRR5svsG0nn8+Zl5/P5wUgLRmJRBOJRCqVikYj1dMu5uKFzzMhhLDc1V5T0Gpra21ra910wibzBbZt53K58fHM5MRE0bYBLYWMRKPJZCKVSkUikRpBVmkIHPDKzZn9wryfWDDj38AbGzVmWQiYn9wznfXfaar5t6yr9tms+Egw4VV/Mc2/RRuwgDnfBY/fmlNRCtKafOTHhR2Py2TzHMz/FLALVkt34pRLAKD+sePzzG/NNizLam9va29v27Jls/81pu9YKyWklJYVqhUZTVnLvwCqgc/Q/OTdN7JvfKy+i8kdx2lqamptPcAVYdVJS2tIKUIhKxRKmlXOqZ6YuYcQmIsXvrD81+K+SG2qsSIUCqVSqf20gfvfCfB7/61p/SuYmwvlFt5B8jQOaE4LrtVHrvhI8I+L5R1b2hZzwOI30EIRAlpl7v6ymKNzoZQqO5Y48QKrY8VB2H01lep+Gv8XSr8bKfj1/iKdDlxXP6fzS4eHh7PZrL838AEJIWzH7ujsmH4LS8UJxn+g4CNWnAYOhTNBXW/LPHwnENE8WMwBixaEciCtyYd/nHv6NzKRnrvta9zxV1otxmlt1bmhItMsSKmmr6/PdpxoPZMMHdvp6Gg3swZmkISCoaHe+y5hfFuIDgUMWFQXDQjYxbHvfkZIa05mfwqhC7nwsiPix59jdkiZg8dYAAt7KjWJau/ePlX/aByzUS4beImI6rL4agO0kJSClJn/+r/5Pzwk4knoOWhvl5bOZ+MnXyLiKSiHC8ENYbJRf19/vTlJCLGsZxlwMAzSJyJaTBiwaNqUgrTs3j+Nfvt2mUjPycWDABxbxtPJs189Jwc/VJnlyL6+/jp2ITR3FLK7pwuY6XR2IqJDFQMWTY9WALRdGL7rFiezb04miwKQUuey0Y2nhdccA62XzPrgwjKJqlgs9vf3haxQXTMa4ol4e0cHFnqJk4ho0WHAomnQChCQcvjL78g9ed/cjGYwhFZ2YttV3oNSw4yOjo6M7JP17A/tOE4ymezoaAcDFhFRnRiw6EAcx+zlPPzlW7I//aZsam/83HbDtLcvPzK++WUADpLdnZcAU7Lq7++fmMjWtUSoHJVuSre2NHLPEyKiQwTPYYcSreroVdYayoHWsCxnuHfwU6/J/Pj/yHTbXKUrAELqXDax7Wp3+gNLJg1iEtVA/0A2OzH92RBCCEc5He3tsXgMrGAREdWJYxoOJaYmpBWUAkT5jqTmD9r9HyEgJYQFIPuL74x++xN2/645rF2ZJ2AXrfZlqZdeA2imqwYyf9O9e/c6jlNHThJwHKejs9MMqWfAIiKqCwPWIUMpe3hPqLUHVgjTaMRRY0O5J3+R+ck3ck/eJyJRmWyZy3QFWJbK7kufd63VtszMMp3DxzrUCADo3dMrhJh+CVNAaK07OzsAKKU4WJyIqC4MWIcCDQjtFAf/+tVa6/Dqo0MdK62OFVZTu0ykRSyFUFhYEUDrYl5l9hV3/6G44/H8Mw/YAy8IYclks7tcOKccWyabUhe+wZ1lSo1jik979+5FPRt4ml2Ku3u6wfVBIqL6MWAdMoTQdqG454/FF5+BbZtFQCEEhIS03IqRU4TjaOVASBGNy2QLMPfRCoBlqbHh1AXXhVeuZ/mqsczqnm3bQ4PD9VahpJA9PT1z9MSIiJY2BqxDibBEJCEiMSBYytDQ3hTJUKRUrNBqPqKV4dgy3Zq+8hZ2X82RbDY7MjJS3yWESsXiMbNESERE9eJVhIcU7cYmx4ZyvP8oaA3o0mfNf+ZijmhNVkhlRlPnvia87HAoxekMc2F8bHx0dHT6FSwhhOM4LS0tbW0cgkVENBM8mdGCEgLFvNW2LH3ZzdAsXzWeKVkNDg7m83kp5fQrWLZtNzc3tbe3gQGLiKh+DFi0oKSlJsabXvEOq305NMtXjVcKWLl8XUOwlFIdHR2h0HS31iEioiCez2jhSKknM9ENW1IXvYnpak4NDAwU7WJdhSilVHd3N7yIRkREdWGTOy0orVqu/agIRaAcTLu+QtNnQlVfX78lLUx7sc/Uurq6u8CARUQ0IwxYtECskBodTF18ffTYMzmaYe6YRPXC8y8W7WKxWFRqWlto27atlOrq6prjZ0dEtGQxYNFCkFLnspG1x7Rc+xEuDs4pIYRSWmu1fPmyWDyupxewACilV69ZDXa4ExHNCAMWzT8BpQG03vi3MpGGUpA8hc8hIfDx2z+mlBIQ0x/kLoRIJpPwlguJiKguDFg07yxLjQ60XHd79KhTuDg4D/yoRERE84YBi+aXFVajA6nzX990xS1MV/NmZo3qXBwkIpoxBiyaR1ZYjQ/Fjj2z9frPsfVqPjEqERHNM57haL5YIZ3dF1lzTPu7/t7dD5FnfSIiWqIYsGheWGGV2Rdaub7zg9+1WntYviIioqWNJzmae1ZIjQ1FVh/dedv3rI4VUA7TFRERLW3swaK5JCU01OhA/JRL2992l0y3sbGdiIgOBQxYNGeskM5PwC42vfKdLdd+BEJCK6YrIiI6FDBg0RyQFpSjRgfDK9e3XPeJ+OYLoTX7roiIljDt/ncKAofaZU0MWNRQ0oLWKjsqo/H0JTc0X3WrbOrwNnJmuiIiWiK0hvYm7AlASiHMrakpXRrJJ8XSnx/DgEWNICSkhFNUmX0iFI6ffHHzq94TOWITADZdEREtGSYkSSmEqAxIeduxHa00lFLaLWcJKYWUwhKIhCxLVlaxHKUFIOTSTFoMWDRTQkAICAnl6MKkLkzKVFvyrD9LXXBd9CVnAHCvFmS6IiJa/BylLSmkcEPSwHh+V//4H3vH9u6b6Bud6B/NjWQm87ZSGo7jKEeZLU2lFCEppUA6Hu5qjnc1x3taEmu7m9Yta1nWlgx5G9E6Skux1CpaDFiHEiFhhSAtaAWtD7RgXn13AQg3V2kNu6iLOW0XRCQeXrEuduL5yXOuDq/cALi1Y0YrIqIlQGkthbCkAPD4rpFf/6HvseeG/tg7OpbNTxZtIbTWCAlhWUIKAFr4C4daa62hoYXePaR/t9NdJLSkSMcjqzrSx6/tOGPj8i3rumNhC16GW8iX2lBiZpuU0aKiAaHtQu9NJxVf/IOIxoW0YIWFZblLe0ICunbWMlnKBDLl6GJBOzaUg1DIau4Mr9wQ3XBybNO5kfWbRTgKAEoBgGS7FRHRUmDSlQbufWz39+9/7omdQ5OFYkiKaEhaljCnCJMktDmPaADKO3doQEBoaAitzW/oALTSjlIF2ynajiXlET0tF29e+6oz1jcnI0rrJVPJYsA6ZGid+90vi889UXx+e7F3hxodUJl9Oj+hC3ntFKZsTTSL7ZGYCEVkoslqXx7qXh1asS6y5tjIkSdYbctKX6kcd8WQiIiWBKW0lGL77tE7fvi7B//YZ0nEI5YUwhSmTD3KJCcA7sKIqV+5t+GukygNeH/UgElRQgtAK+RtO1dwVnc3X3/hsVeceqS59xIIWQxYhyg1mdGT485InzM6oMaG1L4BNTGq7aK2C9BKROIiGhfhmIynZXOH1dwhmzqspnbZ1F52FFPcAiDkUvjXQEREHpOufvq73tv++ZGJXCEdD2kNpbQEIKG1dpSeWbqquIsQQgrk8/Zkwf6zM4+67dWnhkNyCWQsBqxDiXLc3wtm0x2lHPdfDkMVEdESZVYG73928Ob/9WsJHQkLc8UftM4VHVspKUU8ZHmrg1XpCt4fD5SuALg1LSksicHRyUtPXvfJ159pyerrFBcZNrkfSoK5Snv/EuD/qlGL/ym/w52t60RES5oGpBCZXPH2f31MKycStUy6sm1lK71xZWt7OjY4ltv+4nDIQkgKbygDvB4sP12Z24DfnjVFuoKA1sq20ZmO//CBP6zqTL/9shOV1ot6OikD1qHK/F6wqH87ICKiOaCUtqT40WO7n9s72poK244WGrajmpLR915x/LnHLA9J4Sj9syf3fPJfHxmfKIQsoTHN2pWftMrSlf9xW6m2dPQff/bkBSeuOWplm1mmXJA3YfbYkkxEREQl5lfvh54dlBJKuWsdjsbHrtp8wXErLAGttRQ4//gVH7v6ZEdrc52g1z1Ss3blrwzuL11BaA0tBSZyhX/5n2dQ3yShgw4DFhEREZWYhbmJfFEC0FoKkS3YW47sPH19l60UhDBz3G2lth7Vs/nIromcLUVFV7ueTt9VjZoWtHIQC1sP/qE3X3Qsd/1xUWLAIiIioiANQEqYy+CEgOOonpa41tq/uEkAEkJrvbItaTtKePeqtTJoPjmtdAUFQFuWGMvmhscn/SezGDFgERERURVvILuCFkKMThSEELr880KIkWxeCm98+5R9V9NOV8ItdymlHFXvfiMHFwYsIiIiqk1DK0cnItaDf+zb0T9uSWE7ylHadpQlxZ/2jj3wh72JWEipaU5k0OXpyr/s0K1dmZtQWnib8yzWFncGLCIiIqomBDS0VoDWlhQT+eJt33pwR/94yJKWFCFLPtc/ftu3HpjMFywh3H3SDtx3VTW1wfzRpCv/Lu5XL24c00BERETVtDugSkBpFQ9b218YesMXf3bmS5Z3pKJDmfx9T+0ezebikZByppmu9rsy6D2mu33h4seARURERNWE8ItJGkrreMSaKBT+7Td/1ApCIBGz4hFrtulKl6crDUjtTnlY5BiwiIiIqJp2l/CUG4mUFpYQzfGIiUpKaeXUvGbQ72p3DxNIVwImnZlPKAHhhSm/hcuNXou+iMWARURERJWkEFKYTm0Bqd3sY6a1m/ENgJCmV0tDCwg/Xbl3Ubp6hrvyxmWZMpWXrnRZUNNLYptkBiwiIiKqlC/a2VxRAEorQASW/PxZ7VNPE4WWUkRDVtXKoDm2CWSBdBVofve+cNFHLAYsIiIiqrR+WfNotjsRtZTJUm7gCfZOVS/kuWFLSpHJFXf0joip+q78/FTeqqW1hhBLIF2BAYuIiOgQpHUpNNX6rH7HpcfN9MhaCPHYcwNv/LsfRUJSK+GtDJbqWzUb4bXWWkD607BKz26q56m9rq+DceYUAxYREdGhQmmtNSwphHD3HGw4IQSAkJRAsMMdpdqVcJ8KUGqEN+lKuI3wuvRlpS+q8VClI0MfbDGLAYuIiGjpM43jUrihZGAsl83bwstDNb7e/5/yDwH+tX46cNVf4KuUllK8ODQuUJ6ulAACpSyUd7W76SrwMOZr1CQGvgA1Dq+2VVqglClED0PiZMTWeZc7HkQZiwGLiIhoiVNKSykAbN8zeu9jLz62Y3D3cDZXsL3m8ppDqsqHqpfarYIxqPwugWsGtdYhEZjgrkXlYaeqXZUVpQBtY/x+FIeAEERgAIS7644D+Q9InoDO1yJ+TLCRfsExYBERES1lJl3tGsh88UdP//KZ3uxkIWzJcEgKAa21KNu+RtdOV+aCP3MJYY15V9XTRAWgRal2hSmvGQzWrkyrlv9kDCEgE5A5yBC0ggKkABSUmSGhoRRGf43Mw+h6PTpeCyh/C56FxYBFRES0ZDlaW1Lc+9juT/77Y8Pjk+loqCUR0W4zlhZCiGCgkXCjiR+hzMAEE2UAk5wgzdfAHZElpFtPkgJCQ8tAvSuwizP8visNCChoBNNVcDBp4C4meEFBOW6A096UB3/+lpWCUtjzJTij6H6bnwfn8n09MAYsIiKipclR2pLi+/fv/Ph1NNS/AAAWOUlEQVT3fxsNi+Z4xFHa0Vqba/3MXoOovJqvcsVwP/OuzF2ULt1FmTw09S7O3u2qdOUvRNbo63KPLwKP66craCgHArBasPebsFrQca1Xx1pIB1E7GBERETWK0tqS4r7tfX/9L79NRGVYCscx5SDtp6uqZb5AVEJ5ulJTpKvgXXR593pFuppyZTB4KNRIV8G2dy3KZseb3nn3sAoyjd6vY/JJQGKhdzRkwCIiIlpqlNYCom809/Hv/zZsQQJKaQh3+pXQNbvaAxkIZjlPTx2VAtOqKupbps6kAFF9l+p0pcvSlSgvd8F9Xt7TM6FKlacr7T1DBSGhHOz5ImCzgkVERESNJwTu+vH23pFMLGQpZVYDtZ4qXbmRyPt4aUjV/tPVgVYPq+5Sla6qv0bX2uk5EP5UdbryVhW1A5lA5gns+xkgoJ05eF+niwGLiIhoSVFaSyF+v2fs3t++0BQL2zXSFcrTVVUhCqL0x+nXrvyv8U2ZrkSgq10HbgfqVYGjeH9SVaHKXLGo3MYtM6FUSwz+C+BALGTIYcAiIiJaWjQAfPf+Hdl8QbpzrirS1X4LUUBp3W3Ku5RPbUDga1Cx6uc+paqJDBVfEzyUeQ7+Pb1XpQJPTGiIwOgs91WYbXlimNiOid9700cXBgMWERHR0qG1llIMZ/K/fKo3EbaUNl3tmF5Xe3m6wn7uUp6uRDBdwfuy6a0MouJQWmuEQ6FoOATUilmluwg3qPnHdKdFWHAmMPbL0itaCAxYRERES4fpnnrw2YG9I9lwWLoxqXbfVWCZD5WbAwai0n4XE8umJ6BWutIH6Lsq1Z/M/AUopeIRKxkLAYB2AOWmKxFYW9TeHtJuEUuUFbF0GJmH3bb3BcKARUREtNQ89OygMomjbCJDMCqVj1fw05XeT/t51WJi9UWCVXeZRld74LCABApFe/3Kjmg4rADhDMHJAJZXsvJXBlUgZonSy9EaSkFGkHsBxcHaU7XmBQMWERHR0iGlKNjq6ReHw5ZUauprBoO1Kz3rdOWHmP2lq+qudlGRrqA0BBRw8lGHuR+yB6GygQKVDpSs/Jily4tYgJAojGDiGQDu4NN5x4BFRES0RGitBTAwlnthMBO2vPyB/S7zlfaV2f81g1WN8AikK3MXtf90Vd357k9kcO8ihCjaTndr6pxNawEtAeSehXLKa1f+qqLyYlZgb0T3hoS2Ueydw/f6QBiwiIiIlgiTVvpGJycLthTwk06pyBTMNIG+cuyvq71WuqrZ1Y6pJjKUX1dY8Uzc/XYArUMhOTaRf815mzpbko7SAkDmYXd9UAQO5aYr87jKm4/lpSszIhUa+b1z9UZPAwMWERHREmESy/MDmVzBtqQoWxksa0UPrgx6+SbY1Y79rgwG9wQ8cFe7qlwZ9DOcCDwKdDgsB0ezZx9/+LXnnaCUklIg/ydkfwcRc6e3u0EtUMRSyr3MULmt74GYJVDcZ17JHL/rtTFgERERLSkDYzm3hDNV35U+0Kx2TJ2uUB6nUJ2uMHVXe+DRvb4roWEJIQQGRydOPXr1p998YTRsCbPF4NC/wc5CyLIGLOUXsXQgXQFCezHLu+pwgdrbjdACPjYRERE13OhE/gDpyq1RoXa6mqJ2JYSASU4QEOWTEaQ7QEELQEKaLigEyl1mNLx7SZ+GEEIAEFrporIn83Y8Gr7uZZtveeXpsXBIK1vIECafwsiPYCXN/tRVS4TeQqfyno9/w6/ALWS+YsAiIiJaWiYLtlseCna1m1v1pysBSAEthKNUseg4tnLrTsEWLm3aroBg7QpVrVq6NC9Uaa2VDlmyszV14ZbDrjrnuGPXdgNw05Uaxe5PQ9mQ0cA0UeVde6gC7VbBdKVKsbL0qhcGAxYREdGSMlkoBkJGeUXHzz2VXe1VgUwA0JYQtq3G80VLiuZkdGVHU3s6Ho1YAl6Dl3sH09Uu3MZ65YU275PebTeQSSHSsUhPe/rYNV0vWdPd0ZwAoJQthBQyBHsQz9+GyR2QSSinbFY7BFSgq71GuvJv6NIi5kJgwCIiIlpSbNvb6Q9TzLuqrF1VpCs3dUkhxiYKzcnoZSesfenxqzauam9Px6Nhq+FPWCkNKaQMAUDmV+i9E7kXSukKolS7Ul7LfGlBsDpdCYBLhERERNRgXlRSFfsoi6qJDLVXBoXQWiMzWbho8+E3Xrzp8J4W/8gNXHkzx5GAlALFvZh8Avv+H8YfhBZl6UoFa1emq12V0pX2+q4qalfa37hnYTBgERERLSkhy9rfvCu/IwpTd7Ur5IvOu195ymvPfQkApRwNKaUAhHCGRXEnii+g0A+V9x7TO4KpmOlAbay0Plj2f94zcYACcntQ2IniKJSGlYBAebrSbroyaqQrHUhXwSEUCzPD3WDAIiIiWlJikdA0+q4qxyv4i4lSiPHJwvtedeo15xztKC2gpLQAjYnfIPMz5J6CPQJV9O4VWJ4zgcYPcP4kCFXRgxXofNcABIQEIkASlnKbq/x0BV1Wu9LTSFf+EiErWERERNQosbDU8PeTATCdnXBKXe1jE4VLthxxzTlHO0pJASEsFP6I4a8h+ySgISLQMch46YBA7RuWF90slOUt/6FLkciEKgfwRp766UqIQD5T7vOsna4EhHLrZ97YiAXEgEVERLSkpGNhAG5qQV0TGUTRdtrS8XdcscUs9QlhYfIX6P8b2DnIJKCgNISpM4nSFHiTbPxIpN2PlrZhVl42Ul42qrzhHUGUpyvT9CVMujKhSpViWUUDFgRUsG63kAmLk9yJiIiWlLZ0rLJ2tb90VapvSSCbK1526rqe1oRSjpQWJu9H36fhaMgktO0FID9daS9d+SuDJlSVpyt//bGy8qTLqlkqsGVh6VDBI+ipD6UAeOFPlNXqFggDFhER0ZKyrDURtoS7Snjgrna/8x1K60QscuGJa7TWQkg4Qxj8IhwLwgJsN9CUpSu/78ob/qm9TQbLspF/w7tjWTbynmRg1+da6Qo10hWC6Qrl1S8g3Ar3dS4ABiwiIqIlwjSCr2hLxSJhpZVbYfK7vafoajdJSwjkbXt1V3r9ilYhIITA2HdR6IeMAo7ZG9ALVYF0JarTVWALHXeXG1Fa4PPzmQlJCK42Cq/SJqB0+RFQnsYqol6tzi2tEF22EH8JLgYsIiKiJcLkqLZ0NJ0IO44Wbu3KVHqq05X20xUEpEChaB91WEckZCkthNqHzK8g4oDtFYeUm66EF7MEoPx0VV15Ms1SgXSlA9Uv7eUztwxW3XcVPIKuPIJ7wwuRpesWTT5zICKIrQ68K/ONAYuIiGiJEEJorVuT0Q3LW/IFR/izNssGRJX1XQVmVmmtsKwlCTNyIf97FAchLO8iPi/iCD/QBEKSRlURS7vZCCoQ5srX9Uz1C94dxTTyWWXflfCiXqD6pQFVRKQDiY3mTZn3vweAAYuIiGgpMXFo48o2pZXY/zRRv+bkfY0QWN6Rcg+UexrKdlflTJbSpW4t7yNTLBHCv6Gg4G3MHEhXZiBWxR1r9MXXSlfuc/D6rtyEF6x+AbqA5AaEWgLro/ONAYuIiGjpMGni5PU94ZCltC6vXVX2XZXCkPm4QDTkbTWoRkrlLy1KJSsdyFvuymBVulIV6UqVOre0V6xy7zhVO3ywcwuV6UpoN9iJipYvc0cJbaN5KwDoBRvmzoBFRES0dAgpAByzqm1tT3OhYAvsr++qRm8WvEJXcdLMrYLya1d+NvJv1LpmMJiugMrOrbIjBCpqlYdCad4VyhvkvaO64am698spINKJtnPM2zGfb34QAxYREdHSIQCldDwSOve4w3IFR8qpalcIfNzvsgrONFCBEQ8V6UrtLyQhkK5K7fCBGzXu6IekYFqC+6zcKwQrLmD0H7GifibhZNF2LsJd7jiuBcKARUREtLQIALjilCNa0zHb8Qedo2bfFYR3h+rhnBrexn/BdT1vea7i4kF4N4TXPiUCffG6Ol2JWqHKq375vV8mI5UdCl67lai8o9ZQRURasfz17tcsHAYsIiKiJUUKoZRe2Z66/JQjxycLISkOvDJo5k4F6lcA3F7ystqVvxFNeftUqe/K7M9zwLVFTD2YVLmhyu2L926UDoVA7ap8dRIWnHGseD2ih3m1tAXDgEVERLTUCCG0xhsvOGZVZ9NkwZYStWpX/sqgBqrSiPYGo1dmo6oFvprpqvba4lTpqnxl0I1Zgb74ykPVuqOw4IygbRt6XgetFrD7ymDAIiIiWmqEgIZuS8U+dNVpjtZKaQlRfs2gV6zym6X8EpfLr3hVN2DBC14CQGW6Eqp06WKNdOXnM7/yVH49o79EWLsvvjrhmWBoobgP6WNx5O0QoYVdHDQYsIiIiJYgKYSj9Bkbl3/gVadmJouOdizpN4/rUt+VaWxyq1qleOV+NrjAVwpVAsos41UNvnLTlShPQhX5rGaoqhjuUN65pSoOBXetUErAgnJgD6N9K466C6HW0qtbUKGFfgJEREQ0JywplNKvPnNDNGx98ru/GZ/IJaMRaZk1On9kKNzk5Ja4AtxQpUqbKJvPK1WqXaF8tLqbrkznlvA66M0dpbdy53/E1NJk4IaCloEiFiABLd1p72bx0az9aQdQsAtQeUQ6serNWHYdYAHqICkeMWAREREtWVIKpfTlpx65fkXbF//jkQd+/2JushiSMiQF4Hesaw1ISxWLtqq5ROimK+3VruB1blXsYBNIV8oG8t5W0xrwZswLBIKa9xF/1dJfr9Reiz289nZ4FTUIKAdWFKE4okeg5Ux0vBzRFe6zOjjSFRiwiIiIljaTsTYe1nbXTec/9lz/L554/nfP9e8ZHi9dM6i1BiyJZDQcj/jBoOoaQD9dBUerl90AhAIk1ARatqH1UmhnytU6Ny15j1VxAWPwk2WfEtAOtINQEyJdiK7w1jr92tjBggGLiIhoiZNSKK0FxKa1XZvWdgHIFezqTiWtdSRsAdoSXquTWSKE14CF8oJT2Q1viRACuojoCqROmY/Xph0IueDXDFZjwCIiIlr6pBAAlNZaw5IiFtlPAAhUjKprV2XretV9V94gBlVVkaqb9kax1zyUcLuyhFXrswuPAYuIiOhQIYUojW1H5eJb5fBzpWGZ9ilvNIO5eHDKrnbtjnsQMWQeQO8olF3aMdp9xGB6Cz4D75pB9xNhLH8LQm0HVVtVXRiwiIiIDjmi7P8qPgogMOtABbNRza72wJB3E8JkCBPPIbM9cMfgjcA+g8EbbguX6WGPo+e1QFsjX/P8YsAiIiKiat4uOvBGq2tM0d7uZSPtX/EnIMKwIqUjlA7ltXD56ap0zaD7AJAOrPgiLVz5GLCIiIioFtPn7qar6msGy5cIzdebVUbl3zCdW4F8pgKxDBLQUKosnwlAKyinYujposOARURERNW0d0mg444MrVm7gpeulHDHge4nXfl3hIAqQOegBWQcwiqbuVW97fQixIBFREREtZQiEWoUsaBLtSslvPapYEgKpqtgGQxQWcRWIbkBqoDxx1AYgUwCDuC3fPkZ66DY92YGGLCIiIioFneJsHrelQa0F6rK05U/McvdyNlcdYiydKULWHE9uq6GTAFA4UU8/3kM/wJWEsop7eK8yC3uDjIiIiKaK24JSVct8Pk3AOX+t9SAFUxXbjO78q4xlLCz6Holet4MmYJW0A4iK3H4p5DeAGfSnRJR2pF6EWPAIiIioirazL7y2qdKc6q0F6rMDZOl4IWq8nTlfsSf+OAgnELnqwHlTWC3oIuQEXRcCZ0DRGAL6sWNAYuIiIhqKWUjDWXmkHo3ADdvuZWtinSly/uu4OUzG6FmhFqA4OY2EtAIdQKhwL7Oi77PnQGLiIiIArQCgHBbaacaJSD8dKUgAC2g1dS1K1128WCp6CVhZ+Bkvf0N3ccDBJxRaLv0Aa3cp7FoMWARERFRgGmESmyGlKV1QH+J0E1X1SUrXXXNINxFRuUVsRBCcRhDd0NIaEA70A5ECAAG74YIAdqtXckQZMw8m4V6G2aJAYuIiIiCBKCR2oLYGjg5COnWrtyNnP1xoNW1K29lEOVri/5Vh3BgJbHnGxj6D7cBS1hQWey8HfsegkxAO4CALiC2EuGuRb1KKPTivxKSiIiIGkkrCInxX2DXB73L/cwSIbwiFqaMWVBQKN0AqtYWHegCmjYhsQEqh7HfIrsDVhLagQZEGPYQ1n8SHZdDOxDWwr4TM8aARURERNUUINH/Vez937BaIcyeNjrQgBVIV9BQ1emqvC++FLMEtICTBWxoQERgxdy9cWQYhQF0vgzr7gBEoBF+8WHAIiIioppMxvoa+r8BHYaIAo7bgT5lA5bw+q68tUKF0ugs7RWxoAHpDbvSgIKWgIK9D61bse5zCDUBWLwNWGDAIiIioqkpQGL85+j9MiZ3QsSBMKTZj7k8ZpkiFuCNa0dZ7UoHW7hUoGFLAoCyoSZgRdHz51j5dsjI4t0hx8eARURERPuhAAlnDCP/juF7MLkLWgNhyDAgvT1tlHcjkK78/ZtLffHCG0wq3EsIVQ6qiHALWk/HsmuRPM49yCJPV2DAIiIiogNR7tgBlcX4/Ri9D9mnUOyHPQEAkIAFWBCAloCAUJUlK5PAlAPhQNnQDmQU4SbEj0TzaWg7F7G1gLf4uPjTFRiwiIiIaBo0tCpd0+dkUHgB2cdR6MXkLhQH4GSgcnAK0EVvDrsGJBQgJWQEiCCUQKgV0VWIdiH5EsSPQGS5d3xzweEi7mqvwIBFRERE06Tdxb6KJKSLcCaAPFQBTh5woB3AtFiFICOQEYgwZMIbHxo8oKlaLZ1oZTBgERERUb20N3XdpKjpL+p5s9rrvuMiw4BFREREs6SnuO0TVTeWuNBCPwEiIiJa7MQUtw9dS23Jk4iIiGjBMWARERERNRgDFhEREVGDMWARERERNRgDFhEREVGDMWARERERNRgDFhEREVGDMWARERERNRgDFhEREVGDMWARERERNRgDFhEREVGDMWARERERNRgDFhEREVGDMWARERERNRgDFhEREVGDMWARERERNRgDFhEREVGDMWARERERNRgDFhEREVGDMWARERERNRgDFhEREVGDMWARERERNRgDFhEREVGDMWARERERNRgDFhEREVGDMWARERERNRgDFhEREVGDMWARERERNRgDFhEREVGDMWARERERNRgDFhEREVGDMWARERERNRgDFhEREVGDMWARERERNRgDFhEREVGDMWARERERNRgDFhEREVGDMWARERERNRgDFhEREVGDMWARERERNRgDFhEREVGDMWARERERNRgDFhEREVGDMWARERERNRgDFhEREVGDMWARERERNRgDFhEREVGDMWARERERNRgDFhEREVGDMWARERERNRgDFhEREVGDMWARERERNRgDFhEREVGDMWARERERNRgDFhEREVGDMWARERERNRgDFhEREVGDMWARERERNRgDFhEREVGDMWARERERNRgDFhEREVGDMWARERERNRgDFhEREVGDMWARERERNRgDFhEREVGDMWARERERNRgDFhEREVGDMWARERERNRgDFhEREVGDMWARERERNRgDFhEREVGDMWARERERNRgDFhEREVGD/X+QcUIVRUuFWQAAAABJRU5ErkJggg==;" vertex="1" parent="1">
          <mxGeometry x="280" y="190" width="270" height="152.14" as="geometry" />
        </mxCell>
        <mxCell id="4u2H8YLl8aJc4Wc5pVix-3" value="" style="shape=image;verticalLabelPosition=bottom;labelBackgroundColor=default;verticalAlign=top;aspect=fixed;imageAspect=0;image=data:image/png,iVBORw0KGgoAAAANSUhEUgAAAmIAAAEYCAYAAAD/B5rcAAAACXBIWXMAAAsTAAALEwEAmpwYAAAgAElEQVR4nOzdeXxddZ34/9fnnLslN/uem7ZJ90L3lgKlYitIQUD9yriOy7SAMMqqjjqjo+L4c8bRUSQKOrhQlUERlH0pyN5SaOne0n1JlyRNsy/35i7nfH5/nATb3HPTNM1a3s/HI4/C+Zx77zm3ae4778/78/6AEEIIIYQQQgghhBBCCCGEEEIIIYQQQgghhBBCCCGEEEIIIYQQQgghhBBCCCGEEEIIIYQQQgghhBBCCCGEEEIIIYQQQgghhBBCCCGEEEIIIYQQQgghhBBCCCGEEEIIIYQQQgghhBBCCCGEEEIIIYQQQgghhBBCCCGEEEIIIYQQQgghhBBCCCGEEEIIIYQQQgghhBBCCCGEEEIIIYQQQgghhBBCCCGEEEIIIYQQQgghhBBCCCGEEEIIIYQQQgghhBBCCCGEEEIIIYQQQgghhBBCCCGEEEIIIYQQQgjRgxruCxAjjg/IArKBPCAElAP5QMYJX5ld53b2+IoCzcB+4CBQBzR1HYsCesjuRAghhBjhJBB79/IAJcBEYFrXn+cAZUABTuCVPgCvEwcagPqur63Apq6v/TgBmhBCCPGuJIHY8FA4WaVcnMxTOuAHvCf82Qm0AhEg1vVnE9BC/7JKacB0YCEwu+trEpBzBvdxJmzgMLAH2AisAt7AyaAJIYQQ7wojJRALAKX8PUNThBMgFOJkZ4I4AUoAJ5OTwJnmigEdQC1OtqUJOA4c6/rvNqCm68/hkgaMB6YCM7u+ynHur/vL28vjbZz7DOPcUxPOPVXhZJTexpkCPNx1TjcDmABcCCwBFuEEXp6BuKlBcgx4E3gKeBY4NLyXI4QQQgyu4QjEFDAWOBdYAJyPEyAU42SHjAF6nQROFqkeJ1B5G9gL7ML5gD/K4E2LjcEJgJYCFwMVOEHkYOkAqnGm/V7ByaZ9ArgAJ4gdjVqAl4A/AU8zvMG0EEIIMSiGKhAzcAKvy4GrcKbF8obotd1EcLIvO4F1XV9v42SZEv18ziyc+/ssTvZpOO/vbLMP+D1wP04WUAghhDgrDHYgVgJ8EvgYMI/BzQqdqVZgN7AZp17pdZwAwDrF4yYA1wMfx5lWHdW8Xi+ZmZnk5ubaubm5RnFxMTk5OYnMzMxEMBg0fD6f1+/3K6018Xhca63jlmXFE4lEIhKJxA8fPhw+fPhwIB6Pe2praxPNzc1ptm2bON9raWd4ea3AA8BPcTKbQgghxKg2WIHYLJzg5BM49V6jURhnqu81nCmytTjTnN3KgduA5QxfwXu/+f1+ysrKmDRpElOnTmXixIlMnTqV4uJi8vLyKCws1Onp6d3fH7rrS5H8PaNx6tje+e8ubUePHk3U1tZ6W1tb69evX9+4e/du1q5dGzx06FB2W1tbDs4iBV8/Lr8D+D/gv5EMmRBCiFFsoAOxcuBfgWUMXPare4WgUkrh8Xjwep3a9kQigWVZWNapklYDohan/upxnJq22+j/9GMCUB6Px8jPz4/l5OSojIwMX35+Pj6f750vj8dDJBKhra2NtrY2wuEwHR0dNDY20tLSclr3nZGRwaxZs7jooouYO3cu06dPZ9KkSQSDQ1ZCpula+bl79+6WAwcOtK1du7Zl9erV4ddff31sW1vbeE7//WwEfgxUAu0DfL1CCCHEoBuoQCwDuB34Ev0LTixAFxUVRUtLS73l5eXRKVOmePLz89OKiorsUCiUyM3N9Xo8HtUdiCmlSCQS73w1NjZSXV1NXV0djY2NNDQ0UFtby7Fjx6ipqaG2tnaoAjY3kfT09KbJkycbc+fOjU6ZMsUzb948f0lJSX5BQUE0Pz9f+f1+v1K9/3VorWlvb6ehoYGmpiZaWlrYunUrVVVV7N27l4MHD1JdXc3x48dRSjF58mQuvvhilixZwsKFCxk/fjyGMVBrIQZEAqirqqo6uH79+r2PPvpo5yuvvDLp0KFDc3Fae/TVTuBfcFZbCiGEEKPGQARi5wG/BOafxmMsoGHixImRBQsWJObNm6cuuuiirPHjx6cXFhZ6vF5vd03RGUcN3UHa0aNH2bVr1ztfe/bsYf/+/TQ2Np7pS6RSP3bs2KOLFi0KX3755XrRokVF48ePL/Z4PD6c6bgBnxaOxWIcP36c3bt3Y5om8+fPH8qM10A41tLSsuWPf/zjtgceeCCwevXq99i2PYO+v1e/BP4dp4GsEEIIMeKdSTCggFuB7+Fsd3Mq2jTNqunTp9dcffXV7R/4wAey58yZMy4jIyMbZxpzSFtpJBIJampq2LZtG2vXrmXdunVs376dQ4cOYdv2qZ/AnZWRkbFj8eLFu6+//noWL148LTc3dxxOxlD0nZ1IJLZv27bt1V/96lf1999//6LW1tbF9N5vrdtu4Ebg5UG9QiGEEGIA9Df4yQD+F/jHPpwbzc3N3bBkyZItN910U87FF1+8wOfzjaF/RdqDqqWlhR07dvDqq6/ywgsvsGHDBurr60/9wC6XX375scrKyo1TpkyZjdOgdtTQGtoiUeqa2mlo7qChNUJDa5jjzR00t3fSGY0TicYJd/0J4Pd68HlNfB4Tn9dDZtBPSV4GRTlBCnKCFGQHKcwOkp+TjnGKaddeHNm3b9+jP/zhDw/96U9/urS1tfUyTp0pjQLfxKkfE0IIIUas/nw6FuCsWFt6ivPs7OzsZz//+c+vv+mmm2ZUVFQsYpStoKyurmbdunU899xzrFy5kv3796N18u5C5513Ht/4xjf44Ac/iMczkhvXn6yuqZ1HX3ubnVXHqWvqoL6lnfqWMNFYgoRlk7CczKBSCqW6vlmUOumbRmvQXesptHbq2AxD4TUNPB6TnIwAZQVZTB1XyJSxBUwbV0RFKJecjNNey1G9a9euP1RWVtasWLHic+FweF4fHvMH4GacthdCCCHEiHO6gdhY4GGcbvgpGYax8bbbbvvzbbfdNqa8vPxTnEFz00g0QbgzRjgaI56wsWybWNxCA16PiWkovKZJMOAlPeAjze+l/8mX1Do6OnjjjTd46qmnePLJJ9mzZw+5ubl861vf4otf/CJ+v/+0ni+esKhr6qCmoZW65g6ON3XQ1BbpCoIsYgkbrTVpfg9pfh8+r3OPRXmZlORlkJeZRk5mGtnB/i9OjcYtXt64jz8+v5lVW6qwbJusoB9DGaDObK7YiVc1lm0TT9gkbI2hIODzkJ8V5NyKIi6YPpaLZpQzIZTLqRYqnGDbmjVrfvPNb34z66WXXroF5xeD3qzC6WV3tP93I4QQQgyO0/msLcDZ/6+3ovzYwoULK3/xi18cmj179q04bR76JJ6wOHK8ld2H6tlf08iRumYOH2uhJRylIxKjozNKLG5h2fqEhhbODfi8HjLSvATT/GSk+8nLSCMvK43crDRCBVlMKsunODeDwtwgfu+ZZ6za2tp4+eWXmThxIueee26fHhOLW+w90sCbOw7z9oFj7K9poqa+jbZwJ5atSVg2ttZOoy7VdXMAWv+9iZfqyjSZBgGfh7ysdEIFWUwsy2NCaR7TxxcxIZRPRvrpz/q+tfMI//vYWlZvqUIrSPMNTmZPa0hYNrFEAtvW5GQEmDWxlPefN4lL5k+kOK/P5XQP3XvvvY/+27/927LGxsbLTnHuVpyGuzvP6OKFEEKIAdbXQMyHkwn7YKoTvF7v3i996Uv/37e+9a3zMjIyvgCYp3rSprYI63YeYfXmKt4+eIyqumZaO6IkLBvDUHgMA0MplFIYRtcUmcvzaA2W1mhbY2uNbWu01lhaYyqFz2uSGQxQnJtBWUEWFaFcplcUMXlsAeOKc/B5Tnmp/aKBnVV1PP36LlZvq+JAdSPtkRiGUng8Jh6z+/5O83m1du7ZdqYPLcsGBWl+L6GuacAF08Zy4fQxjA/l9bk+y9aaVzYe4Od/eZ0t+2oJ+Lx4PYPb7sLW+p2p0NL8TC6dP4lrFk9n5sSSvjy8+sCBAz+47rrrcl966aWv4zSITeUw8BFg/UBctxBCCDEQ+hoC3A18sZfx1ysrK398yy23fAW4qLcnsrVmw65qHnl1O2u2HeJofQu21vhME0/XVKPi70mvgaA12LZNwraxLGe6zDQUmcEAY4qymTa2kJkTi5k5oYTJYwsInGE2KG7ZvPDWXh5+aSvrd1XTFoni95p4PeaZFK2n1P1+2drJrMXjNra2yckIcE55Ee+bN5FLz5vIuOK+bQAQica5f+UmfvPUOhpbIwTTfEOypDVh2USicdIDXpbMncjnrpjL/Kllp3ycZVn/+/3vf/+173znO9+l922mjgJXAlsG6JKFEEKIM9KXz9cvAPekGhwzZsxTf/jDH369ZMmSH+Psu+hKa82LG/Zz/8qNvLXzCJ2xBH6fB6/HHNq+FSewLJt4V1G61ppgwEd5SQ5zp5Rx4fSxzJ5USml+Xzpz/N2L6/fxmyff4q1dRwBI83kxjOG5Q8vWxOJOtik/O8jC6WP58MXTWTRzHN4+ZAEP1DTxX394mRfX7yMt4MVrDk0zWNvWhKNxfF6TyxZM5qaPXMikMfm9PkZr/fLzzz//k89//vO3HTp06NJeTj2Is/H82wN4yUIIIUS/nCpCOBdnWx/XguiysrInHnvssT/Mnz//Lnpp17B1Xy13//UNXt60v6sA3TsomaEzZdmaeMIiblmYyqAgO52JY/K57qrzeO+c8b0+tupYM3c+uIpn39jtTBP6PKdTgD7oEpZNZyyBaShmTSzl45fM5IoLphBM672eLGHZ3L9yIz//6xraIzHS/X1p5TUwbFvT0RkjJyPAP142h89/cAEZ6b0uiqjauXPnV5YuXfrxw4cPf7yX8/YAlwMHBvSChRBCiNN0qkjhcVLUhSml1j377LM/XLp06d2kaEsRtyz+99G1/PqJdYSjMYIB34gKTk6ltaOTcSW53Pu1jzCpLHVG5i8vb+PHf1rF8eZ2MtL8g7Jqc6BoDZ2xOJZtM628iOVXzueqhdPweXvPkG3dX8s3/vc5dlbVkdl7MDTgEpZNR2eM2ZNK+ddPL+b8c8f2dnrjzp07b1m6dOlFhw8fvqmX81bjTFNKawshhBDDprdP38/j7N+XRCl1eMWKFf92zTXXfJcU05GHjjXzLz9/mgdf3ILXYxLweUdNEKaASCxORWkev/r6R5gYcg/CItE43//9S/z0z6tJ2Dbpg9Q6YyAp5bT98Hk91DV18NzaPazZdoii3AwqSlJv71icm8HS8ydRVdvMjqrjzpTyEN2sYSgCPg81DW08tWYnCVszf2pZqinftIKCgisvueSS3z300EMHIpHIBSmedhxQATzCwJYkCiGEEH2WKhArBX4HuFV369tvv/1fvv71r38WWOT24O0H6vjC/zzKln21ZKUHRuQ0ZG9iCYuMgI+ffelDTCt370F7vLmD2+56gidW7yQz3YdniOqnBpLHNPB5TY4eb+HpNbs4fKyFaRWFZKXoTZYe8HHFBZOJJ2zW7XBq4DxDuIm412Oigdc2H2TX4eNccM7YVFOr3pKSkssvuOCCFY8//nh1JBI5L8VTzsTp0v/SYF2zEEII0ZtUgdjtOEv9k1RUVNx3zz33BHNzc//JbXzTnhpu/slj1Da2kXGK+qORyLY1ccviu9ddxpK57msPDh1r5uafPM5bu46SFQyMmkxfKt2NcTfvreHZN3eTk5HGtPIi1+yeYRgsmllOSV4ma7ZV0Rm3hqyIH8BQCr/Pw86q47yy6QCzJ4VS9R4zKyoqLlu6dOkv/vKXv3SEw+FZKZ7yImANsH/QLloIIYRIwS0QKwV+CWS7jO3+2c9+9uDixYu/g8sGzLsP1fPP//MI9S1h0v3eUTnf0xaOccOHzufaq9yTKNX1rXzxx4+yfRhqpQaTUgq/10NHZ5yVa/dQVdvMeVPLSA+4F+efO76IWRNLeGnDfjo640MajIGzz+Xx5g7+tn4v08YVpmrN4SktLX3/lVde+T8PP/xwdjgcdmttYeIsSvkdYA3mNQshhBA9uQVit5IiG3b11Vf/+Ac/+ME1uHTMP97cwS13Pk5VbTPBgG9UBmEdnTEWTBvD92+4HI9LI9OGljC33Pk42w7UkZl29gRhJzINA6/HYMu+WlZvOcisiaUU5bp3ux9blMOsSSW8uGE/HZ2xIQ/GvB6TcCTGc2v3MD6Ul2pBhb+oqOhCr9f7vZUrV87EfWFJCKedxbbBvF4hhBCip56BWC5ONsytanvD3XffXT9hwoRP9hzQGr72i2dYs+3wqM0SJSybYMDL/9x8JWWFWUnjlmXztXue4bUtB8kapffYV6pr+u9YUzsr1+5hTGEWk8e4b+lYVpjNnCkhXtq4j/bIMARjpkHMsnlp/T4mjy1gQsh1W9PsCy+8cFwwGPzv559//kqcnSJ6ygV+P6gXK4QQQvTQMxC7CrjR7cSrr776j//+7//+YVyCtD+9sJlfP7GOzPSR3bqhNx2dMb74kYVcddE01/G7HlrNA3/bckabbI82Xo9JNJrg2bV7sLXmvGllrgsvQgVZzJtaxssbD9AWjg55MGYaBvGEzUvr93NORRHlJa7TlGMXLVrU/uKLL75y6NAht0UmY4AngdpBvVghhBDiBD0/Ma9Jcd6WL3/5y35cWlUcqWvhnkfewO/1jNogrDOWYObEEv7pynmu4y+8tY9fPbFuVC4+OFNer4nPY3LXn1fz9XueJRKNu543d3KIyts/SFbQTzQ+9KVWPq9JZyzO1+5+mm37j6U67Z9uv/32TqDa7SmASwbtAoUQQggXJwZiY4HL3E666qqrNr7vfe9b6jb287+uoba+Df8pGoKOVFo7fcNuvmaha9f4uqZ2fvB/LwNgDtNWRcPNMBRZwQCPvLqdr97zDJGYezA2b0qI712/FKWcqd6hFvB5aOno5Kv3PE1NQ5vbKcYVV1zxgcmTJ+9I8RTvGcTLE0IIIZKcGIhdCRS6nNP00Y9+NAeY3HNg+4E6Vr65m2Da6CzOBwh3xrh4dgWXzHffK/quh1ZzoLqJtDPcCPxskJ0R4Jk3dvHVnz+dMjN22YJJfPXTi+mMJbD10H5XaCDN72XPkQb+/d6VxFwyc+np6TM//OEPpwFukeIMwH1lghBCCDEIegZiScaMGbPvyiuvdN1o8Y9/20R7JD5qM0W21gT8Hq67eoHr+GubD/LoazvISB+9geZAyw4GePbNPXzlZ08R7nQPxj53+Vyuu+o82sLRIb46R1a6n5c37uePL2x2G/ZfcsklY4AOl7EiUuyrKoQQQgyG7kAsD6fLeJIPfOADR4uKisp7Ht97pIHn1u4hPTA6+4UBhDvjvHf2eBacMyZpLBa3uPuva7Bte9TtDDDYsoJ+Vq7bw9fueZpYwr0e7CufupgrL5w6bMGY3+flzy9udQ0W58+fXxQKhdxWXWQCZYN+cUIIIUSX7kDsHMAt69V05ZVXZuPS3PW5dXtobIvgGaXZMK01HkPx0SUzXMefeH0H63cfJc2lbkw4mbFn3tzNf/3hZddxj2nw7eWXMnlMPp2xxNBeHOD3mlTVNPH2wbqksaKiosCCBQvc/mINnD0ohRBCiCHRHYgtdBssLi6OXnjhhUnNW+MJi5c37MPXtfffaOSslCxl0ayKpLFwZ5zfPbMBrzk6FyAMlax0P/ev3MivHl/rOl6YE+Sb/3QJHtPAsoe2eF8pRTSe4LUtB1zHL7zwwlQPTfp+F0IIIQZLr4HYeeedFykpKUmqmdmyr5Zdh+pH7UpJcFb1/b/3nuu6Wffz6/aw8+BxAlKg3yulFOkBLz/982qefH2n6zmLZpZzw4fOpyPiXk82mEzDYOs+91YWU6dOTfUwt2bGQgghxKAwgCDO1GRPiYULF9q4dCF/ZeN+OqLxUbvZdTxhUV6Sy9LzkxaCAvDXV7ZhjNIp16FmGgbKUNzx27+xaY9bey648cPn897ZFbRHYgzlu+oxDeqa2ml3qVMrKSlJ9f377msWJ4QQYtgYOC0rxrqMxRYsWGCS3PSVjXtqXDNJo0VnLMEVF0whPys9aWzt20fYsLuagF+yYX3l95i0h2P8x30v0h6JJY17PSbf/Kf3kZ+dnrK4fzCYhqKhNUxzR2fSWHl5OUVFbttOcnbvXyWEEGJEMXBWiSX1TsrLy0tMnTo1adPFY43tHKxpwucZndOSttakB7xcMj9pkwAA/vLqVjpjCVkpeRo0kB7wsmVfDT964BXXcyaW5XP91QuGtHBfGYpwZ4z6luROFcFgkMzMTLeHSSAmhBBiyBikKE4uLy9PHzt2bNJqyR1VdTS0hkdt77BY3GLimAJmTChJGjtQ08QrGw/ISsl+ykz38+CLW3lilXvj+s8sncN508YQ7kzOmg0GhcKybNrDya/n8Xjw+VxnISUQE0IIMWQMoMJtYMaMGVHDSJ5+3H7gGPGENarrw947q8I1o/fapgM0tIRH9bTrcFJK4TEMfvjHVzlY25w07vd5+PIn3oPP68Gyh2C9rQJb47pi0zRNPB7X6eeh35tJCCHEu5YBTHEbKCsrC+BSH7b3aMOonbbTWhPwe7l4doXr+MubDmC6BJ+i73xek9qGNiofWu06vuCcMfzDkhlDkhVTOFPR8bh7IOb3uya/Wgf7uoQQQohuBlDqctyeMmVKFE5e5GZrTW1926hdURiLW0wuy2f6+OKksX3VjWzdX4vfNzpr30aSjDQfz7yxi+fW7XEdv/aq8yjOzSSeGPzkk7a16wIBj8dDWlqa20NcdwsXQgghBoMBJC8dBFVRUZFUKNXc3kl9axhzlE7dxS2LeVPLXPuDrdlaRXNbRDJiA8CZtlZUPvQ6ze3JKxbHFmXz8UtnEokOQa2YwvUXB6VUqun1lkG/JiGEEKKLASSlBdLS0lRhYWFSINbQ3EHjKA5WDMNg3pSQ69grMi05oNL8HnZUHWfFM+tdx//xsjmUl+QOajsLrcFjmgQDyYsvYrEYbW2uyS8JxIQQQgwZ10AsJyeHgoKkhvrUt3QQjSUYjTOTlm2TEwwwY0LytGRtYxs7Dx3HN4p3ChiJ0v1eHnxhC1UuhfsF2el8ZulcYoPazkJjGor0QPLqyFgsRiQScXuQBGJCCCGGjOvUZDAYJCMjqbUYbZEYlqVhSPujD4x4wqYilEuoIKk1GrsO1dPQMnqnXEcqr8fgeHNHyqzYh95zDmVF2cQHKSvmZMSMlIFYZ2fytClwfFAuRgghhHBhAIGeB30+Hx6PJ6m/QEckhm3bjMZFkwnLZub4EtfWFJv21DgtOYbhus52wYCXx1e9zY6quqSx/Ox0PrToHCKDlBXTaDymQZpLTWAikSAeT9r/MgrUDMrFCCGEEC4MIGk+LhAIYJpmUlzSEYlh6SHo/zQIDAUzJyY3cQXYsnd0b9k0kpmGQWtHlPtXbnQdv2bxDApzgiSsgV9BaWtID/gIpiVnxKLRqFtGrANIjhiFEEKIQeIafWRmZro2u2yPREdl1sjWmoDPy4RQbtLY8eYO9h5twDtKt2waDdIDXp5ft5d91Y1JY+UlOSyZM57OWFJ26ozZlk1BdjqZ6cn9wqqrq2lqaup5uA5ILmgTQgghBolrIJaRkeG6tL8tHBuV05KWZZOfle5aH3bkeAvN7ZFRu2XTaGAaBk1tEf768jbX8SsvmobHNNADnG21bOfv3a1dSV1dHZaVVJtWjZMVE0IIIYaEayBmmu7ZIWdbmtEXsCQsm7KiLHKzklum7T3cQCSaGLVbNo0WAZ+HZ97YRWNrOGlswdQyJo8tJBof2KJ9W0NBTtB17MiRI26Hjw3oBQghhBCnYABJn34uRcwAo7aOKmHZVJTmuYaQ+6sbBzwT826lu/Z1jCcs4gmLWNz56t6btOpYMy9v3J/0uIDfy5I54welp1hZYXIWFODAgQNuh3cP+AUIIYQQvfDgssmxy5QNAKahRmXQohSML0muDwPYc7ThtNtWaK2xbI3WGlsDWqOUwjAUhlIoQ43CvOHp6w64bA2maeAzDTLT/aQFvBhKYRoGhqFIJCyicQtDKZ59czfXLJ6R9FwLZ4zjt0+9he56LwfK2KJs1+MpMmI7BuyFhRBCiD5wDcQSCfd2AqOxz5bG2c5mTFFyZiQSjVPX2I6nl476WkPCtoknEliW0yDU7/OQFQwQ8HkI+Dx4TINoPEEkmqAjEqU9EiNh2Xg9Jj6vZ1Q2wE3FtjWRrqa+JfmZTBtXyOzJpVSU5FKan0lBdpBgwIvRFYQZSpGw7K73J040niBh2UnZ1ZkTShhblM2hYy0D0ljXtjXpAS/lLgG4bdscOnSo5+EYEogJIYQYYh4gaR4yZUZsNAZiWhPwesjPTq4VagtHaWgNJxXqa+3sSxmLJzCUQWFOkGnlhZxTXsSEUC7jS/MoyA2S7veS5vNgGAbxhEVHZ4y2cIx9RxtYt/MI63cdZfeheuIJi/SAb1QudOimgUhnjIDPy/vmTeCa905nwTljyM103TjbRfLKxRMF03xMLMtn39HGAQnELNumIDtIaX5m0lhTUxNVVVU9D9cCSQeFEEKIweTB2dJlzIkHLctynSLyjMLUjm1rsoN+ilyKtuuaOgh3xlFd92XZms5oHBSMK85l0cxxLJpZzowJJa4f6CfyeU2CaT6KcmFiWR5Lz59MPGGxbucR7l+5iZfW78M0Dfxek9E2uZuwbCKxOItnT+CWjy5k9qTSQXmdssIs7AGa+k5YNmWFWRRkJy/Q2L9/P7W1tT0P70a2NxJCCDHEPLj0Ters7CSRSOD1nrxZcpZLP6aRztaa9DQfeVnJmZvq+hZiiQSmYdARjZGZ7mfp+ZO5etE5XHjuWLIzkjYdOC1ej8lFM8q5aEY5T6/ZxX/f/zLHmjsIBryMhlI7BXTGLfxekzuWv59PXjprULOiicTAvSmWbVNenONab7Zv3z636fc9A/biQgghRB95gIaeB9va2lwDsfzsYFe/J0bNNJvWmqDfh8+b3EvqeHOYhpYwE8vy+cSls/iHxTOYVl44KNdx5WLnSFkAACAASURBVMKpTBlXwFd+9jS7quoIpvtGfDAWTVgEA15+9MUPsHjuhEF/vXA0NmDPpTVMGef+d7l161bXwwP24kIIIUQfeYCjPQ82NzfT2NhIWVnZScdzs9LwmiYazWhZF2jbmsx0v2vrDaUU1119Hl/8yMKUbQ4G0qSyfO7+8oe44YePcKCmkTS/99QPGiaWbeMxDH5005UsnjP+lOdHYwnqmjtoaY/Q2BrpKsy3sGybYMBLZnqAYMBLwO+lKDeDHJdso3eAsm1aa/xek0lj8l3Hd+7c6XZ484C8uBBCCHEaPMDengebmpqoq6tLCsRyMgL4vCZxyx41fV1trckMuk+pXrN4Op96/+zTyu5p4HhTO9UNbTS3RWgNR+mMJshM95GbmUZ51+rBVMYUZfODf76Ca3/wMLG4NWJ7s0U6E3z5k+/pNQgLd8Z5bctBVm05wPb9dRxraqctHHX2jdS8U+/VvXrSMBRxy+ITl8zijmvfn/R8A5UgtGxNfnaQKWMLku8rEmH79u09D1cBSQeFEEKIwebBpTYmFou57cNHQXaQvKx0qhtaMY3RsTej1pDhsukz4Lr1jZtjje1s2VfDm28f4e0Dx6hpaKOxNUzcsrG1xradthaGocjPSmfy2AKuvmgaVy6cht9lBeCsSSV8/oML+J8/vua6D+Jwi0TjzJsaYvlV813Hba15fNUOfvPEOnYePk5n184EXtPANA2UcjKRXo9JwOfpmoLVaCAasVJu8B0ZoP0mY3GLCaE8Cl0WaOzZs4eDBw/2PLwFKdQXQggxDDzAPiDR9d/v2Lt3L5dccslJJ+dmpFGQk87humYYJZtk27ZOGYj1pj0SZfXWKp5bu5e1Ow5zvKkDW9t4TBPTUJimgVcZ72R/tHZe63hzmGONB3l10wEeX7WD/7zxctcM2aeXzuGp13eyr7oRv0v92nDSwGevmOt6XbGExR2/+RsPvbSVhKUJBrzMn1LG7EmlTAjlkhUMEE/YHKpr5m/r9rL3SH1XfZ4zmW0aitwM95YXndEExgAUH1q2zYwJxa5jmzZtIhqN9jz8xhm/qBBCCNEPHqAGp06s/MSBPXtcFpEpKCvM5q2dSWVlI5ZSkB3s++rHmvo2HnltO0+udoKk7nqj9MDf67kUEIkl8Hs9TCrLoyA7HQ20dnRyrLGd+pYOtA0vb9zPzXc+xr1fvYb8Hm0UMtL8fPySWXx3xYuMpFKxzliCqeMKeN+8ia7j//n7l/jT37bg95nMn1rKlz6+iPPOGYPp0hR32Qfmc+OPHmHj7uqTso8lKaZuWzo6Mc6wRYrWzlZcMyeUuI6/+eabboffOqMXFUK8a83+3E/KDI+3FK2DtsJvooPaJgOlMtA6DcMIo3WLNmjVWocNzE5tW/Xxjqaq7Q/dMXArlAbZ/M/dNU4rCjGMAht7LErlKlQA205HKS8Q0eiwoVQEreotZR/12EZ91GPVbfv17bKPby+621ccoUcglmIvPsaX5gxYr6ehoMB1xWRPNQ1t/N9zG3nk1bc51tiG3+chGHCPkCKxBBeeO5Yvf+pipo4rfKfI3LY1tY1t7Kw6zuOrd/Di+n2sffsIP3lwFd+/YWnS87x/wSTufWIdzW2REVMrFk9YXHDOWNJdosNXNh3gTy9sIS3gYWxRDpW3f5Ci3IyUz5WR5qMwJ9i1WfzfgyS3KcOOzjjHmzrOuD2GrW1yMgKcU1GUNKa15q23kmKuOmTFpBCiD6Z/8e4Mb4c92zDt6Vqr6cBkBWO11mOAoKHxatTfa6iVont5vLJBoWywI0qp477MvH1zl1fuVkpvsjXb7ERs85Y/fLVjuO6tp1nXV47xWMYcG32hofUcW6kJKF2C1rkK1VXUe3ILBYV6pxTF0MqylT7utczaucsrdynUm0rZ6/AEtq6/98ahKwW54w5jfnWp2dlUo7Y/9J04qBEXwHhw3s59wKITB3bv3o1lWZjmyVOQZYXZzp6TjJZ6fZXUOf9E0ViCP72wmV8/+RY19a2kB3xk9ZJBS1g2BdnpfPf69zO2KOekMcNQhAqyCBVkccn8iTy3dg/f/NVzPPLqdj66ZAZzp4ROOr8kL5N5U0I888YuPObpT58ONK01XtPkwunjXMcffGGLUw+nFFnpfnJSTDF2W7/rKKu2VJHWlQ3TWpPm81KUlxy8NbWFaQlHz3hqMha3OLeiiLKC5FWwVVVV7NiRtIvRDpyssBBCJJn12R8FDTPtIrA/bESs92uDqVr//efUaX6qG0AQCKKpAC7Vuqtsw+PfOffaysdAPbzxt7cMS5Z+/g13llpx4yqF+hAWF2jsIgU4t6tP92ZNoAR0CTBHoz+htYJ4dN/c5ZUvaYNHTdP/0vp7bwwP5D3M/Md7cj3+xJ81KlOhDaowbaKmLyMvPP+Gez+w/t6RVw/cnSra1nOgrq6O+vp6iotPrrUZX5pHwOcd8M2ZB43SKbMsew7X870VL/L6tkOk+b29BmAnsjV9uvel509m095qfvKnVTz22ttJgRjA/KllPL1mV59ed7DZWpOR7mNccU7SWG1DG1v21ryzt+a2A8f4zZNv8YWPXOD6XAdqmvjOb/5GOBIj4D8hEEvzUeKSRatrbCfSGTvjqcm4ZTNv6hjX59m8eTNtbW09D794Ri8ohDgrLfzYT9I6g+b1KPVFsKfBwK3sTmEammmg/2Xu8srXUeq/Nv72lmcG9yUd8z7301m2YSy343xSgXtdx8CZCExUNtfbdnT7vGsrf52Iex/Y8ocv1A3Ek+v0mA/LeJ9C9yxkj5qd8ZFVkN2lO0LZ0nPg+PHj7N2b1NmCMYVZ5GenY6VY+TbSaO3sKenmB//3Cq9sPkBW0I/X07cpMY9pcLy5gydW921/aJ/Hg9/n4c0dh12vY/akUtL93hEx3Wvbmqygn8Lc5KnD3UfqaWrvfCe76POaVD68mm/cu5Ldh//eE7ijM8bjq3ew/D8fZt/RBtL8f/++t2xNbmYaOS77U9a3hglH42fUn05r8HtMLjhnjOv4qlWr3A6/0u8XFEKclWZfV3l+Z4bnRZSqBKYN8cubwMVo/fTcayt/v+DaOwetm/b8z901bs6yyp9r03hDKW5n8IOwnqZrzZ2mJ/7W3OWVt86/4X/PuGLaiPq1ArcsW2eHNzb8H7Quuj8ldwKtwDvzObZts3fvXhYtOmnGktzMdErzM6mpb8U7ClZOau30u3LT3V7hdAV8Hu59bB3nVhT32mdr+4FjPPTSFjLT/dTUt1FV25y0mi9UkEVedhr1zWEMc3gzjM6+nAHXRrN1je3E4gn8XqfdhqEUAZ+Xh1/axvNr9zJ5bD4Bn5eahlYO1jThMQzS/N6TfoNMWDbFeRmu73ltQxu2rc9ox4aEZVGSn8nMick/SyzL4tVXX+15eD8uv4QIId695lxXeZVh80cNvW8w7GhHcxyD/Wj2AsdQKoLWYY0OAxgYmRodROugQpVog5ld05LuHadPpPlsAvOyudf+7OaNv73lL2d0Yz3MXV75BVvzLaXo6+bBERSHtda7DcUhNNW2NtoNw46gjbhGB1CkK3Sm1mosinI0U4BSenRlcDEWuMuORz8xb1nlv25YcetrZ3Rzo0z3m1OLUyc298TBt99+O+kBSjmbWq97+8jgX91AUBBN0Z8qI9C/bYZMQxFPWHyp8kn+5ZMX88n3zz5pKkxreHnDfv5jxQs0tXWS5vfQHomx53B9UiBWkJ1OeXEuNfVtw16wrwGfx8R0iYbC0eT3UCmnID+WSLBxdzUa570J+DyuU7e2rQnlu+9gcKAmuW/d6YolLGZOKCHXJeO2Y8cOtm1LmoFfA5z5Cwshzgpzlv38MsO2TxWE1SnN8xq90tDq9c5w4+HTWv14xx3G/OqMPDvum65Rlyn0R4Bze3lECVr/ae6yyhs3rrj1t31+nRQWLLu7JKGsnwKf6MMERK3SvGAbPGMY1gZlpO9df++NfW74OOuzPwoqn3+6stR5SukPKbjoFO/tRVrx3JxlP/vXTStuuauvrzPadQdiUWAXPQIxlw8uwNmqZ9BnyweIgbNxtZv0FKsi+8LrMUlYNt/73Ys8uWYn75lVQVFuBi3tEVZtqWLt24dRXUGJ7uoztqOqjo8wPem5JoTyWL21qt/XMnA0ylCuG4n2NmVoGgZp/lMHkRpNeUly/RlATUPrGRfqaw3nn+s+Lbl69WrC4aRs9fNn9IJCiLPGrOt/Nl5Z9gO9BAqNSvFLjbp7w323VPf7he64w14P9ThlEa9M/9gd/+HLzL9Ua/0NBe9J8SgPil/OWXZX7aYVtz3d35ees+zOOZay/gRMPcWpaxTqVxr95IYVtx7v7+t1rQJd2/V1z+zP/XyKYVifQRnXgi5L8bCAUvqnc5dXzoq1N35hNLX46K8T04VbgU+eOLhz504ikQhpaSdnGCaW5ePvCjBGer2+UopoLOE65kzB9T+g9HR1kt+0p4Z1O45gGgrL1nhMIykrZBqK/dWNrs8zdVzyVjzDQSlFuDNOImFh9pg+DPajKW5PhmG4NrftjCWobWjH08c6PTfde4rOn+YeiL34YlJNfitORkwIITAtvgOk+GGsdoD+6Ibf3po8TXSGugKNZybdUvliZgc3o/kuzsrKnrxKqV9Mv+4nc7f/5svuHya9mLes8mIND2pST0Uq2GZr9R+TO4r/+tBDH3fPYJyBzb+/eTfw7RnX//Rub0LdpJS6vZfA91pfRl7WkmX3ffblFcs7B/paRpKegdhJampq2Lt3LzNnzjzp+MRQHllBP+2RGKYaGf2vUlHK+aB3k+739mtq8qTnx6kZO1Wtmcc0OFjbTHN7JKntw/hQXldgO7wrUQ2l6IjEiCUs/D3uJzsYwOsx+x18a60JeE0KXHqINbd3Ut8Sdm0K21exhMWc8UVMKstLGquvr+eNN5Ka52/HZXuvgVBaWnq5UqoMKOw6pLSz3l0Zf5/DVice54TOQy7nd/8/J5xrKKViQAPQoLWuATZUV1fXD8Y9CXE2m7P8rotA/2OK4X3KMD604Tc3Ja9eG0B7f3ZrFPjxnGV37VBK/Rn3YGycz/b+C/CN03nuOcvvukjDo0DyD0hHTGv1n7F048fb77mpfdPpXfpp62rw+u05y+78q1LmncCSFKd+tIVWtWTZfZ85m4OxEz9t38bZby+7+0AkEmHfvn1JgVhBTpCywhy27a/F9I30QEzRmaJG7EymJk+XaRg0tYWpbWxPCsSKczMI+r1EYnHX+qyhYihFeyRGY2s4aQ/MCWV5ZKb76Ywl+nWNtnYa62ZnJLcIae3oJBpPnFEQGk9YXDyrwjWY27RpE4cOHep5+AUGaX7dMIzPaK3fC7zTkK373nQfI/++nO8yVhMKhd7SWv+upqbmr4yW+gEhht/1gNsHgkapWwY7CDvRphW3PT1vWeXntOIBIGkzYoW+efY//fz/Nv/u5u19eb45y+6arFB/JFUQpjmgMW7ctOLmIS/V2LTiS5sm3VJ5RWY7dwJfcD1JqX9opr0BuHFIL24InfipdRCnYP8kLp3I8ZgG08YWpNy8eSRRShGJJlw/0AI+z5B9UhmGM+1Xfbw1aSwnI62rJcjwfm4ahqKlo5Oq2uakseK8DKdLfn//zrXG5zHIcQnE2iNRYvFEv6e5ba0JpvlSrmB98sknex5KAEkHB4rWOgK0D9bz96IU+KBS6uFQKPRySUnJ4mG4BiFGlYUf+0maQqWqzfrLUPXyOtGGFbf+FXAtzNeQaRj2DX15ngs+XZllKPUgJ/xS2MNmQ3PZcARh3fb+7Nboxvtu/SJKfTvVOQp9w5xrK786lNc1lE4MxCxgXc8TNm/e7PrAKeUjo67pVJRyuud3b7NzIq/HM6S7A1i25sjx5Ka+WUE/xXkZwx7YKqWIWxb7XGrZ0v1exhXnELf6VzZga03A7yXgS/6lsz0cIxq3+t1DLBa3mDaukCnjCpPG2tvbWblyZc/DW4AN/Xqx0eO9hmE8EwqFrh3uCxFiJItlGLMA19/iFOrXQ3w577CtxPdxtmBzs3j6x+44ZeFuzMcPdY9FeCdYFzfty9f/7takBMxw2PjbW77XazCm+f7c63763qG8pqHSs7Bpfc8TduzYQVtbG5mZJ9fTTa8oJm0E1DWdmsKybdeMmGGoIV9scPhYcrYJnO2O+jptNZgUsOuQ+yKZSWPyeW5d/8qqbA1ZwQB+b3Lvuaa2CLZt9/vvIp6weM+sCtf2H2+99RY7d+7seXgl0Ocl2ANEAz8EqpVSHk6uDwPnl6KTjp1QH2Zwcg2ZgVNCkI/TpXoK7tMOacBvysrK/EePHv3F4NyWEKObjTEP1z5X6qjHUsOy1RDA5t9/+ejcayvvR/Nll+Hp/rScafTSB3HessprdOrpvL2GpT+67b6RtRn3xt/e8r25yysLgFtdhr3YRuUFn65875v/d2vy1NIo1vObbyPOtM07x6uqqti7dy9z554cVI8tyiY/O536ljCeYW5E2rvUgaJt22dcrH86DKWobkjaYgeA0vysEVHQYxoGh441Y2ud1E7ivKll+PtZsK+1JiPN57oBe1NbhP7uXGprTTDgY8lc9+bTTz31VNJDgKSDQ0Dbtv3L2tragwP9xCUlJRVKqaVKqZuBmT3HtdY/KSsr23T06FFZJSpEMtdu8gq9e+3vb2lwGxsqSqvnNPpLJP+A9GCal5IiELvg05VZMcV/p3jadpT61Prf35pUODsSZJc3fqX1UN44rfl/LsOzYz6+CnxrqK9rMPVMIewDTuqPkkgk2Lo1aUElBTlByktyiSdGfp2Yk/lyaTA6xJGPYSgaWsPEE8nTe4U5QYY0KkzB6zE5WNPE0brkKdTZk0oJFWSR6Of0pJPxG9h7jMYSTBlXwNTy5GnJSCSSaloyaQp+iLitgjpjtbW1B2tqau4FLlRK/dTllABwbygUSh+M13+3CYVC6aFQaGr315gxYyZz6s7hYuRK/uEB6NTTgkPG1ok3gaOug0qfk+pxMS9fACa5jWn0d4drU/G+ePmOOxKmbX4Bp27dzc1zr/t5+RBe0qDrGYg14dLGYsMG93KaqeMK+v2hPGQ0GCpVvmVoAx/DUDS1RVzbaeTnpGGYxrBnxTymQUNrmA27k/sVZmcEmDe1jFiKBrm9UTgtJtxq9dyyZH2VsGzef94kvC7TkuvWrXNrSrwSOCsbBFZXV4ePHj36JaXUf/Uc01rP0Fr/w3Bc19lGaz0fJ5hfB6yzbXt1KBTq6zYxYuQpdj2q1LAHYptWfKlZpw5IXLtjz7j+p8Uo1+lMNKzKKW9y+2VtRFm34qZapbkVZwajpxy0/spQX9Ngcus9sbbngU2b3LuKzJxYeka9n4aKoQzXubShTkAZShHpjLvufZmXmY7f4xkRdWJaw2ubD7qOLZwxrn/BogIrYWO7Lpro3/eQZdvkZqRxyfyJruNPPfWU2/s5HNOSQ+ro0aPfBpJ2OFdK3YRkbs6YYRg+nCaU3V+5tm2P/I13hSulXD8HQevkvdKGgQL35q3avfmszzY+BRS5DNla6W+/fMcd7o01R5gNK259AnjCdVDrz8299mehob2iweP2DZg0bbN7925qamqSTjy3ooisoN81yzFSaLqmJt3GtB7SDJTT0yxBS0dyX7pgwIfXY4yE2Un8XpNNe2tobI0kjV1w7liKck9/hadCkbDdAzF/PzNindEE86aVdW25dbJwOMwTTyT9G17Hu6ObfkIp5VYfMr+4uHjakF/N2S+hlBoB/3JFf2hN8ocbgMJ9m46hprXr6imNyu25cnLJsvsCWpNqpfRTm39720sDfn2DyMD4D5wtGHvKxrY/6XJ8VHILxLYCJ/3F19TUuG4APrYwm/KSHBIuNU8jiVLuc5Na97dEvL/X4UylRVw20PZ5TUxDMRJ6cHo9JtX1rWw7kLygpjQ/k4tnlafcrSAVpSDcGXdtf5Ed9GModfp3ruADF05xHXrhhRfYsWNHz8MP4yxGOet5vd6/AT3fAI9pmguG43rOJifsciDODrWuRzWl3HHHsE/5GFr9l0JditN9fgmwRGv1Pq2tG87l3JN+oLbo1kW4LNgBUFrfM9jXOtDW33fzBqVw7eOmlPrMkjvuOCsy/G43cQQnGLvkxIOrVq3i0ksvPfnBHoNzyovYvLcG/wie8TCUe0bMHuL0kwISCds1iPF7PZimgR4h1UsJy+bF9Xt57+yKpLGrLprG46t3nNbqSUMpOjpjhDvjZAdPbuqanZFGwH96rVDiCYsxhdlcPNu9ieuDDz7Y81Ab8Fjfrnb0O3jwYGdZWdlbWp9c0Ku1vgC4b5gu62whgdjZRKm6FFMR58yvKpizfph7Dnb1+XLt9dWzaEgrdbXrN6diS2uGGlXZsG4adR/opBWUGmY1Hc6bidPtYVRLFe0nTd+4ddgHZyXdSGZrTXrA6/oBH44ObdTT3TDVbcslr8fA6xk5ZSZ+r4dXNu6nvqUjaey8aWOYOq6QaLzvySWlFNG4RUNLOGksOyNAwHt69XGdsQTvmVVBXmZyGceRI0d49tlnex5+CdjV5xc4C9i2ndQXUCk1MqZbhBghlK23414U7rOwPjPU19NfS5bdF1CKy1wHbf1Y116Wo06gLf487oGoqWx9qcvxUSdVILa654Ft27bR2JhcMzh9fDEZaX7X2p+RQNtO/yo3rR3RYfnV1nb5J6+U01x2JBTrgxMYHq1v46UN+5PGAj4Pl58/mdhpTEl3b77e0JociGUF/V0Zsb49l9Yav8+TclryySefpKEhqf1PUorsbGcYRvLS1xQrrcRpkYzYWUT5/OtRuO4lqVDL5yz76aiYzm+meRow1WXIVqhh28LoTK156MsRnF+kkxhauQeeo0yqQGwzPXqoHDx40K1DOeOKsykrzOr31jeDzcmIpQ7Ehrq1vlIKp2H6ybTWXVN9I+dnvGkonlnjnkS6cuE0inKDfe4jp5QiHre6mreeLCPgIycjrc/7WHbGEsyeWMqCc8a6jj/88MM9D1UBz/Xpyc8iWmu3bRzcN/4Vfda104E4S6y/98awtkkVqOQow7h//g13juypH8BQnhm4lRtpqjqMiHvrg9EjqSEkgFbMmP7FuzOG+mIGWqofKNW49BN74403kk5MD/iYOq5wxDZ21UAwkLy/IUBbeGgzYt0Jn54d68FZODDSsop+r4eNe2rYtj+5aH9sUTaXnz/FdeFBKhpNo8vUpN/noSA7iOWWKnRhWTYfvvicrsUNJ9uwYQOvvfZaz8OPA/V9vtCzh9s31AipQhRi5FCm/WdSrZTSTLHj5otzr618/9Be1enRivNdB5Taseu3X3ff0mWUsEy1HvfVk4W+TnvUrwTvrcJ+DXDS/KtbIAZOS4PHVyWtUBsRFJCb5d5QvD0SHdoMlNaYhsLj0jfLsm2sETIt2c0wFG3hKE+s3sGMCck9Dz+2ZCaPvbYDy7Zdg6Jkqbd4ystK61MblHjCYlxJLpctmOw6/sADDxCLnRRr2LwLpyUBlFK5LlPd/Q5IQ6FQgWEYubZtZ+B0I88DIkC9bdvNWuuIaZq11dXVydH2IBgzZkya1jpfKZVn23aW1jrDMIxMANu225RSbYZhtEaj0ePHjx8/xgAtSTYMI9bzfbUsK7knzRkoKCjIDAQCxUCaZVm5QL5hGKbWutm27RalVF0wGKzdu3fvsNX9FBcXF5mmmQsEbdvO7Oqvpg3DOHbkyJFtnP777SkuLs4zTTMApGmtM0zTjMXj8Y5AIBAxTTO8f//+5C0/BsDG39z+6tzllY8A16Q4ZRqaZ+cuu+tXGMZvRmRneq2nux9PrhUdbbyG75htRfcB5/YcUpppwMj7+zgNvQVir/c8sHHjRlpbW8nKyjrp+MwJJWSm+Un0+QN5aGic7FNpfmbSWDxh0doRc50mHLTr0U4X+cw0f9JYJBonkbCGfBPyU0nzeXnmjV0su3J+0vt47vgiLp5VzjNv7iLD5Z56MhTUNbkHYsV5fcsud8YSXHH+ZHJdivTr6ur485//3PPwKt4dvcOS2LYd6vmLhta66XSeo6ysbI5t24uVUu8HZtu2XQwkzfUbTmPnsFJqf1lZ2Sat9YvAmurq6uR6hn6aP3++t7a2dr7WejFwsW3b44CQ1jofnOnv7gCp+75t28br9daEQqGDwE7gcaXUa0ePHu3LHoIqFApN1VpnKKXeSddqrWf0PM/j8cweM2ZMrdba0Fqrrj8NwzB8lmVVHzt27MCpXqykpORcwzCWAItx3usKwN99L9331vVet4TD4f1lZWXbbNt+xDTNV44cOZJUxFtcXDze4/G8s7TYtu2Wmpoa1w/mkpKSCsMw8gCUUv5EIlHb87pLS0vnK6U+ClwMVAClziX9/ZdLrfW2+fPnz1u/fv0p0+VlZWVTtNbzlVJLgLla6xDOVmBZSinDtm1M0wzH4/G2eDzeGgqFDgAvGobxsm3bWwcy6Nfa+opS5vmQsn+YiVL/jNafn3tt5RtoXjCUfh5PYOv6e28clACxrxZ+7CdpUShyi3yVMrYP+QUNsPX33hies/yu/QrVMxAD7FG/3VFvgdh6nP4q72yIum/fPrZt28ZFF1100okTQnmUl+aws+o4pm8EtbHQGtM0yHfJiLVHYjS1hYd0ZwCtNX6vSUZ6ctAS7owTT1i4N9oYPh6PQXV9G4+vepsbP3xB0vinLpvNC+v3uW4S3pNpGjS0hLFtnRQAh/KzTlmvZ9ua7KCfD77HfYu1Rx99lMOHD/c8/DvcV0Sd9ZRSSX9hhmHs7stjS0pKFiulvqa1vkIp1dd/JOldQcoM4DNApKys7C9a6zurq6v73QKgoqIiEI/Hl9fU1FwPzOvHU5R2fS0Elmutq0Kh0ArDMCrdgpdu8+fP99TU1NyvlJp/iuf3A0/ZztS6ARjO4hvn+9k0zV8Dn0/14JKSkgWGYdwG/APOvqB9kY0TuMxVSn3Wtu0DoVDotiteugAAIABJREFUpz6f796DBw++k50zDONarfW/d/+/UmojKd5DwzDuAj4Ezs8q0zR/BdwAUFFRkROLxe4E/hGXQPxEWutTFgyPGTPmfNu2b9VafxjIOMUipfSur2JgMrC0671+OxQK/TIWi62or68/46m3TSu+dHD+tXd9ykY9jia3l1NNNIuARbZW3yYe3Tdn+V070GqNgd6Q8Bi7tvz6llMG3gMplqtydNy90z7gVis66iiMBrckq0aVDcPlDKjefsDW0SPdp7Vm1aqknVPweU1mTyp13cx6ONka0vxe8rKSsyctHZ20haNDmhGztVN3le0SiLVHoiQse8RlxAD8PpNHX9tBazh5FuTC6eN4z6xyIi7bNvXUvdemW9uL3Kw0TtXONhKNs3BGOVPHJe/Rm0gkWLFiRc/DB3Dqw951CgsLM9wCMcuykv8BnyAUCo0LhUIPGobxolLqSnr/GXEqaVrrzwCvh0Kh+0KhUKoPipSKi4uLYrHYI9ppRtlbEGYDHTh9EA/hTMGmmrYrB75j2/aqkpKSxae4hL7ev6frK+n8E7NpJyooKMgMhUL3GoaxGvg0fQ/C3IwH7orFYk+c+D4rpXr+UE45haqUOqmYtjugKigoyIzFYo8ByzhFENYl5Xs2duzYUCgUesC27VU49+yWCreBME4ioAlI9cFyLlDp8/nWlJaWfroP13VK63972yoD/SEUffqFpctEhbpaKb6vlXrGtPRb85ZXbph3beW9c5bfdf28ZZUXXvDpyqxTP03/xRMqC0jeYgS0bdM+mK89VDS26y9NGu2+amsUOVX66iXg6hMPvPrqq3zta19LOnHBtDH88flNaEbO2m5bO60rCrKDSWP1zR1E40M7FWhrm7zsdNJdFg8c77qekdRLrJvf62HfkXpWvrmbj70vuWnzZ6+Yx6otVadsyGooRXskRjgaJ81/8nuQkebD5zFJ1SVWayeQu2Zxz1khx6uvvsqaNUkzkH/m3Vmkj8/n+6jWekKPww0ez//P3nnHSVGff/z9nS1XuYMDrswevQgivdix956IxhgMoNHkp6JEsUUj0Wg0sYESFVFQY4kaxY5YUTQivYrSy+7dccAVru7uzPP7Yw683Z29unfcmX2/XvuC+0777u7szDNP+TzOxdG2ycnJGQm8guV1CKcaSz/yKywDdy9WD7xEpVQGkGGaZn+l1BisG2RtoyIB6yY+VNf1y3w+X4P03HRdTwbmYXmywlkOfKqUWmKaZj6wx+FwlAKVmqZJdXW1S9O0JE3T+ojICOBM4CRCjYSBmqbN03X9Ep/PF61qLtwIiHaJO7CeqvWvAjBtqnC6devWxzCM54Fjoxy3UCm1VESWKqW8wF4RKakJk3ZWSmUDw0TkKKC2R+BUEXk/Ozv73Pz8/EIaYUiHe7IOGJBut/sxYKzNJtVYhlIhVhFIVyBDKWVr7Hk8nqMMw5gD2CVXr1JKfWGa5kKl1HpN08pEpCoQCDiVUskOh8MjImOVUidjqcvXvlAOUkr9S9f1w3w+358b+n6jsey5GxYNnzjjOBS3IfwWewOnLjIEMhCGK9TvRGH43RQMnzh9nXW+qnVKycrEsuDWGmmGZqOUloxgV5VWpYnRrhP1D6BQtoaYUqou72W7oD5DbCHW08nBH/PSpUvZvXs3mZmhPUUH98mmU4dkKqr8OBxto7pbTEvMNT018kGzsLgCfyBIotu+orIlMAwhJyOVBJvw7a7dpbSF9kbRcDg0/v3pKs47diCJYfM/dnAPjhvag8+XbSElimYbWPaVP2BQWl4VES5OT00kwe3EiOIVrPQHGN5P53gbpX+AOXMixOIrgX/V/85+fmRnZ3cVkdvDx0Xk9WihOF3XTwNewrqZ1qYEmA3M9vl8G4nunQAO5nH1AiaIyERqpTYAw4FPPR7POK/X25C8vT8TaYRtFJHbdV1/pyE5SFjSJZ8BD+m6fgxwD6FFSB2BF3r06DFi+/btIT0Hly1bFtR1/RpN09KCwaAAaJpm1OQ0PVZr1Wql1MWmaeY5HA7ngfywAzliWF66g2RlZfU2DOMTrByrcJaKyAyHw/F+XWHTA3Tp0qWD2+0+BZhCjbGklBqjlPoXcBbNa+lV4fF4jhaR8N6F85VS80Tki6qqqrycnJyqdevWmV27dk0EUhMTE1OWLVsWcp7oun6+iPwLq0l6bb5RSj3asWPHd9atW1dXRe9WrHzP+2u+x1uAC8LWuUvX9U4+n+8GmpmOsGLO5ELgpmETHn1c07QJIupirAeMpjy6OwAdlC7CaTVtSauqUp35wyfOWCWiViglX4gYq1bOndKkMKIKqmQ02/tHZdDt+FkYYlgPf5EI9Scot3HqM8TWA2uBIQcGCgoKWL58OWeeeWbIirld0+iTm8HSDV6S24ghZnnEEnDZVCmWlFe1eijQFKGXbi/jtHN3cZvLD6tNUoKLNZsLmP/tj1w4NjJfcvwZI1i0qm6vmMJS1y8pi3xgTk9JJMHlpDxYTfi1TrCM6l+fNhSnzbm1adMm3n///fDhD7DO3f8psrKyUhwOx/MiEq52W+F0Oh+y26bGO/MyhOaYKKU+FJEpDfVgAdQYRz8Cd+Tm5s4Ukb+JyPhaq3hE5OVu3bodu3PnTjvBWQByc3M9pmleGza8Ril1ts/n25WXZ9+nuS58Pt83gwYNOru4uHh22Jyy/X7/3cDvwzYRu9w2j8cTDMtpkkAgsGT37t2ROi9h1Hw/LxBphPmVUrd17NhxZj0GSQg1uVHzgHk5OTlXK6WmY3kjT/d4PA+bplnW1MrwGr20KbWGdgC3+Hy+kCrkA0LfhYWFZRAZBsvNzR1smuZcwowwEbkvIyPjnnXr1vm9Xm+D5+Xz+b4BLvR4PBNEZCZW/tgBrtN1fa/P55vW4B3Wwcq5U7YB00Ze/fR9plF5NKbjTJScg9AHq6igqSRinQM9lZILAJRy7Bo+cca3ChaiOeYvf/ZaW5FZO8QhKfZt51Vlol+VNmOebQYRtUfZv8l2b4jVZzFVYlM9aZcnppRiRH9Pg0U5WwNThI6pibYJ+UX7W6XCPgQF9MuNTJMxTGH77pJWzVdrCpqmePGj5bbaYccO7sHJI3tTXkeumFJWtWpJeWTqTmpSAm6nw9YnWO0PMrBnJqeO6mu73xdeeIGioohiwGfreCs/S3JyckY5HI5PROQsm8UP79y5M6JNSN++fROCweBswowwEXk6KSnposYYYeHs2rXL6/V6r1BK3Rm2qKdhGE9Tx4OgYRhnE5o/VK2Uusbr9e6Ktk1DWLdund/lcl2NJVp9EKXUJV27ds2OslkISqkIF3uN5EK9OByOvxEZjsxXSp3t9XofbYwRFk5eXt4sLC/RXgARuVEpdVUjdhHy89M07XiwWuYopbaYpnlWuBFWH7qudzFN8yUISX43ROSKvLy8O5vzfr1e71yl1LmEiY8Dt+fk5NiFUpvMslnXBFY8e+OXK+Zcf8eK7vuGm6Z2pIi6XFCzsM6lWORh5QIXCzwuprFy+MTH3x8+acYVwyfOiEyKDUMp27AkIIHyVNUuWxuFo7Son7EG0rZvnvXQENfVF+EDX375pe2KowfkkuBqeKuaFkckIox2gLIKf+t6w0yhQ0oCh/fMjFhWWFTGzoLiNpkfVpukBBdrtxbw4bf2eaxXnTeGlERXHXpgClOEoE0XBnUwoyaSQNDg4pMGR+SVgeWhtUnSX0wbVNJ3uVwx1ZoCK7k+Ozv7LF3XX1JKfQEcZbPaWz6f7x677SsrK/+vRjrgICLyRl5e3u9jpVHl9XrvA54MGz7X4/H8Oto2SqnRYX9/28BwZr3UVBU+GDbcye12Hx+L/UcjJydnIDVViLXwA1d4vd5PY3EMn8+3ALiSn0LIDTIu7RCR0Vih20rTNC/Nz89f34Td3AyEJ5bek5eX92JT51Ubr9f7OTCe0MIMt6ZpM7OysprjsYrOtGnmquevW7dy7vUvr5xz/TUreuwboYkardDOA+5WinnK8sY3J/8rBeRshOeBpcMnzbhp5NVPp0dbWTNVtGMlKn+gZT6HVkbMqJ6vINi7ytoLDdGa+BYrKfdgTG316tVs3ryZPn36hKw4rF8Oetc0fHtKrcTrQ44iEMVD53I6WtVg9AcNBvToSs+cyLzCnbtLKN5faRt2a2s4NI1/LVjBWUf1jzCMhvTJ5rxjB/LKJ6voYFMZ+hMNt4CrA0H6eDpz3jH24skvvfSSnWTFP6knl+kQoAzD+FtOTs5emlHPommaEpEOWB6GTKC7pml1VSMucDqdV2KTK5SVlZUiIuHhv83BYPD6ps4vGoFA4BaXy3U0MOzAmIhMBl62mxthBoSIrLJZpznz+dzlcu2lViK2iIwEXo/lcWqjlLqWsDCKiEzLy8uLaR9An8/3tq7rjwBTG7lptCvi9Ly8vEYLZnbr1k03DCNctuMbn893X2P3VRc+n2+BrutTgRkHxkTkCE3TLqI18kSnTTOXWRp1G4D3wNL1qkxx5AL9lFJHA0MFNUghvWj87787wkNmoHrS8EmP377iuesjK8FFKqLsNclpVVTWGzZv6yglkfIHFjEpeDiUNMQQ245VLXXygYGSkhK++eabCEOsQ3ICI/rrbMvb1zYMMQXBKIaY29W68wsEDUYNyLU1thav30mVP1iP8dI2SHQ7Wbs5n7e+XMevTxsWsXzSuaP4eMlGyir9MfHwVfsNLjrhcNuCi5KSEmbNmhU+vBaIaDbZBlDAuOZ2cmhkU/iHO3XqdEe08I/T6RwnIiE/YqXUvYWFhfnNmaMdhYWFZbqu/x3L8DrASI/Hc6bX630vfH2lVFrYe43pxbawsDDf4/GUHBCDraFX1A2aSVZWViZwWdjw5oSEhEdb4nhKqQdr8uCa7BGrYbdhGE2ao2EYvye0t6mYpvlXWuAhyefzzdR1/VJqhX01TbsK63xr9XyZmmrIjTWvDwBGXv10esCo6uY0tdGCjACGAoNoeP/XwxGZN3zijD+vmDP5ryFLTLMC+wf5ZE1oUemM1kIp6SA2EUj1MzDEGuqC+SR84OOP7R/ijj6ie5tpXK2hqKoO2N680lOaI9nTOATLA3f0Ed1tly/5fidORxswXBuI2+Vg7ofLbRt498zuxLiTh1BZXVexVsOMiUDQoFtmOr8Yay9Z8dprr/HDDxEpTLOwNIj+VxGl1IemaZ7t8/lurisHxzTN34YNbfT7/f9pwbm9jXVjqs0ldiuaplkYNmSjqN1s5gKvYkl2vAosaYFjAOByuUYRdsMVkSdqi6/GEq/Xu1cpFVFKXA92P8xPCgoKwnOwGoITuLj2gFJqaX5+vm3z5hhgYlXEHnwPInJ8bm7u6OibtC7LZl1TsvrZG9Yun3P9nBVzJl+/Ys71JwADRLTTgYeBddRvNCrg3uETZ4TkXSqllWPp6IXjMpUW2VqmfaLbDYolodKuaagh9jEQkoW9cOHCg9UytRkzsJvVwLkNJO1rmmJvSSWV/kijICsj1UoOb4X4ZCBgGRRH9Irs17g9v4gNO/a0uoeuObhdTrZ49/HygpW2y8efMZye2R3xByIlmDRN2XpLTZGI76LSH+TSU4fQtWNkikNVVRVPP/10+PBWLAmG/yUMLK20b4AHROQEr9d7dn5+/od1bdS1a9dspULbhSilXqipfGsRfD5fhYi8W3tMREYNGjTITvMkPN58cm5urn1T4ybi9Xrv9fl8l/l8vl/X/GtbVRoLRCQ8Qb9aROa11PEAlFLzaJ58BSLSJMM8KytrABCiYycir9OC3qlOnTp9AdRueqyZpnliSx2v+ShZMWdy4cq51328Ys7kmzVXwnAx1Vjgrwj1KfPfM2LiEwc1Ph2iFWPpuUWgKdWw/nFtHBFlK9wqyPbWnkusaWg/olVY1vrBWNSOHTtYunQpp59+esiKOZ07MKhXFl+u3HrIZSw0TVFaUcWe4nK6Z3UMWaZ3SSPB7cQUaXHRiOpAkJNH9LENry37wUfx/so69bfaIkmJLl75dDXnH3843TJDc0i7dkzhN2cM574XPg8xMEUgwemgU4fIllOl5dX4a/Xa9AcNeuV04tKTh0SsC1Y7o2XLIlrmPYeVz9gWERH5E7BD07RmWd01AqEVSqlSpdR+YFdjqwndbvfhIlK7ckSwqZCONZqmfRtmcPfdt29fH0JvoAAfESqdkGKa5ksej2e81+v9tqXnGWtEZFTtv5VSqz0ejzc/P+ZR4IMEAoF1DofDi9VJoCGEP5VWEPm9NAiHw3EkoflwlZqmzW/KvhrKunXr/Lquf0qo97QpLbEOCctmXRMAvga+PuKqx55wGY4HQcK91gdQgvngoP+b+cW6f15b1qMys3hTav4ebLTpREm03pntDdtWRgq1rZXnEXMaaogFsC6MIUlBCxYsiDDEAI4a1I3Pl0dUyrc6mqbYX15Fwb6yCEOsR1ZHsjJS2VlQ0qLeKNMUUpLcnBMl2XzR6m1tpxVBI3A5NPL37mfO+0v588RTIpZfcvJg3vpyHRt37T1YuSoiJCS46ZweaYgVl1VS5Q8c1FKr9ge5/PRhts29A4EAM2fODB8uABobimlNREReyc/P33aoJwIHK+JqUygiq1v6uEqplSJSxU/K+y6l1HDCbvgZGRmfFxUVrST0mtNXRD7Rdf0FTdNeU0r9WJcWWVth0KBB7qKiopzaYyKysoGCtE2moKCgXNf11TTcEIvYhWmaO5q4bXh/Tm9iYmJj2gY1lRVhf4/o27dvQqwqgFuLtbNvLAAmDJ/0+AZE/hZltcMTKs1zgH+//volxrCJj+9UhBr8AJhm5Fg748jLZ6RVo/opm+i5EpoladMWaIzLKuJp5tNPP8Xvj0xBOerw7qQmJWAeYh0LTSkq/UE27ozscpOS5GZA90z8Ldwfs6pGEf6I3nZhyWK+Wbs9qsRGWycl0cXbi77n+22RKSTJiW4mnD0yRKoiaJp0TU8mw6YJ+56ScqqqgyhNUR0I0r9bF34ZpZ3Rf/7zHzstuxeBhqtCtj5KRNpSiCA832Knz+drjXZQe4ms4Iqo+ly3bp1fKfV/ROa9pAB/ME3zc8Mwluu6vkjX9Rm6rv+fx+M51+PxDGtKT8uWZM+ePS4ITZgWkabkXTWFxlTLhV+wdxYUFNjlHdW/I5Fw7au1rWEMiUi4YZ61f/9+29yi9sCK565/ACuH0RbBPP+nP8S+slWpoUyb1vZL8usg6FK6QuweKKqCDmkNA79FaYwFsBRLMfugYveaNWtYv349w4aFVs/169aZfrmdWbu14JAbGUoplm/08evTIyv8jj6iG+9/0yTPe4MxRTj/uIG2yxYs+ZG9JRXtolrSDodDo7S8itnvLeHh686JWH7esQP596erWLUpn6QEF0HDpFtmOgk2HshtvmKr0wHgD5r85ozhtp9LZWUljzzySPhwERCRMNbWcLlcbcb3qZTqFBYibJWQbnV1td/lcoXc3JVStlVdXq/3v7quXwY8AdhVumTVvI6FgxWlVUCRrut7gM3ADyKyWSm1zeFwbBER365du1q1ysrlciWYphkSv9c0rbVC6M05TpOToJVS4f0ZR+u6vpCW9f8LEK615XY4HB3tVm4vBBzmFJehnY5tz0t1yqArH8lY9+wf94nG0ihqWgNG7Ozaezk0WKm/rWEo80iFsgtd7TJKi/6nDLEy4FNqGWKGYfDxxx9HGGIup4NjhvRgxUbfITfE3E4H32/fTUV1gOQw3auxw3qTmZFKaXl1i2h4VfuD9MvtwmmjI3soB4IG87/d2OZFXOsjJdHNgiWbWLphF6MGhKYiOB0aE84exZQZljqBYQpD++XY7YaNu/agUFT5gwzqmRnVeH3llVdYsiSiuO0Z2sdFps0YYqZpdg6rbm5Sj7vGUlhYWJWTkxPSdsc0zahNe30+37u6rq/E0sQ6EysBvK4fTSKQU/MaDBys4jYMowwo1nV9kYi8HwwGP2kJqY5wapT4Qy4+pmm2WFFEGA2uylRKSZhx3pw5hhs/HqLk+LQwCaZp2hr6I69+NMfwk6U0x0+VlqahNCfVy2dPadkn9EawdvaNBSMmzHhXFBNsFme5DMdRwAcEg+twOEM0P2tIFTFPoH1cI21RSjvTTvhTYPm616c1uTtDW6Gx1kdEQ78FC+wFzE8e0YfkRPchD0+6nBrb84pZvTGyN112RirHHNHDtmVPLPAHDc4//nBSbRLxv123gw3bd9t6h9oTmqbw+4M886595f/po/tx5OHdKK/0k5zgYkT/yGtxdSDIxl17cTo1gqbJxLNHkpIY+ZmVl5fz6KMRkkb5WAKucRqBUioh7O/WyqEJKqVCfnB2LYNq4/P5dvp8vslut3uIUuo44DbgNWANVqVYQy8yqVhtZH6llHrR5XKt1XV9dlZWVovphwEopSqxFPQPommtIymglIqqxt6AbZsUlsR64Ah/6BAa/j3FFIfDYftZm0Hnb5VyLEFYeuCllGOJGI75h016sE1JPoimXou+VHkAVr3wRy9WV5HI7cW8sEUm1goMm/BoR0w5wXahqIWtPJ0WobHuqsVYZeUHy0gXL17Mxo0b6dcv1OtzeM9MBvboyurN+YfUK6aUlXM0/7sfOcpGx+uyU4fy0Xc/YoqgxVD/LGiYZGekRlWEf/3ztQQMk4R2mh9Wm+REF1+t2sbny7dw0oiQinU0TXH56cNYuHIrR/TKYnDvSH3Jzd59bM8vJhA0OHZwD8491v4ze/7551m7NqKP99NYosNtHrFTIzxEKKWKa3s/RKRVRB9rEtdDkgSVUiUN2bZGc+vbmhdgyXC4XK4+ItJL07SBIjIE6IPVdcAmlBNCZ+BKh8Nxtq7rN/l8vqi5OM2hurra73A4SqjVb9E0zVYJl4lIkw0xEWlqAq0A4Y2m52FpZbXab6Dm96YA+9ZMIiXY3wPT0yS1I7C/5WbXOAyNDQ4DPxDxhKq0WmFgpd7BptesQp0yZNJjh61+7sYm9449ZGiOcxDsQikVppM6ZXraC421AvYAXwEHe8Tt37+f999/nxtvvDF0xw6NE4b1YtkP3kMenkx0O1m0aht7SyoiKvaG99c5ZWQf3v36B9KS3TF7ZKusDnDh2EHoXSLvb+u2FrBo9Tbb3ontEaWsHpLPvreE44f2jAjznji8NwN7ZnLskJ62FaorfvRRUl5JSqKba39xlG2T9pKSEmbMmBE+vJ3IHoZxGsbesL9bxTDIy8tLTExMDPkRikiTw6I1ocV8rLL/AzhycnJylVLdlFJ9RGRwjWZaNxHpDhFK4znAC7qul/l8vneJMbm5uf68vLxww6S1CgoaI10Qcvlr5oNDeG5aqc/n+9p2zUOEUrI3ylt0VWvBdCK17A4ZhgRKHDhLsTlvxJSsn/4fnK+Uo5TIczzJgTYRy5vcrlAw0X6JfL169uT69NbaBU1JjHo7fGDePHtdwhOG9bKqJ6M2gW4dXE4HO3aX8OFi+5y+ay44kk4dEqP2pWwspghJCS4uiJLn9J8v1lJaUY1DazMOkmaTnOBi6YZdfLIkMg3B5XTwx0uP45xjDrPd9tOlm6iqDnLesQMZPdBWs4/Zs2fbqejPpH31UGszX7iIhN8oM2n8g1mjcTqdSYQZfTVaaLHEyMvL2+7z+RZ5vd7nfT7fzV6v92yXyzXa4XCMUErdBITnKjiBZzIzMyPLm5tJjUxFSDWfUmoQTbv+Npju3bt3AuxLjxtGc87XcEO/ua2WYo5pOqIVIyS6pHUeTBpKoiOlSkV+pgAo9ZPRtXLulG2CRPaiBBAmDblqRrvSFBs2cfoxCLZhSYXWIh7sQ0FTLgSfEBYK+u6771i3bl3EigN7ZnJ4z0yqA80Sd44JLqfGq5+sYn9FZCrMYd27ctV5oymvjE3OX5U/yMjDdEYeFpkP5dtTysdLN5H0MwhJhqNQvPLJKtu8wFNH9eWw7uEV7fDjzj0s/cFL96yOXH2+fTeS7du321VKbgRmN3/WrUcbC02GW7XddV3v29LHdbvdPbEqHQ9iGMa2lj4uWKHNnTt3bvZ6vY+YpnkqVlVlbbJcLtflLXFsiZQWGJKZmRn5g4ghgUBgMJaBfSgI16Tr1bNnz9brK9cgArZK9IBmmgxv1anUQ1mw2CEQrel1iEGpiZqFfT5eV4epbon55FoQpdRd2D8gbqpO0l5v7fm0FE0xxPZhtTw6SGVlJR988EHEikopTh7RO2rj7dYkweXkx517eGeRfTHMhLNGcsqoPpSWNz9n2TSFs4609/589N1G8vfub/fVknYkJjhZ8sMuvlrVcG/xu4u+p6CojN+eNYIe2fbFcw8++CA+X4Ru53TaV4+xNmOEASillgG1T/ZkpZR9G4MYIiLhSuclpmkub+njhpOfn79eKXUNYS2ARORCWuC7cjgc/w0bSne5XGNjfZzaaJp2EY24xpthoQtNa7rLXim1hNDm3j2DwWBk+XiMycrKSsnIyEjr0qVLh969e6dnZWVF9kerwfAnbAdlqz2oUGe03CwbT6rTkaBq5RjWRqFCNOmWz538FWBfRSfyuxETZhwV+xnGnmETp1+AcKbdMqWYue6f17ZW5XGL01TXeET/sXfeece2b+NxQ3uSlpKIYR56Y8ztcvDMu0vw7glP17CW3fu70+nXrTPllf4mX4mDhkl2p1ROGN47Yll1IMh7X2/A1Y4afDcGpRRiCHPeX9agcHTBvjL+/dkahvfTGX+G/QPot99+yzPPPBM+vByrnVF7o80YYzUq59vChs+1WTXWnBr295rdu3eH3Eh0XZ+k6/qfdV2/W9f1B3Jycm5oiYl4vd5Piawyy+rSpUvMhXf9fv8yIh8cro31cQ6QmZmZJSK/acw2SqmY5Yj5/f41hIZ/3S3d9zE7O/twh8OxLjExcYPb7d5QVVW1SdO0qOfOmpf/r0iJ2DbMFcXoMVc8UV+xR+vhT+giP3WjCEFEIoSYNcy7se8zmihKPTny6qcjVbXRJMctAAAgAElEQVTbEMMnzuiqREWUyAMo+KGcymdbe04tSVMNsa8Iq0RZvHgxy5dHPtge1r0rw/rlUG3TeLu1cTsdeAtLeOIN+5Z6WZ1SmX7DeXgy0yivCjTprlnlD3LM4B5kZURey5f/4LMkK9w/T0MMIDHRxTdrd/DWl5Gh6nBe/2IN3j0l3DDuGNtemyLCPffcQzAYce7cC7SqKGcsaEuhyU2bNlUrFVr6LSIXtqSUg8fj6S9hFV1KqS+JDKNMAv4CTANuVUrd2rdv35ZSPQ4PoWUkJibGvIJ09+7dBYQppIvI2JycHNsn/ubidDqn0vyCgCafrzXN40MiJ0qpq1syPKlp2jisdk45WJ0juohIeMujEEQRrW9pZsAp42I8xSYjilGEadEdXIZEaOEtm3PjYkFejLK3YRKsfiymE4w901HYXotMjZt+eO7WNlPRGguaaoiVAyHVRYFAgA8/tK8kPe/YAXZabIeElCQ3by/6ng/+a1/F279bF2ZOuYDczHTbfLL6cDo0zjjK3gO/4LsfCQSNgwKTP0cUVj7eU28vpmBfdM/xxl17eHreYn55whGcdZR9GPfVV1+1O6f+g1UKH6eZiMjThOpbdXA4HH9oweNdR2ieSznwvM2q4U90CRUVFS2V61QR9ndVMBhsdLJouDfJDtM0ZxIaDlZKqSd1XbfrGtBkdF2/ELix3hVbniew+hQDICJHVFdXt4hx07t373Sl1BW1x5RSWwzD+KrODTXzy6jLRG4d/Ot/RhUbbk1MOD7KokKHO/Cd3QKXOO8girSPCL8bNmHGHbGaXywZMWn6NOAyu2WCzFn57OQIPdP2TnOqduYBIfHGefPm2XkvOHF4H7pndSTQwn0dG4KmFJpS3Dv3MzZst8/VHNgzk+fvHMdRR3SnpLyqwWFVf8Cge1a6rWjpvtIKvly17WehG1YfCS4n2/KK+PvL0a9xe4otKZGbfnWc7fLi4mLuu+++8OFyLG9Ye6VNWeA+n285kbkkN+i6bv+lNANd108HQow8pdRbXq/XrpQ53IuRIWLTzDg2hJfpFiUmJtb5tG3j2XQYhlHvDzs/P3+9iIQ3pu8JvJybmxsT1fnc3NyzsYpYDrjdG5MTEm5MNut8rTm/Qp6klFIP5OTkNLUJeVSqq6uvF5HwfJCZNZ65qOxP1hYj2BoyQE+H25gcmxk2neETZ3RVSLS0gYXLZt1s2yN2ydxr8xXadUQR0lWKvw6fMP2PsZpnLBgxccZ1IuruKIuXIGabmm+saI4htrTmdZBly5bxxRdfRKzYMTWRk0f2oaoNhCcBElwO9u2v4I6nP6Jov32Ey9MljSdvvpBrf3E0SinKKv31dgnwB4KMGdiN9JRI7/ui1dvZVVjys0zStyM1yc27i9bzyse2KRgceXg3/nXXpVET9J944gm7StwngVUxnWicB6jltcASjJzVo0cP+15UTUDX9cOAWYRWP1VgCXxGYJrm54SJaSqlriPGhmyNvEN4wvz6GuHYqIhIuMfM5XQ6GyR7kZCQcDsQ/qM41jTNLzwezykN2UcUnB6PZ4ppmvP4Sch2vVLq5WbsMxZMI7RVkq6UejYjIyNm4V9d148TkRB9LKXUFpfLVW8e6abHJ1crTWzPQ2s/cvuICTN+EYt5NoPJWKHWSKRuQdPlc657j+gPrwqlHq7xQB1yhk+Yfo/A41EW+0Tk8pVzp7RKK7bWpjmGWBB4M3zwX//6l+3K5xwzgJQkt21Cf2sjWD0S12zJ54bp71JSZn/dTUl088dLj+PFOy/h1JF9CBom+yuqCQTNiEcMwQpLnjSij+2+PlseXin/80YpRYLbxSOvfc3arZFSX5qmyM20F/1evXo1Dz8ccW3cBDzUjCklAwOAs4BrsG4QdwGXAy1ezQVtK0fsAD6f72ul1D1hwwMDgcBHuq7btzhoBLm5uWOA+Vi5O7W53ev12lrp+fn524DPw4ZP9ng8f2rufGpjGMbdhOlbici/69vONM1iwjxNImKvvRLGtm3bipVSE4nUhOorIh/puv6mruun5ebmRpMqCEHX9WRd1y/Udf1LEXmEn/KISoDxIhLRiqIOYuoRA/D5fCuAKWHDpyQlJb0TC2M/JydnJPASULs60jRN89pt27Y16KZdvb9oHtEf8BJE8cKIiY8fkirKkZOmH4dliNmxS3P77TXDarFizuS7qaO4SUTdPWLSjNdGT5h5SLTeRk+c2W34hOlvYElV2LFbkHEr596wsVUn1oo0V1BwHmFPru+99x7bt0eGpYf0yWZ4P53K6rbhFQPokJzAN2t3MPmxdyksjt5WbXCfbP5584XMuf1ifnHCIDI6JFJR6ae0oprK6gD+gEFFlZ+cLmm2Ta13F5ex/EcvCa6ff1iyNm6nRml5NX957pMGa7SJCHfccQfFxRHX0NnULd7qwDK2MoHDgdOB32F5fN4HltW8PgCeAu4G7gH+heWheJYwfatY43Q625whBuD1ev+mlAp/sh4MfKLr+lVNSZTPzc3N0HX9VtM052OF32rzis/ni2iTEMZfCPXUISL3ejyeR3v27Nkssc2+ffsmeDye+0QkpKJORL4zTdO+7L8WiYmJXmB32PBNHo+nf0OO7/V6VyqlTiWyUMABXAQsEJG1uq7/W9f12zwezxW6rl+Ym5t7oq7rp+q6fqmu65NzcnKeB9YCbwFH19rPHhG51OfzLReR5lSAxuR89fl8swnrBysiJwQCgU9ycnJ+2dT95uTkjFdKzQfCc+z+kpeXN7+h+1n3+jS/EqIZAQApgvx7xMQZ1zRpok1k6JUzxpii3iBSJd9C8adoYclw0qXDtdg4Tg4gwjhDGV+MmDT9oiZNtokMnzjjsqAYC1HK9jxQ8ANKnbNyzg32FXY/E2LxQ3sNCEnAfOSRR5gyJfwhCN74fA13zFpg2wT7UKEU5O8t46rzRvOXK8Mr6+3ZXVTGsh+8rNmSzw879rCnpILConJOHN6L+6+JfHB69+vvuemJD0hJdP2sE/WjUVpRzSUnDbb9bMJ55plnuPrqq+0W+bAMsRKsUEclVqjLhVXWnQp0wFJtzyRKhVE9rAbOAXY1YduD6Lo+CzgWyyA8iKZpR+3atcu2Ke+hxuPxdDZN8wWl1Nk2i5crpf6llPrUNM1NPp8vPMEdgOzs7K5Op3OQaZonY7VBs3MPzzEM4/qCgoJ6G0rn5OTcoZSKSBQENojIi6ZpvuNyuTbv2rWrIRW0Kjs7u4dS6nSl1NXAyLDlZaZpnpyfn2/fvT4Mj8fzhoiE3zz2isjrmqatEhEfUAUMFZHNeXl5ETfB7OzsrpqmzQAuIXYq+5+bpnldfn7+egBd1/8C/LnW8v/6fL5j7DbUdf1V4NJaQ3N9Pl+U9jKNxqHr+gPAzTbLPgWeAb7x+Xx1thXKzMzMcjqdp4jI75RSJ4YvV0rd7/V6m+Q5HT5xxkPATfWs9iGK21c8N7nFUiSOHvdIUlWKczKK24jaekw+7luWc9brr1/S4MTrEyfMSSxRZU+B/Lau9QT1FpgPtaTxM/y3009BU7cRKWcTglJy3fLnbpjZmH0PGf9kptMZ2CTW/aA2xf6yfVnrXp8WG+X2GBILq+Ac4L3aA6NHj+brr7/G5Qq9F+4treCSu15id1F5m8iVUgrKKvwM7pPNE388n+yM8O+tYQSCBsVlVSS4HKTZ5IfdOOM93v5qPR2SEwgEDQxTSHA52sRn0Br4AwZ7Syu473enM+nc6DnXW7ZsYezYsXi9thqLrcU8LK9Ek2mPhhhYnqLKysoZImJrCQOmUmq9iOQppUpFpAhIFpGOSqkOQG8gWtK5qZS62+v1/rUxc8rJyblXKXUH9oZKANgA7FBKbcIK91UAFSKSgmWQZ2IJYXbF8vLZeYgKRGRCY7wouq4fC3wZZV4hiMhTeXl5UatRdV0/BrgeOB/Lq9toROQ7TdNmer3el6mlH6Xr+t1YYfgD1GWIvQL8qtZQLA2xA8eYDPwDm+bVQDFWxexWpdRu0zR3K6WCSqmOIpID9AcGgW0D6GIR+UteXl6TZRlOnDbNWby90xyFqk9/rUzgA0S9khCQzxa/NDlSmLIJDLnq8V4OkzMQrgEZFnVFxY9iyrlNCtVNm6YN297pbwo1lbrv/yao+UqZz/s1Wbh29o3NbiU39IpHPA6H6yRBrgL7tkURKIoUctvy526Y1dDj1GGIVSnkryhVjrQNj4go0TDFG4vJJAL/BUJOnE8++YRTTonMPX341a94ct5i0pJbShaoYSigrMpPH09nnp56Ed2i5Cs1F8MUlny/k6QEF5qm2FFQzHfrd/H1mm3sLCjB/TM2yAzTpLI6QI/sTpw0vDdnHtXftqL0AFdeeSXPPRc7ndb09HRyc3PJzs6mU6dOBAIBtm3bxoYNG6iujipNYgInYmnlNQld1+cqpY63qeI61ufztXkXu67rk4BbAHtdkcYzXyn1D6/X+1lTNs7Ozj5L07T7IOZtZ0yl1Fumad6Vl5dn33KjDjwezx9E5B+E5ifZ8aTP5/u/+vaXnZ19uKZpRwEnA0OwDI4UIiU/irE8w3nAN8BHPp/vv9hUSOq6/mesMO8B6jLE3iT0IeRVn89nKyPQHDwez9E1yfXnx2iX75qmeXt+fn794oX1MGjcNLc7NeNh4LoGbrJRCV+jyVID1ivT3NqRjvlfzJ1YZ8HHkZfPSKtyat00h3RXyGEinIziOMRePf8ACtaaIr9obr7UsAmPj1PIdJStURvOLuBrYCFKW6k5A9t6F3l21+WNO/LyGWmm25FuqmAP02S4KO0khRxN03uOPpzeY99tX0ybVm9uUx2GWFtleayswpuxnnIOMmHCBObMCa/Uhp27S7j0zy9TVunH6WjRnrdRUUBFdYCczh2Ydesv6OuxF1D2+/0opSI8e7GgtLyKeV99z+x3l1BQVEZKYuyPcahQQKU/SKLbyZXnjuLy04fTMbV+Hcc1a9bw5JNP8sknn7BlyxYMo2Fe97S0NLKyssjMzGTgwIEMHDiQIUOG0LdvX7KyskhK+uk+FgwGWbZsGbfeeisLFy6MtssHsPLIbDV46sPj8fxJRIaISE+lVBDrhm8YhvF/B0JGbZ0uXbp0cLvdE4HfYnmSGnuC+pRS35qmOSsvL++j5s5H1/Vk4ALgQixDuTm6Yj8CC0XkX3l5edE1VhqAx+MZVhMmGysi3bAu/rUvbEEReTAvL+/Oxuy3Jlk/A8sISzZNM1UpVREMBkuxQvPlDQnv6rr+IJZRfYDPfD6fbXWmx+O50zTNU5RSIiJKKfWRz+d7oDHzbgw5OTlnKKX+AByD5bFsDHki8rZS6sWWeLgZPmHGJOCvDTRUarMP2KegSqz0iRKgFHAq6CDQQUGiWJ7ZTBrjARX1pWaa45e9cMOORs7JliFXPd7LGZR7RdHY/qoFWF0i8gVVpIlUAAFRBz3PHbHeVwqN/17r4h3gqhVzJkfrEQq0S0Psq1gZYj2xpCwOWjRdunRhyZIl9OzZM2Ll+1/4nDnvL6NDyqHxilX7g6SlJvL01IsY0sfeQA8Gg1xxxRWUlpZy5513MmbMGDQt9oZj3t5Sbn/qI75es50Oh9hLGAssIyxAZsdUHr7+HNvG5/VRXl7Oxo0b2bp1Kzt37qS0tJSKigqUUjgcDlJTU+nSpQudO3cmMzOTrKwsunbtSkpKSoO/o/Lycn7xi18EFyxYYFdB8T7wKFbuSlNw8JPb38SqRjv05cJNYNCgQe6ioqJeWKHWo4BspVSaiHTCSiKuBIpEpFjTtH3Aj6ZpLtQ0bZ3X6w2vDIwJWVlZmZqmDVBK9QP6KqVyRSSNGqMFSFJKGaZplmuaVikixVhG9SZN09ZWV1evq09fqrHoup7scrnSDcNINQwjWymVoWlaSSAQ2OFwOPKj5dW1NDVh8t8d+Fsp9R+v13vxoZhLNGq+zxFKqVOwvs9ONedXBtZv6YAHMB9YqZT6CljVUufXAYZNeLSnUs5pIJdhH0ptLXYAD2iuhNnLZl0TqHftRjJ00ozTNVP9CSUt2vu0HnYLMleJOhHFmDrWW2Vo8pvVz94QtRq4HRpiC2MZJ30OCMknuOuuu7jnnvDKeNjs3cuv7n6F6oDR6l6xQNDA4dCYceN5jB0avZvL73//e55++mkAnE4no0aN4pe//CXnn38+/fs3qDiqwZRV+pky4z0WrtzapgoZmkIgaJCS5GbWLb+IauS2FRYtWmSMHTvWYSOpshBL4+rdyK3iAGrQoEGu3bt3u1NSUoLbtm3z0zjh0JZEGzlypGPZsmWCfa+9/yl0XX+X0B6iz/h8vmg5gG0F1bdvX3dxcbHbNE2Vlpbm37ZtW4DQJuKtxtArZwzXTK7B8sa2aGV1GDuU8G/lNh5dNmtKXv2rNwdRQyc9fpom/A5L4qe+cHussAwwzfHPFc9et33k1Q91MQPu2Vje7+jbaEyKprB/xFWPZbkMLY82JqAdFeG7WE70BOCL2gPdunXju+++Izs78ob859kf88onq1rVC2SYJoGgyf3XnMGFxx8edb1bbrmFf/zjH7bLUlJSGD16NGPGjGHw4MH06dOHzMxMXC4Xubm5TfaaFRaXc8VfX2N7fjGJ7VR9X4DKqgD3XnUq404eUve6IghWp4NDRXl5OWPGjGH9+oho4b+B6Vi5j3HixISsrKxMh8PRyTRNh8PhcBmGEYxFXlMdx0txOBzrqSXvICJ35OXl/a2ljvlzZuTVD3WRQMIpJua5CnU01ucay5wSE/Ah8pFCve0KsDBWhQCNYegVT/RXmpyqlJyLVV0c6/ZiO1F8Iaaa73AHPw83Mk+cNs1Zsj3jAequYA0oxS3Ln5scUZxx5OUz0qrd8phSWhIS2hZHiRJT/fTkfbA1mdSOWPzUrkyJhK5fa9lBUdRa7c2UQkyp9Xft5o426yOiUOr7WN4FFZYhFuLefOCBB7j11lsjVl6/bTfj7/k3QdPE0QIhv3BMESqrAtz6mxOYdE70yr3777+fP/2p8dXPU6dO5e9//3vU5fn79qNQts3AD/Dlyq1c+8jbOBzaITVQmkpldYBRA3KZ+6eLo36nO3eXsHDlFj5fvoWsTqlcd/HR6J1j3mO5Qfj9fo466ihWrIjoC/wnrHL6OnMR4sRpDLqu3wI8WGtov8vlOmz79u0t4u3Izc090jTNRfzU0UBM0zwpPz8/anJknIbR9/oZCWmlcgSaNtC0hKIPV0guVvFaIlaYvPa/BpacSXWtVxmwDZHVKPU9StsmZuD7tqQeP/LqR3PMoGMQMFSEMUroiUZHhAysNAAXPxmjgvW+/Na/yq+QIoGdgmxA1PdKZIuWkLh02axrSuo79oiJM64R64G4Lm/NbCNYfePqF6fWmy/Zlon13f4Kwpr49unTh8WLF9O5c2RC/NR/fsi8L9e1uFdMgP0V1VxzwRimXhY9DD5r1iyuuabxmn1jx47lvffeo0OHyJC0CDz19re8MH8FTk3jmME9+MOFR9Izx7445tpH3uHjJRvbZYiysirA335/JheOjfQ2llZU8ciri/jw2x/ZV1qBQ1MYAtkZqVx+2jDOP35gTA2y4v2VbPLtQ+/SIep+vV4vI0eOpKAgojL7VJqeHxYnji26rp8KfBw2fKHP53u7hY73OKHVf3lOp3PQjh07ilrieHFg3LjXHOu7FiY59mvJDreRpFQgWRmuJFOZhhnUKp0YVaZDVbr9VC9+6fr9tb0v7YUh4/+R4nAndcE0U1C4TEWCMsWplObXTKoNzCqHSXW1W6oTtKR9zclrGzHx8TMEmUu0akvFp/5Ex4Xr/nltTHM+W5tYG2LJwGLgiNqD06dPZ/LkyC4Na7cUcMVfX8NoYa9YSXkV404azH1Xn4FDs3/L8+bN45JLLiEQaNw506dPHz799FN69LDvY/vgSwt5+u3vSElyo4DySj+5mek8PfUiBvSILCj5atVW/vDQ27icWrsSfw0aJumpibxx7+URXj8R4YbH3uXtr7+nY2oiTk076AcOBk2q/AG6dEph5GG5jOivM6hnJpmdUslITyY1yW3rHaz2Bymr8lNe6aekrIqCojJ2FZbgKyzl++2FbPbu48yj+nHTr44nJdHeqJ05cybXXRdRpb4Fyx3fZp5K4/w86NGjR04gEFiLlYR+gJd9Pl9jq9bqJTs7u6emaSsIFQR9yefz1aeRFSdOm2L4xBmHAy8CI8IWfSVinN+WPIhNpSXu9NcCT9QeGDhwIN9++y1paZGeib8+/xlzP1hOWgtVUJZWVHPSsN7MmHI+SQn2uVdfffUV5513HiUl9XpLQ0hPTzc/+OAD7ZhjbGV5eP7D5fz1+c9IqWVMqJo5De+v88Kdl0Tkg1VWB/jlnS+xI78Yt6v96ItVVgc4ZnAPnr0tslPFVyu3ctXf3yQ5IXpngaBhUh0IYppWU/bUZDcZaZYhluBykOByYpiCYZoEDZPKqgDlVQHKq/yUVfgJBA38QYPyymqyO6dx02XHc/lpQ6Meb+fOnRx33HHs2BFRCf4QMLV5n0acOPbouv5vLCX9A5SbpnlkjHPFlK7rbwPn1RrzA0fV9H6ME6ddMeaKJzr7HfKMQg7o3K1yiuPMJXOvzT+kE4sRLXGn34R1oTkYe9uzZw+9evVi5MjwriLQr1sXPl6ykf0VfhwxrKA84H06vGcW0288j/QoOlZr167loosuorCwcelASUlJxosvvmicdtpptp/hZ8s3c/fsj3E5HRHevgSXk+35xfTWOzGgR2gepMvpYOWmPNZv292uDLHqgMEJw3txwrDIStQXP1rJyo0+EuooQtA0hdvpIMHlQGmKQMCgeH8VBfvK8O0pZcfuEryFJfj2lJK/dz97Syspq7IMME0pAqalEnHuMQN5fMr5jB3aM6oRVllZya9//WuWL18evqgC60EinhsWp0VITU3dr1SIcrsbODwtLe31/fv3x0SaQNf1fxBWwa6Uetnn8z0Zi/3HidPaeFd9UJl/4ZGv55QkdQKVJmKct3zu5Ga1omtLtEQ8sAiIaEfw6KOPUlQUmZqQ07kDvztvNNWB2FaaV/qDZGWk8vB1Z9O1o30l7q5du7jssssa3VJnwIABvP/++9qFF15oG/P6YUchdz3zMYYpUeU5lIKFK7baLjuidyY2kgptGgXkRMnF2pa3r1EyJZpSOBwabpeDxAQnSQkukhNcJNV+uZ24nA6ChklFtZ9BvbJ47IbzePyP59MjO3pPaMMw+P3vf8+CBba9necCLVbFFidOXl7eAqwm3Qep6Zn4VnZ2dvRS7gbQrVu3PjXq+OH9HNcHAoG4lzdO+2baNHPFnMk3+LXAcSvnTtl2qKcTS1pKJ2E2cA2W0CsAGzZs4IknnuCuuyKb3F96ylA+WbqZb9ZsJzXJ3Wzly0DQJMHl5IHfn0nfXHvV/JKSEn7zm9+wdm1UXbgQEhMTGTVqFBMmTODiiy8mPT3d1t2yr7SS256az96SClISXVHfi8PhoGBfGaYpaGF5ax2SEmhH6WEHyegQ6XWsrA5QtL8y4j02FQEMw6SqOoDTqdG/W1d+fdowzj9uYL2yHyUlJVx55ZX85z//sVucj6UdFidOSyKmaf5R07RhQG338emapn2t6/qLmqa9KSJrGiJYWiOJ0V9EfmMYxjhC888AvKZpjtu9e3ezewXGidMWWPfsH/cd6jnEmpYyxPZglZ0+Wntw+vTp/OY3v6FXr9DwldOhcfNlx/PbLQX4A8FmibyaphA0DO6edArHDLZPoPf7/UyaNKmuFjckJibSs2dPhg4dykknncQJJ5xA//7969QJCxomdz6zgLVbCkhLTqjToDQNk+Qkt62BYgq0M4dYVAxTKKv0N+n9CCCmEDRNAkEDMQWXy0lWp1SOPqI7Zx11GKMGeBqku7Zx40bGjx/P4sVRe27/BStRP06cFiU/P39bbm7uBaZpvoHVyPoAHYHrTdO8Htiu6/pOpdRWEdmNFTYvV0q5TdPspJTqCPSo2T7XLgwvIl+IyLXtpa1WnDj/q7Skcugc4Gpg4IGBvXv3cu+999o2dh7UK4splxzLX+Z8Qkqiu0kVgyJQXuVn8sXHcPGJR0Rdb+rUqbz55pshY263m4EDB3LMMcdw9NFHM3LkSHr27ElycsNagZmmcM+cz/h4yUY61GOEiVhJ52ce2S/KvtqKSHnDEbBtXp6U4GREfx3f3v01BpmgKWV9vwoUChBELE09EevzcSgNh1MjOdFFVodU+uZ2ZnDvbIb2zWFAj6506pAUcawoGC+//LKaOnWq5vP5oq3zFlZvyThxWoVdu3atyc7OPk4pdbtS6moilcx7AD1E5LjagyLSkGvjLqXUU8nJyQ9t2rQpanf7OHHitA1a0hArwWoEHmJ1zZkzh/PPP58LL7wwYoPLTx/Gmi35vPbZmgY1iQ6ntKKKS04ewnW/PDrqOo899hgzZswAICEhgZNOOolzzz1Xxo4dS//+/VVCQuOrN8ur/PzluU95c2HDNNFKK6q54LjDufjEwbbLDbP9ucM0pUhKiBSZdmga9119BhPOHsnKjXlsyyuisKScKn+AyuogldUBHEqRmpxASpKblEQ3HVMTyemcRvesdLI7d6Brx5SmaM1JQUHB/ltuuUV74YUX6mrXsYFQraU4cVqF/Pz8QuCP2dnZsx0Ox0UiciYwmroFLKNRCiwBXgHe9nq9e2I41Thx4rQgLd1L5wXgcuCU2oO33XYbY8eOJSMjPJ0Bbh9/Ijt3l7B4/U7SGnHzLSmv4oRhvbjrtydHfWJ88803mTrVylk999xzmTZt2oFKziYnMH27bid/f3khazfn0yHZXW9uV1lFNcP65nDnb0+Ouk57S9Q3RUhwO8lIs/ceaprisO5dOax7pG6aaQqomLY6kurq6tJXXnml9O67707fsWNH9FYGVmHJBCCqqyxOnJamJnS4Hrg/Kyurl6Zp/ZRS/USkN9AZS58xWdO0FE/GZdQAABWASURBVBExgFKl1H4RKVFKbQOW+/3+7wsLC38Wpfxx4vyv0dKGmAHcA5xErQrNH374gTvvvJN//vOfERukpyTyyHXn8Pt/vMWaLQUN0hcrrajmyIHdePi6c0hOtG/99d///peJEycSDAajtl1qKIGgyZINO3nj87V8snQTgaBBaj1GowL2V/rp160Lj04+l4y06KG19uYRExGS3K4631M0YpXED1BdXW28/fbbe//+978Hli1blk3dfeD2A7/GEiCOE6ctIAUFBVuwchU/OtSTiRMnTuvQGt2lv8QKT15Ve/DJJ59kzJgxTJgwIWKDrIxUZt50AVNnfsi363fQITnB1mMiIpRWVDN6QC7Tbzgvat7Q1q1bGT9+PKWlpdx0001NMsLKKv2s21rAN2u2883aHXy/bTf+oHFQVqE+SiuqLYmFyefSPSu6vAJYzcnbE6YpJCW66JDUeg3ca1NYWMhbb70ls2bNkmXLlnWmfn28EiwjbH7Lzy5OnDhx4sSJTmsYYmBVpJ1KLTkLgJtuuolhw4YxbNiwiA30Lmk8efMFPPTyV7z55Vr8QZNEtxOHpjBNoapGd+zSk4dw6+UnRBVsLSkp4YorrmDz5s1kZWUxZcqUeicrCLuLytns3cvaLfms31bIhu2FeAtLqPIHcTktpfeGCK4Gg5bO1Rlj+jPtylOjaprVxmxnHjHDFDqnJZPSiv0xfT4fixYt4oMPPuCjjz4iPz9f0bDzeStWuPy/LTvDOHHixIkTp35ayxDbBdwGvFp7cN++fYwfP54PP/yQ3NzciI3SUhK553encfqR/Xj541Ws3ZpPeaWflCQ3o7rl8uvThnLyyD7R2+YEg1x99dUsWrQIgFGjRuHxeGzXLSwuZ9OuvazcmMfSDbv4cdce9pVW4A8YaJrC5XTgdjpsKwPtMEyT8soAndOTmfKr4xh/xvAGy3K0P0PMpHNacoNkJJpCaWkpW7ZsYfXq1axYsYIlS5awYcMG9u6tV2YpnAXA74CIvkZx4sSJEyfOoaC1DDGAfwNnA1fUHly7di2XXXYZ7733Hunp6bYbHjekJ8cO7smeknKK91fRIcVN146pURt4gyUBce211/Laa68dHEtJie6N+mLFFv724hd4C0tJSnCSnOjGXdPjsKGYpuAPGgSCBmkpifzq1IFcde5oeuZ0qn/jWrS30KQIdIwSFl60aBF33303KSkpHHbYYXTv3p3s7Gy6dOmC0+nENE0MwyAYDGIYBqWlpezcuROfz8eOHTvwer3k5+fj8/nw+/1NnWIxcC8wA4htC4c4ceLEiROnGbSmIQZwC1Z59sDag4sWLeJXv/oVL730km0lJVgtgbp2TGlQaA+ssOesWaGdltasWcP+/fvp0KFDxPrjThrMmIG5fLR4I1+u2sIWXxFF+ysJGpZR5NC0g4nlB8w/U8R6mYJCkZzkYkCPrpwwrDfnHjOAPh7791IfhtG+PGJg5fXZ8dJLL/HZZ58B8O6774YsU0q1dIVoJfAy8ABWD9Q4ceLEiROnTdHahlgBVuuj+Vgl2QeZP38+p556Ki+//DIDBgxo8gGqqqq4+eabmTlzZsSy77//nvfee4/LLrvMdtse2Z24+oIxXHXeaLx7Stns3ctm7z58e0rx7imltKyKQNCwjDNlVXh2Tk+mS3oKfXM7c3jPTPp164K7AeHL0tJS5s+fzwUXXEC4dpll2LUnhJzOkcYtwObNm6Nv1TJGmADfA//B8sLGe0fGiRMnTpw2S2sbYgBfYTWljdCuWLFiBaeccgozZ860FXytjx9//JGrrrqKr776Kuo6U6dOZfjw4XUae5qm6JaZTrfMdE4c3jtkmchPocOmtmLavXs348ePp6KigksuuSRiuSFms/ttthYCaEojq1OkR6y0tLROQyyGVAPbsCp038A6xypb48Bx4sSJEydOc2h6U8fm8STwkN0Cn8/HRRddxLhx41i3rmHOjH379vHoo49y7LHH1mmEAXi9XsaNG8f333/f6EmDFSJ1OrQmG2Hz5s3jyCOPZMGCBaSlpdmuYxhmu2n6LSIkuB22OWKVlZUUFxfH+pABLAHWpVhtiSZihbuHYbXUWkDcCIsTJ06cOO2EQ+ERO8BUrP5qf7Bb+MYbb/Dhhx9yyimnMG7cOI488kgyMjLo2LEjhmHg8/nYuXMnH330ES+88AI7d+5s8IHXrl3Lsccey/33389VV12F09nyH8PatWu5//77efXVVw+G5BwO+xCmVTXZPiyxg2KuNoZYYWEhFRUV4cOPAj8ChwPdgFSsMLW75gVQhdXkuBhL82sfsLNmu+1AIVZjeSPGbydOnDhx4sRpVQ6lIQZwPZCE1WYmgvLyct555x3eeecdUlNT6dSpEx07dsQ0TfLy8igqKoqWZ7QBeB+4KdqBi4qK+MMf/sDcuXO5/vrrOf/8822T+JuDaZosXbqUZ555hldeeYXy8vKQ5dEMMcMU2kts0jSFlCS3bW/QrVu3UlVVFT78BfBO2JjCEmE9cD4GiBtZceLEiRPnf4BDbYgZwCQsnbE7qCNUWlZWRllZWUM8X1uB8VihqzQs3aioLF68mMWLF9O7d29OP/10zj77bI444gi6devWJE+Z3+9nw4YNfPbZZ7z11lt88803BIP2ignRDTETVPuwxAxTyOiQTHJipJirTVjSwCrYCEewZCXi0hJx4sSJE+d/ikNtiIF1E74Ly4s1A2ia5oPFh1hVmQestf8DvMDtQJ39d7Zs2cJTTz3FU089RXp6Ov369WPAgAH07t2bHj160L17d9LT03G73bhcLjRNo6ysjPz8fAoKCti9ezfr1q1j7dq1/PDDD3aeoAjMKHphSlPtxiNmmCad0hJtuwwUFRWFD5UBea0xrzhx4sSJE6c90BYMsQO8hNWAeRpwGY0rJCjB0op6GCusdYAgVnul/wDXAZcA9aqrlpSUsHTp0v9v715j46zuPI7/5urx2BPHdmyTOBdyaYMD2RAuS4B0xWWhaVNQ25Vo1SJEpV3UqvtiV4JdIV6sBPtihVabaIVWvEDi2oJYbqss3RVNW5B6cwnKBTYJudUOtpl4bOfusWfmec6+eIyaPOdM4kD8eCb5fqRHis55Jjljv8hP5/I/2rZtm9UXi8UUj8eVSCRULpe/UAmGcrnsbE8lEvWyRUy+b9Sayzr7du/eHW46ruCybQAAoNk7NVnNAUn3K7iX8mUFm7LP5bCkf1ZwYu5fdHYIO9NHkn4o6RoF+9H+S5I1XTMdxhh5nqdSqXQhIewVSc+FG6sGsWRCM1vn9OKJSbqi3V3M1bE0OSzptONVAAAuS7U0I3amX0098yXdruCEXaukdgWzKgck7ZL0voITddM1JOn5qWeRgsC3VtLVkpZKWigpdVG+QVDb6n8U1Ev7uYLaaWepPiNWJ9NhClZQ57e5Dzk4liYLkj73PUUAAFxqajWIfeZTBVfUzIRPJD079UjSXAXh7JqpZ7Wk5QrC4FxNb7FwUMFet/+V9N9Tf/6MtYnqs6XN8KXlyWleLD7bjAlqqrmunSoWizp06FC4eTiSgQEAUCdqPYhF6djU8+EZbVlJHVPPAklLJLUoCGUxBUu7pxWc+uxTMFM3IvdWe2tnfqlUku/71unJVLLWVozdjDHKNqTV6bhn8siRI/r0U2tf/uFIBgYAQJ0giJ3buIICov0X4e+yglilUnEGsWSVsha1xjdGuUzKeb1RX1+fVTdNwdIwAACYUh9TL5cGa5as2ob/z3t9UtSCE5ONammyi7k6ZsOk8x++AADgslIf/+NfGqxN6uVyWZ5nF5CPx+tjs37F89XR2qSGtD2x6ii868tdzBUAgMsWQSw6VoXXcrnsLOqaqJMbvz1j1NFib9SXguuNQijmCgBACEEsOlatimoFYRPxuOoiixmj7o45zi7H0uRRBaVHAADAFIJYdKylSWOMc0YsmYwrFquPX838eXYQq1QqrqXJYQWnUgEAwJT6+N/+0jAZbvB937lHLJlMKF7jU2LGGKVTSWcNsRMnTmhoyDogOSAu9QYA4CwEsegUww2e56lSsbNJKhFXPKaavubIN1I2k3JW1c/n8zpx4kS4mRpiAACEEMSiY23W933fGcQSibhqfZOYMUZNmbQ6Wu0ZsYGBAY2Pj4ebD0YyMAAA6ghBLDoTks5ah6xUKiqV7KsXM+mkEvGY3AX6a4Pn+2qfk1U2k7b6qtQQG5jxQQEAUGcIYtE5pdCG/VKp5Jo5UnMmrWQiXsMxLKgh1tXWrIaUfQuA447JioJ7OAEAwBkIYtEpKlTColQqua4BUjaTCqrr13ASM77Rwo4WZ5+jhthxUcwVAAALQSw6kwqdnKw2I9aUSSuRiMvUcBIzkpZcMdfZd/iwtS//mKghBgCAhSAWnQk5Tk66ZsRSyYTSyUTNnpo0klLJuObPs09MHj16VH19feHmIVFDDAAAC0EsOs4g5poRSyUTyqSTzqr7tcD4wYlJ19JkoVDQ0aNHw81s1AcAwIEgFp0JBRv2z3LsmD1RlErF1ZRJy6/NHCbPN8plG5zFXAcGBlw1xPZHMjAAAOoMQSw6ZUknw41Hjth72DPplOY0NTivP6oFnu+rqy2nXLbB6jt40FkujCAGAIADQSxa1prd8PCw9VJMUq6pQX6NLk16vq8F83LByc6Qffv2hZuMJKueBQAAIIhFLR9uGBsbc77YlsvW7mZ9Y7Soc9qlK8ZEDTEAAJwIYtGy1iFHR0edL7a3ZGv4ssmYFne1Wq3lctl1YnJYkvtLAgBwmSOIRcuaERseHla5XLZebM011mQVMd8YNWVSWrl4ntU3MjKioaGhcPMf5TikAAAACGJRs9YhR0dHnbXErmhtViphXx8024KrjXJa6FiaPHjwoOueSau6KwAACBDEolUIN4yNjWlkZMR6cVHXXGUakvJrrIZFpeJpeXebWpoyVt+OHTtcH7F27wMAgABBLFp5hZbpjh8/rsFBey97e0tWuWztnZz0fOmapV3Ovt7eXlczQQwAgCoIYtEak+OqH8dJQ81tzqirrVkVr3ZqifnGqKkxpa9cu9TqKxaL2rlzZ7j5mKT/i2JsAADUI4JYtEYlWZuo9u7da72YSia06spOVTwvinFNy2Spop4lnepZ3GH17du3T/v3W3Vb90jqj2JsAADUI4JYtDw5ampV2VulG3sWKRaLzfSYpq1c8XXbtcuUcBRyffvttzUxMRFu3i7V5OFPAABqAkEsetYM0c6dO11lH3TDym51tTarXAPLk+WKp/ntzdp460qrz/M8bdmyxfWxP8z4wAAAqGMEsehZ65D5fF4ffPCB9WJXW7PuuH6FJibtOmNRG58s669uW62FHXbZiu3bt2vbtm3h5klJ70cxNgAA6hVBLHofybFc99Zbbzlf/s4dq5XLNsibxQvAJ0oVLemaq+/dtcbZ/9JLL6lSqYSbfydp90yPDQCAekYQi94hOeqJbdmyRf39/VZA67myU19ft1KniiXNxm4xzzfyPF9/d9+t6mxttvr37t2r559/3vVR51olAAD4E4JY9PKSDoYbC4WCXn/99Qk5Zsse3Hi92udkVapEe4LSN0anxif1w2/epHvXr3K+s3nzZh07ZlXkGJP05kyPDwCAekcQi56vYHnS8uyzz44Vi0XrYvAV3e360bfWaaJkLf/NmIrn69R4SX9z7436+++sd76zY8cOvfjii66utxTcMQkAAM6h9i4zvDw0SLov3Dg8PFxZu3Zt76pVq74c7rt2xXzt6S9od9+wMunkjA3MGKPTEyVlM2n9w/1/oR9/+2bne6VSSQ8++KA+/vjjcFdR0t9Kso+BAgCAszAjNjt+Lcc+MUltmzZtSpRKpV3hjlgspsf/+i6tWTFfJ8cnL/qA/KkANln29LWbVuqn//RdPfDV66q+/8QTT2jr1q2urp+I05IAAEwLM2Kz45SkmyX1hDs++eST9ubm5jfWr1+/WlL6zL6mTFpfWXOlPjqU16HBMaWSCcW/QMFXY4xKFU/FybIaUknd0LNQjz1wu370rXVqb8lW/dwzzzyjRx55xNVVkPQDSUc/96AAALiM1E7Z9svP1yT9zNXR2Nj4m61bt/bdcsst33f1nxyf1L//52/16i93aXyyrMaGlBKJ+Hl/mcYYVTxf5YonzzdqSCW15Iq5uvP6Fdqw7su6aknHeYPdCy+8oIceekiTk85ZuR9L+o/zDAMAAEwhiM2uX0i6w9Wxbt26N995550FuVzupmof3nUgr59s3aHf7OxT4fhpeZ5RIh5TLBZTLBYcvzS+kW+MYrGYUsm4Ouc2a+XiDt1wVbeuXbFAPVd2qKkxXe2fOMuTTz6pxx57zFUzTJJelvR9caURAADTRhCbXXcpmBVz7b73N2zY8KtXX311US6Xszbvnyk/elLb9w9pb39BQyMndLJYUqnsKZNOKJdt0LyWJi1d0KbFnS1a1t2meS1NFzTIwcFBPfzww3rllVeqvfK+pA0KylYAAADUjX/V1OSV46ncfffdvy8UCofMLDh9+rTZtGmT6ezsrDY+o6B6/pJZ+LkBAAB8YU0KrgOqFnT8np6ewffee28kqgBWLBbNa6+9ZtasWXOuAGYk7ZL0pch/YgAAABfRn0ka0DlCT2Nj4+Sjjz5aGh0d9WcqgO3Zs8c8/vjj5uqrrz5fADOS3pHUGfUPCgAAYCb8uaRBnScALV++3Dz11FOmUCh84eBVLBbN9u3bzdNPP202btxoGhsbpxPAypKekJSJ9scDAMClh836teVGBXc0dp/vxe7ubt1zzz3asGGDrrvuOi1YsECJRPWycL7va2RkRENDQ/rwww/17rvvqre3VwcOHKhWisKlV9I/Snpvuh8AAADVEcRqT4+kFyTdMN0PtLa2atmyZVq4cKG6u7uVzWaVzWY1MTGh0dFRjY2NKZ/P6/Dhw8rn8/K8C748fL+kf5P0nKSJC/0wAABAPWmRtFnBMuB0lgtn4ilL+r2khyTlZvbrAgAA1J5bFWyK9xVdADuooKTGTeIKLAAAcJmLSfpLSW9IOqGLH7xOKpj52izpXklzovlaAACAPWL1Zamkb0i6U9JaSYt0Yb9DX1JeQamMHQo23fdK6pfkvLcIAADMHIJY/WpTEMxWSlqtoKbXPAX7uTwFwaqoPwWvPgWb7vsljU69AwAAAAAAAAAAAAAAAAAAAAAAAAAAAAAAAAAAAAAAAAAAAAAAAAAAAAAAAAAAAAAAAAAAAAAAAAAAAAAAAAAAAAAAAAAAAAAAAAAAAAAAAAAAAAAAAAAAAAAAAAAAAAAAAAAAAAAAAAAAAAAAAAAAAAAAAAAAAAAAAAAAAAAAAAAAAAAAAAAAAAAA9P/PFPLsLUGXbwAAAABJRU5ErkJggg==;" vertex="1" parent="1">
          <mxGeometry x="262.5" y="500" width="305" height="140" as="geometry" />
        </mxCell>
        <mxCell id="4u2H8YLl8aJc4Wc5pVix-4" value="" style="edgeStyle=none;orthogonalLoop=1;jettySize=auto;html=1;rounded=0;" edge="1" parent="1">
          <mxGeometry width="80" relative="1" as="geometry">
            <mxPoint x="400" y="250" as="sourcePoint" />
            <mxPoint x="480" y="250" as="targetPoint" />
            <Array as="points" />
          </mxGeometry>
        </mxCell>
        <mxCell id="4u2H8YLl8aJc4Wc5pVix-6" value="" style="edgeStyle=none;orthogonalLoop=1;jettySize=auto;html=1;rounded=0;" edge="1" parent="1">
          <mxGeometry width="80" relative="1" as="geometry">
            <mxPoint x="400" y="250" as="sourcePoint" />
            <mxPoint x="480" y="250" as="targetPoint" />
            <Array as="points" />
          </mxGeometry>
        </mxCell>
      </root>
    </mxGraphModel>
  </diagram>
</mxfile>
